<svg xmlns="http://www.w3.org/2000/svg" xmlns:xlink="http://www.w3.org/1999/xlink" width="48" height="48" viewBox="0 0 48 48">
  <defs>
    <clipPath id="clip-Archives">
      <rect width="48" height="48"/>
    </clipPath>
  </defs>
  <g id="Archives" clip-path="url(#clip-Archives)">
    <path id="Path_749" data-name="Path 749" d="M39.5,33.153l-4.971-8.106H19.013l-5.147,8.37h0a2.73,2.73,0,0,0-.367,1.366V40.44a2.753,2.753,0,0,0,2.75,2.75H37.288a2.753,2.753,0,0,0,2.75-2.75V34.784A2.729,2.729,0,0,0,39.5,33.153ZM19.826,26.5H33.712l3.393,5.533H31.538l-.133.559a4.77,4.77,0,0,1-9.272,0L22,32.035H16.423ZM38.584,40.44a1.3,1.3,0,0,1-1.3,1.3H16.25a1.3,1.3,0,0,1-1.3-1.3V34.784a1.29,1.29,0,0,1,.209-.7l.019-.03a1.294,1.294,0,0,1,1.068-.564h4.628a6.229,6.229,0,0,0,11.782,0h4.628a1.289,1.289,0,0,1,1.015.5l.178.29a1.281,1.281,0,0,1,.1.506V40.44Z" transform="translate(-3 -10.547)" fill="#606060" stroke="#606060" stroke-width="0.2"/>
  </g>
</svg>
