<?xml version="1.0" encoding="utf-8"?>
<!-- Generator: Adobe Illustrator 23.0.1, SVG Export Plug-In . SVG Version: 6.00 Build 0)  -->
<svg version="1.1" id="Layer_1" xmlns="http://www.w3.org/2000/svg" xmlns:xlink="http://www.w3.org/1999/xlink" x="0px" y="0px"
	 viewBox="0 0 72 72" style="enable-background:new 0 0 72 72;" xml:space="preserve">
<style type="text/css">
	.st0{clip-path:url(#SVGID_2_);}
	.st1{fill:#009CE8;}
	.st2{fill:#FFFFFF;stroke:#FFFFFF;stroke-width:0.2;}
</style>
<g>
	<defs>
		<rect id="SVGID_1_" width="72" height="72"/>
	</defs>
	<clipPath id="SVGID_2_">
		<use xlink:href="#SVGID_1_"  style="overflow:visible;"/>
	</clipPath>
	<g id="Archives" class="st0">
		<path id="Rectangle_2316" class="st1" d="M17,4h39c7.7,0,14,6.3,14,14l0,0v50l0,0H17C9.3,68,3,61.7,3,54V18C3,10.3,9.3,4,17,4z"/>
		<path id="Path_2299" class="st2" d="M49.5,34.6l-5-8.1H29l-5.1,8.4l0,0c-0.2,0.4-0.4,0.9-0.4,1.4v5.7c0,1.5,1.2,2.7,2.8,2.8h21
			c1.5,0,2.7-1.2,2.8-2.8v-5.7C50,35.6,49.9,35.1,49.5,34.6z M29.8,28h13.9l3.4,5.5h-5.6L41.4,34c-0.6,2.6-3.2,4.1-5.8,3.5
			c-1.7-0.4-3.1-1.8-3.5-3.5L32,33.5h-5.6L29.8,28z M48.6,41.9c0,0.7-0.6,1.3-1.3,1.3h-21c-0.7,0-1.3-0.6-1.3-1.3v-5.7
			c0-0.2,0.1-0.5,0.2-0.7l0,0c0.2-0.4,0.6-0.6,1.1-0.6h4.6c1.1,3.3,4.7,5,7.9,3.9c1.8-0.6,3.2-2.1,3.9-3.9h4.6c0.4,0,0.8,0.2,1,0.5
			l0.2,0.3c0.1,0.2,0.1,0.3,0.1,0.5L48.6,41.9L48.6,41.9z"/>
	</g>
</g>
</svg>
