<?xml version="1.0" encoding="utf-8"?>
<!-- Generator: Adobe Illustrator 23.0.1, SVG Export Plug-In . SVG Version: 6.00 Build 0)  -->
<svg version="1.1" id="Layer_1" xmlns="http://www.w3.org/2000/svg" xmlns:xlink="http://www.w3.org/1999/xlink" x="0px" y="0px"
	 viewBox="0 0 30 30" style="enable-background:new 0 0 30 30;" xml:space="preserve">
<style type="text/css">
	.st0{fill:#FFFFFF;}
	.st1{fill:#0057B2;}
	.st2{clip-path:url(#SVGID_2_);}
	.st3{fill:#213041;}
	.st4{fill:#142230;}
	.st5{fill:#684C3E;}
	.st6{fill:#3D2B22;}
	.st7{fill:#2A3B4F;}
	.st8{fill:#3C4C5E;}
	.st9{fill:#7C5B4B;}
	.st10{fill:#FBBD98;}
	.st11{fill:#DD8E66;}
	.st12{fill:#F5B086;}
	.st13{fill:#FDC8A5;}
	.st14{fill:#EAA27C;}
	.st15{fill:#EBA07C;}
	.st16{fill:#FDD1B2;}
	.st17{fill:#1F191A;}
	.st18{fill:#946243;}
	.st19{fill:#141010;}
	.st20{fill:#443535;}
	.st21{fill:#A8DBFD;}
	.st22{fill:#83C1EC;}
	.st23{fill:#498AB5;}
	.st24{fill:#B2DFFD;}
	.st25{fill:#91B8D5;}
	.st26{fill:#B0CCE2;}
	.st27{fill:#A0B9CE;}
	.st28{fill:#87ACC6;}
	.st29{fill:#3F7DA1;}
	.st30{fill:#CD8D6C;}
	.st31{fill:#FDD0B0;}
	.st32{fill:#FDD4B7;}
	.st33{fill:#FCCEAA;}
	.st34{fill:#301305;}
	.st35{fill:#E8AE8B;}
	.st36{fill:#BABCBE;}
	.st37{fill:#8A8B8D;}
	.st38{fill:#CFD2D4;}
	.st39{fill:#FBFFFF;}
	.st40{fill:#301407;}
	.st41{fill:#B84751;}
	.st42{fill:#1F0D04;}
	.st43{fill:#3F2214;}
	.st44{fill:#FDE0CC;}
	.st45{fill:#F1E5DF;}
	.st46{fill:#EBD0C2;}
	.st47{fill:#E8AE8E;}
	.st48{fill:#F6EAE4;}
	.st49{fill:#96323B;}
	.st50{fill:#673427;}
	.st51{fill:#9C4D3A;}
	.st52{fill:#5E291B;}
	.st53{fill:#E3E5E6;}
	.st54{fill:#D87E69;}
	.st55{fill:#FDD9BF;}
	.st56{fill:#C4725F;}
	.st57{fill:#E49786;}
	.st58{fill:#E8A07C;}
</style>
<g>
	<circle class="st0" cx="15" cy="15" r="15"/>
	<g>
		<circle class="st1" cx="15" cy="15" r="14.3"/>
		<g>
			<defs>
				<circle id="SVGID_1_" cx="15" cy="15" r="14.3"/>
			</defs>
			<clipPath id="SVGID_2_">
				<use xlink:href="#SVGID_1_"  style="overflow:visible;"/>
			</clipPath>
			<g id="People_9_1_" class="st2">
				<g>
					<path class="st3" d="M25.1,57.5c0,0-0.9,0.4-1.9,0.7c-1,0.3-13.7,0.8-15.9,0c-2.2-0.7-4-0.4-4-0.4s0,0.8,0,1.2
						c0,0.1-0.1,0.2-0.1,0.3H25C25,58.6,25.1,57.5,25.1,57.5z"/>
					<path class="st4" d="M3.2,59.4C3.2,59.4,3.2,59.4,3.2,59.4L3.2,59.4C3.2,59.4,3.2,59.4,3.2,59.4z"/>
				</g>
				<g>
					<path class="st5" d="M25.1,59c0-0.2-0.2-0.6-0.2-0.8c0-0.2,0-0.3-0.1-0.2c-0.2,0-3.1,1.1-4.8,1.4c-0.1,0-0.3,0-0.5,0.1H25
						C25.1,59.2,25.2,59.1,25.1,59z"/>
					<path class="st5" d="M5.5,58.2c-0.9-0.2-2.1-0.5-2.1-0.5S3.2,58.2,3.1,59c0,0.1,0,0.3,0,0.4h5.5C7.3,58.9,6,58.4,5.5,58.2z"/>
					<path class="st6" d="M24,58.9c0.4-0.2,0.9-0.8,0.9-0.9c0-0.1-0.1-0.3-0.5-0.1c-0.3,0.1-2.2,0.8-4.5,1.5h2.6
						C23.1,59.2,23.8,59,24,58.9z"/>
					<path class="st6" d="M5.7,59.4c0-0.1,0.1-0.2,0.1-0.2l0.1-0.3l-0.3-0.1c0,0-0.1,0.3-0.1,0.5L5.7,59.4
						C5.7,59.4,5.7,59.4,5.7,59.4z"/>
					<path class="st6" d="M4.1,57.4c-0.5,0-0.7,0.3-0.8,0.6c-0.1,0.3-0.1,0.8-0.2,1.3h0.4c0,0,0-0.1-0.1-0.2
						c-0.1-0.3-0.2-0.5-0.1-0.7c0.1-0.2-0.1-0.2,0.5,0c0.6,0.3,1.5,0.6,2.1,0.9c0,0,0,0,0,0h4C8.4,58.9,4.6,57.5,4.1,57.4z"/>
					<path class="st7" d="M5.7,59.1c0-0.1-0.4-0.2-0.7-0.2C5,59,4.9,59.1,4.9,59.4h0.8C5.7,59.2,5.8,59.2,5.7,59.1z"/>
					<path class="st8" d="M5.2,58.9l-0.1-0.1c0,0-0.1,0.2-0.2,0.6H5C5.1,59.1,5.2,58.9,5.2,58.9z"/>
					<path class="st9" d="M25,58.6C25,58.4,25,57.9,24.9,58c-0.1,0.1-0.1,0.2-0.2,0.3c-0.1,0.1-0.1,0.3-0.1,0.5c0,0.2,0,0.3-0.2,0.5
						c0,0-0.1,0.1-0.1,0.1H25C25.2,59,25.1,58.8,25,58.6z"/>
					<path class="st9" d="M4.6,59c0.1-0.2,0.1-0.2,0.1-0.2S4.2,58.7,4,58.6c-0.2-0.1-0.1,0.2-0.1,0.5c0,0.1,0.1,0.2,0.1,0.3h0.5
						C4.5,59.2,4.5,59.1,4.6,59z"/>
				</g>
				<path class="st10" d="M21,14.5c0.1-0.3,0.3-0.9,0.2-1.4c-0.1-0.5-0.5-0.5-0.7-0.4c-0.2,0.1-0.4,0.1-0.5,0c-0.1-0.1,0-0.5,0-0.9
					c0-0.4,0-0.7-0.1-1.1c-0.1-0.4-0.2-0.6-0.2-1.9c-0.4-2.5-4.3-2.8-5-2.8c-0.7,0-2.8,0.4-3.9,1.3c-1.1,0.9-0.7,3.5-0.8,3.9
					c0,0.4-0.2,1.5-0.4,1.9c-0.1-0.1-0.3-0.4-0.6-0.4c-1,0.4-0.3,1.8-0.2,2c0.1,0.2,0.1,0.4,0.2,0.6C9,15.5,9,15.6,9,15.9
					c-0.2,0.8,0.5,0.6,0.7,0.7c0.1,0.3,0.6,1.7,0.8,2.3c0.2,0.6,0,3,0,3c-0.1,0.3-0.7,2.9-0.4,3.5c0.2,0.6,0.7,0.9,1.3,1.2
					c0.7,0.3,0.8,1.3,1.6,2.3c0.8,1,0.9,1.7,1.5,1.7c0.5,0,1.8-1.2,2.8-2.6c1-1.4,1.9-3,2.3-3.8c0.4-0.8-0.1-1.3-0.1-2
					c0-0.7-0.1-2.6-0.1-3.4c0.3-0.6,0.6-1.6,0.8-2.3c0.4,0.2,0.5-0.2,0.5-0.5c0-0.3,0-0.4,0.1-0.6C20.8,15.1,20.8,14.8,21,14.5z"/>
				<path class="st11" d="M19.6,12.9c0.2,0.2,0.3,0.2,0.3,0.3c0,0.1,0,0.1,0.1,0c0.1-0.1,0.2-0.3,0.3-0.5c0.1-0.1-0.3-0.4-0.4-1
					c-0.1-0.6-0.5-1.8-0.6-2.4c-0.1-0.6-0.1-2.4-1.5-3.1c-1.4-0.7-2.1-0.7-3.2-0.5c-1.1,0.2-2.4,1-3,1.3c-0.6,0.4-1.9,2-1.8,2.6
					c0.1,0.7-0.1,2.5-0.1,2.8c0,0.4,0,0.7-0.2,0.6c-0.1-0.2-0.3-0.3-0.4-0.3c-0.1,0-0.2,0-0.2,0s0.1,0.2,0.2,0.3
					c0.1,0.1,0.2,0.1,0.3,0.2c0.1,0.1,0.1,0.3,0.2,0.3c0,0.1,0.1,0.3,0.1,0.3v-0.3c0,0,0.1-0.2,0.2-0.4c0.1-0.2,0.1-0.6,0.1-0.8
					c0.1-0.2,0.1-0.5,0.1-0.8c0.1-0.3,0.2-0.6,0.5-1c0.3-0.5,0.6-0.7,0.4-1.1c-0.2-0.3-0.3-0.3-0.3-0.5c0-0.2-0.1-0.4,0-0.6
					c0.1-0.2,0.3-0.5,0.7-0.7c0.4-0.2,1.1-0.4,1.3-0.5C13,7.2,13.2,7,13.5,7c0.3,0,0.7,0.2,0.9,0.2c0.1,0,0.2-0.1,0.3-0.2
					c0.2-0.1,0.5-0.3,0.6-0.1C15.5,7.1,15.7,7,15.9,7c0.2,0,0.7,0.1,1,0.1c0.3,0,0.9,0.4,1.2,0.7c0.4,0.3,0.5,0.7,0.5,1.1
					c0.1,0.4,0,1.3,0.2,1.4c0.2,0.2,0.4,0.6,0.5,0.8c0.1,0.2,0.1,0.7,0.2,0.9C19.6,12.3,19.5,12.6,19.6,12.9z"/>
				<path class="st12" d="M15.4,23.4c0.4-0.3,1.5-0.8,2.1-1.3c0.6-0.5,1.7-2.7,1.7-2.9c0-0.2,0.1-0.3,0.1-0.5c0-0.1,0.3-0.7,0.4-1.1
					c-0.2,0.3-0.4,0.6-0.7,1c-0.6,0.7-1.2,1.1-1.6,1.4c-0.4,0.3-0.7,0.6-1.5,1c-0.9,0.5-2,0.1-2.3,0c-0.3-0.1-0.8-0.3-1.8-1.1
					c-1-0.8-1.7-2.5-1.7-2.5c0.1,0.2,0.5,1.3,0.5,1.6c0,0.2,0,2,0,2.4c0,0.4,0,0.5-0.1,1c-0.1,0.4-0.2,1.3-0.2,2.1
					c0,0.8,0.2,1.1,0.7,1.4c0.5,0.3,0.5,0.4,1.3,1c0.8,0.6,0.4,0.1,0.6-0.3c0.3-0.5,0.1-0.3,0.4-0.7c0.3-0.3,0.4,0.2,1.2,0.3
					c0.7,0.1,0.9-0.1,1.2-0.6c0.4-0.4,0.5-0.8,0.4-0.7c-0.1,0-0.4,0-0.7-0.2c-0.3-0.1-0.1-0.3-0.2-0.6C15.1,23.8,15,23.7,15.4,23.4z
					"/>
				<path class="st13" d="M12.7,13.5c-0.4,0-0.6,0-1,0.1c-0.5,0.1-0.6,0.6-0.4,1.1c0.2,0.4,0.6,0.3,1,0.1c0.4-0.3,0.7-0.7,0.9-1
					c0.1-0.1,0.2-0.1,0.2-0.3C13.4,13.4,13.1,13.5,12.7,13.5z"/>
				<path class="st13" d="M11.8,13.3c-0.2,0,0,0.1,0.4,0.1c0.4,0,0.4-0.1,0.6-0.2C13,13.2,12,13.3,11.8,13.3z"/>
				<path class="st13" d="M20.9,14.6c0.2-0.4,0.2-0.8,0.2-1.1c0.1-0.7-0.3-0.8-0.5-0.8c-0.2,0-0.3,0.3-0.4,0.4
					c-0.1,0.1-0.1,0.2-0.2,0.2c-0.2,0-0.3-0.2-0.4-0.5c-0.1-0.2-0.3,0-0.4,0.1c-0.1,0.1-0.1,0.3-0.4,0.2c-0.2-0.1-0.4-0.1-0.5-0.1
					c-0.1,0-0.7,0.1-1.1,0.1c-0.4,0-0.8-0.1-1.2-0.1c-0.4-0.1-0.6-0.4-0.7-0.7c-0.1-0.3,0-0.5,0-0.8c0-0.2-0.1-0.3-0.1-0.6
					c-0.1-0.3,0.4-0.5,0.6-0.5c0.2,0,0.3-0.1,0.8-0.2c0.4-0.1,1,0,1.2,0.1c0.2,0.1,0.6,0.4,0.8,0.6c0.2,0.2,0.4,0.5,0.4,0.8
					c0.1,0.3,0,0.4,0.1,0.4c0.4-0.7-0.4-1.5-0.4-1.6c-0.1-0.1,0-0.3,0-0.6c0.1-0.3-0.2-1-0.6-1.6c-0.4-0.7-1-0.9-1.5-1
					c-0.5-0.1-1.2-0.1-1.6,0c-0.4,0.1-0.9,0-1.3-0.1c-0.4,0-1,0.3-1.1,0.7c-0.1,0.4,0.3,0.6,0.4,0.9c0.1,0.3,0,0.7,0.3,1
					c0.3,0.3,1,0.6,1.3,0.8c0.2,0.2,0.2,0.4,0.1,0.6c0,0.2,0.1,0.4,0.1,0.5c0,0.1-0.1,0.3-0.2,0.4c-0.1,0.1,0,0.6,0,0.8
					c0,0.2-0.2,0.4-0.3,0.5c-0.6,0.4-0.2,0.8-0.1,0.9c0.1,0.1,0.2,0,0.3,0.2c0.1,0.2,0.3,0.2,0.4,0.3c0.4,0.1,0.5-0.2,0.6-0.3
					c0.1-0.1,0.3-0.1,0.4-0.1c0.1,0.1,0.3,0.1,0.4-0.1c0.1-0.2,0.1-0.5-0.1-0.6c0-0.2,0.4,0,0.7,0.2c0.3,0.2,0.8,0.7,1.1,1
					c0.3,0.3,0.6,0.4,0.8,0.4c0.2-0.1,0.3-0.2,0.4-0.1c0.1,0.2,0.2,0.4,0.2,0.8c0.1,0.4,0.2,0.7,0.3,0.9c0.1,0.2,0.1,0.4,0.1,0.8
					c0.1-0.4,0.4-1,0.4-1.2c0.6,0.2,0.5-0.6,0.5-0.7c0-0.1,0.1-0.4,0.1-0.5C20.8,15.1,20.8,14.8,20.9,14.6z"/>
				<path class="st13" d="M15.7,15.6c-0.1,0-0.3-0.1-0.5,0c-0.2,0.1-0.2,0-0.4,0c-0.2,0-0.2,0.1-0.3,0.3c-0.2,0.1-0.3,0.3-0.2,0.3
					c0.1,0,0.3,0.1,0.6,0.1c0.3,0,1.3,0,1.6,0.1c0.3,0,0.2,0.1,0.5,0c0.3,0,0.5,0,0.6-0.3c0.1-0.3-0.3-0.6-0.5-0.8
					c-0.2-0.2-0.4-0.5-0.6-0.6c-0.2-0.2-0.2-0.1-0.3,0.1c-0.1,0.2-0.1,0.2,0,0.4c0.1,0.2-0.1,0.4-0.2,0.5
					C16.1,15.6,15.9,15.6,15.7,15.6z"/>
				<path class="st13" d="M13,18.5c-0.1-0.2-0.4-1-0.6-1.3c-0.2-0.3-0.7-0.8-0.9-1c-0.2-0.1-0.1,0.1-0.1,0.5c0,0.4,0.4,0.6,0.8,0.8
					c0.4,0.2,0.4,0.6,0.5,1c0.1,0.3,0.3,0.5,0.6,0.6c0.3,0.1,0.7,0.1,0.5,0.1C13.4,19.1,13.1,18.8,13,18.5z"/>
				<path class="st13" d="M14.4,19.1c-0.4,0.1-0.5,0.9,0.8,0.8c1.3-0.1,1.7-1.1,1.9-1.5c0.2-0.4,0.5-0.9,0.5-1.2
					c0-0.3-0.1-0.4-0.3-0.4c-0.3,0-0.5,0.3-0.9,0.5c-0.4,0.3-0.7,0.5-1.1,0.5c-0.4,0.1-0.7,0-0.7,0.2c0,0.2,0.4,0.3,0.7,0.3
					C15.8,18.4,14.8,18.9,14.4,19.1z"/>
				<path class="st13" d="M17,20.2C17.1,20.2,17.1,20.2,17,20.2C17.1,20.2,17.1,20.2,17,20.2z"/>
				<path class="st13" d="M13.6,20.9c-0.5-0.2-0.6-0.4-1-0.8c-0.4-0.5-0.6-0.9-0.9-1.3c0,0,0,0.1,0.1,0.4c0.1,0.3,0.1,0.5,0.5,1
					c0.9,1.2,2.3,1.3,3.2,1c0.9-0.3,0.9-0.4,1.5-1c-0.1,0.1-0.3,0.3-0.7,0.6C15.3,21.3,14.1,21.1,13.6,20.9z"/>
				<path class="st13" d="M9.8,17.1c0.3,0.9,0.5,1.3,1.1,2c0.5,0.7,0.8,0.9,0.8,0.9s-0.6-0.7-0.9-1.2C10.4,18.2,10,17,10,16.3
					c-0.1-0.7,0.1-1.6,0.2-1.9c0.1-0.4,0.1-0.5,0.1-1.1c0-0.6-0.1-0.8-0.1-1.4c0-0.5-0.1-0.5,0-1.2c-0.1,0.8-0.3,1.8-0.4,2.1
					c-0.1,0.2-0.2,0.3-0.2,0.3s0.1,0.3,0.1,0.7c0,0.4,0,0.9,0,1.5C9.6,15.8,9.5,16.2,9.8,17.1z"/>
				<path class="st14" d="M13.4,13.8C13.4,13.8,13.5,13.8,13.4,13.8C13.5,13.8,13.4,13.8,13.4,13.8z"/>
				<path class="st14" d="M13.4,13.8c0,0-0.2,0.2-0.3,0.4c-0.1,0.2-0.1,0.2-0.2,0.4c-0.1,0.3-0.1,0.5-0.3,0.9
					c-0.1,0.5,0.1,0.4,0.3,0.4c0.2,0,0.6,0,0.9,0c0.3-0.1,0.6-0.3,0.8-0.5c0.1-0.2,0.6-0.3,0.8-0.3c0.1-0.1,0.5,0,0.7-0.1
					c0.2-0.2,0.3-0.3,0.2-0.8c0.1,0.4-0.1,0.6-0.2,0.6c-0.1,0-0.2,0-0.3,0c-0.2-0.1-0.5,0.2-0.6,0.2c-0.1,0.1-0.2,0.2-0.4,0.2
					c-0.4,0.1-0.7-0.2-0.7-0.3c0-0.1-0.1-0.2-0.3-0.2c-0.1,0-0.2,0.1-0.2,0.1c-0.3,0.1-0.5-0.2-0.4-0.5C13.2,14,13.4,13.9,13.4,13.8
					z"/>
				<path class="st15" d="M18.2,16c0-0.3-0.2-0.5-0.4-0.7c-0.2-0.2-0.7-0.7-1-1c0.1,0.2,1,1.3,1.2,1.6c0.2,0.3,0,0.6,0,0.9
					C17.9,16.8,18.2,16.3,18.2,16z"/>
				<path class="st14" d="M12.3,15c-0.3,0.3-0.6,0.5-0.7,0.7c-0.1,0.1-0.1,0.2,0,0.3c0.1,0.2,0.3,0.5,0.3,0.5
					c-0.1-0.3-0.4-0.6-0.1-0.8C12,15.4,12.2,15.1,12.3,15z"/>
				<path class="st14" d="M14,13c0.1-0.4,0-0.4,0.1-0.8c0.1-0.4,0.1-0.8-0.1-1.2c-0.2-0.4-0.6-0.6-1-0.6c-0.4,0-1.2-0.1-1.7,0.5
					c-0.5,0.5-0.5,0.9-0.6,1.1c0,0.2-0.1,0.3,0,0.3c0.1,0,0.3-0.1,0.4-0.3c0.1-0.2,0.3-0.5,0.7-0.7c0.3-0.2,0.7-0.2,1-0.1
					c0.3,0.1,0.5,0.3,0.5,0.4c0,0.1-1-0.4-1.8,0.3c-0.5,0.4-0.6,0.5-0.7,0.6c-0.1,0.1-0.2,0.1,0,0.1c0.2,0,1.4,0,1.9,0
					c0.5,0,0.5,0,0.6,0.2c0,0.2,0.1,0.4,0.2,0.5c0.1,0.1,0.1,0.2,0,0.3C13.6,13.6,13.9,13.1,14,13z"/>
				<path class="st14" d="M15.8,12.1c0.1,0.1,0.4,0.1,0.9,0.2c0.5,0.1,1.1,0.1,1.4,0.1c0.2,0,0.4,0.1,0.4,0c-0.1,0-0.4-0.5-0.7-0.7
					c-0.3-0.2-0.8-0.4-1.3-0.3c-0.5,0-0.7,0.3-0.8,0.4c0,0.1,0.1,0.1,0.1,0.1C15.8,12,15.7,12.1,15.8,12.1z"/>
				<path class="st14" d="M18,10.7c-0.3-0.2-0.5-0.3-0.9-0.4c-0.4,0-0.9,0-1.2,0.3C15.6,10.9,16,11,16.3,11c0.3,0,0.7-0.2,1.2,0
					c0.5,0.1,0.7,0.5,0.9,0.7c0.3,0.4,0.2-0.1,0.1-0.3C18.4,11.1,18.3,11,18,10.7z"/>
				<path class="st14" d="M17.5,16.2c-0.2,0.1-0.4,0.1-0.6,0.1c-0.3,0-1.1-0.3-1.6-0.3c-0.4,0-0.4,0.2-0.7,0.1
					c-0.2,0-0.2-0.2-0.7-0.1c-0.5,0.1-1.1,0.3-1.3,0.3c-0.1,0-0.3,0-0.5-0.1c-0.2-0.1-0.1,0.1,0,0.2c0.2,0.4,0.8,1,1.2,1.2
					c0.4,0.2,1.5,0.8,2.7,0.2c0.8-0.4,1.4-1,1.5-1.3C17.6,16.3,17.6,16.1,17.5,16.2z"/>
				<path class="st14" d="M13.1,20.6c-0.3-0.2-0.3,0.1,0.1,0.4c0.7,0.4,1.6,0.3,1.6,0.3c0.7-0.1,0.8-0.1,1.2-0.3
					c0.3-0.1,0.4-0.2,0.4-0.4c-0.6,0.4-1.4,0.4-2,0.4C13.8,21,13.4,20.8,13.1,20.6z"/>
				<path class="st11" d="M14.4,21.7c-0.1,0-0.4,0-0.6,0.3c-0.1,0.3-0.2,0.3-0.3,0.4c-0.1,0.1-0.1,0.3,0.3,0.1
					c0.4-0.2,1-0.3,1.5-0.4c0.5-0.1,1-0.4,1.3-0.7c0.4-0.3,0-0.3-0.2-0.3c-0.3,0-0.2,0,0-0.2c0.2-0.1,0.2-0.3,0-0.1
					c-0.2,0.1-1.6,1-3.2,0.2c0,0,0.2,0.2,0.6,0.3C14.1,21.5,14.5,21.6,14.4,21.7z"/>
				<path class="st13" d="M19.3,17c-0.1,0.2-0.3,0.5-0.5,1c-0.2,0.5-0.6,1.2-1.1,1.8c0,0,0.1,0,0.4-0.2c0.3-0.2,1.2-1.1,1.3-1.4
					c0.1-0.3,0.2-0.6,0.2-0.9C19.6,17,19.4,16.8,19.3,17z"/>
				<path class="st15" d="M20.7,12.9c0.2-0.1,0.3,0.1,0.4,0.2c0.1,0.1,0-0.1-0.1-0.3c-0.2-0.3-0.4-0.3-0.6-0.1
					c-0.1,0.2-0.2,0.3-0.4,0.5c-0.1,0.2,0,0.8,0,0.8c0-0.1,0-0.5,0.1-0.7C20.3,13.2,20.5,13,20.7,12.9z"/>
				<path class="st14" d="M20.1,16.5c0,0,0-0.3,0.1-0.4c0.2-0.4,0.3-0.4,0.3-0.5c0-0.1,0.1-0.2,0.2-0.4c0-0.2,0.2-0.6,0.2-0.9
					c0-0.2,0.2-0.7,0.1-1.1c-0.1-0.3-0.3-0.1-0.5,0c-0.1,0.1-0.3,0.5-0.3,0.8c-0.1,0.3,0,0.7,0,1c0,0.3,0,0.5-0.1,0.8
					C20,16.1,20.1,16.5,20.1,16.5z"/>
				<path class="st13" d="M20.5,14.6c0-0.2-0.2-0.4-0.2-0.4s0,0.2,0.1,0.4c0,0.2,0,0.3-0.1,0.5C20.3,15.1,20.4,14.8,20.5,14.6z"/>
				<path class="st13" d="M20.7,14.6c-0.1,0.1-0.2,0.3-0.1,0.3C20.8,14.7,20.8,14.5,20.7,14.6z"/>
				<path class="st11" d="M21,13.3c-0.1-0.3-0.3-0.2-0.5,0c-0.2,0.2-0.2,0.4-0.1,0.3c0.1-0.1,0.2-0.1,0.4,0.1
					c0.1,0.1,0.1,0.6,0.1,0.6S21.1,13.6,21,13.3z"/>
				<path class="st11" d="M8.8,13.3c-0.3,0-0.2,0.2-0.2,0.5c0,0.2,0.1,0.5,0.2,0.6c0,0,0,0,0,0c0-0.3,0-0.7,0-0.7
					C8.8,13.6,9,13.4,8.8,13.3z"/>
				<path class="st11" d="M9.1,14.7C9,14.6,8.9,14.5,9,14.8c0,0.2,0,0.5,0.1,0.5c0.1,0.1,0.2-0.1,0.2,0c0.1,0.1,0.2,0.3,0.2,0.3
					c0-0.2,0-0.5-0.1-0.6C9.2,14.8,9.2,14.8,9.1,14.7z"/>
				<path class="st11" d="M9.3,14.6c0,0,0.1-0.4,0.2-0.4c0-0.1-0.1-0.2-0.1-0.3c0-0.1-0.2-0.3-0.2-0.3s0,0.1,0.1,0.3
					c0.1,0.1,0.2,0.2,0.1,0.3C9.2,14.3,9.2,14.5,9.3,14.6z"/>
				<path class="st16" d="M9.1,16.3c0.1,0.1,0.3,0.1,0.4,0.1c0.1-0.1-0.1-0.1-0.3-0.1C9.1,16.2,9,16.2,9.1,16.3z"/>
				<path class="st13" d="M8.8,12.9c-0.3,0-0.2,0.1,0.1,0.2c0.3,0.1,0.3,0.4,0.5,0.6c0,0,0.1-0.1,0-0.3C9.3,13.1,9.1,12.9,8.8,12.9z
					"/>
				<path class="st13" d="M13.9,26c-0.5-0.2-0.6-0.3-0.9,0.1c-0.3,0.4-0.3,0.7-0.2,1.1c0.1,0.4,1.1,1.8,1.5,2.6c0,0,0.1-0.1,0.2-0.1
					c0.1,0,0.4-0.5,0.6-0.7c0.2-0.2,0.3-0.5,0.6-0.9c0.3-0.4,0.7-0.7,1.1-1.1c0.4-0.4,0.8-1.1,1.3-1.9c0.5-0.8,0.4-1,0.4-1.3
					c0-0.3,0.1-0.8,0.2-1.2c0.1-0.4,0.6-1.5,0.6-1.7c0-0.3,0-1.9,0-1.9s-0.2,0.4-0.4,0.8c-0.2,0.4-0.8,1.2-1.1,1.6
					c-0.3,0.4-1.5,1.2-2.3,1.5c-0.8,0.3-0.4,0.5-0.6,0.9c-0.1,0.4-0.1,0.6,0.3,1.1c0.4,0.4,0.3,0.5,0,1C14.9,26.4,14.5,26.2,13.9,26
					z"/>
				<path class="st10" d="M19.3,20.5c0,0.2-0.2,0.5-0.4,1c-0.2,0.4-0.3,1.5-0.4,2c0,0.5-0.3,1-0.6,1.6c-0.3,0.6-0.9,1.4-1.2,1.9
					c-0.3,0.5-0.9,0.8-1.3,1.4c-0.3,0.5-0.5,0.7-0.7,1c-0.2,0.3-0.2,0.3-0.4,0c-0.2-0.2-0.3-0.4-0.3-0.4s-0.1,0.3,0.1,0.6
					c0.1,0.3,0.5,0.3,0.7,0.3c0.3,0,1.8-1.2,2.4-1.8c0.6-0.6,1.2-1.6,2-3.1c0.8-1.5,0.5-1.5,0.5-2.6C19.7,21.2,19.3,20.3,19.3,20.5z
					"/>
				<path class="st11" d="M19.2,21.1c0,0.4,0,0.9-0.1,1.4c0,0.5-0.1,1-0.4,1.6c-0.3,0.6-0.6,1-0.9,1.5c-0.3,0.5-0.3,0.8-0.3,0.8
					c0,0,2-2.1,2.2-2.7c0.2-0.6,0.2-0.9,0.1-1.7c-0.1-0.9-0.5-1.7-0.5-1.7S19.3,20.7,19.2,21.1z"/>
				<path class="st11" d="M10.3,23c-0.1,0.3-0.1,1.2-0.1,1.6c0.1,0.4,0.4,0.4,0.4,0.4s0.1-0.3,0.2-0.4c0.2-0.1,0.9-0.3,0.6-0.8
					c-0.3-0.5-0.9-2-1-2.3C10.5,21.5,10.3,22.7,10.3,23z"/>
				<path class="st17" d="M11.7,4.3C11.8,4.2,11.7,4.3,11.7,4.3L11.7,4.3z"/>
				<path class="st17" d="M12.6,4.1C12.6,4.1,12.6,4.1,12.6,4.1L12.6,4.1z"/>
				<path class="st17" d="M12.2,4.3C12.3,4.3,12.3,4.3,12.2,4.3c0.1,0,0.1,0,0.2-0.1C12.3,4.2,12.2,4.3,12.2,4.3z"/>
				<path class="st17" d="M20.8,9.8c0,0,0-0.2,0-0.2c0,0,0-0.2,0-0.2c0,0-0.1-0.1-0.1-0.2c0.1,0,0.1-0.3,0-0.2l-0.1-0.3
					c0,0-0.3-0.2-0.2-0.2c0.1,0,0.2-0.2,0.1-0.2c-0.1,0-0.2-0.1-0.2-0.1c0.1,0,0.2-0.1,0.1-0.1c-0.1,0-0.1-0.1,0-0.1
					c0.1,0,0.3-0.2,0.1-0.2c-0.2,0-0.3-0.1-0.2-0.1c0.1-0.1,0,0,0-0.2c-0.1-0.2,0-0.5-0.1-0.4c0,0-0.1-0.3-0.2-0.2
					c-0.1,0-0.1-0.1-0.1-0.2c0-0.1-0.2-0.1-0.1-0.2c0.1,0-0.1-0.3-0.1-0.3s0-0.2-0.1-0.2c-0.1,0-0.1-0.1-0.1-0.2
					c0-0.1-0.2-0.2-0.2-0.3C19.1,5.3,18.8,5,18.8,5S18.6,5,18.6,4.9c-0.1-0.1,0-0.1-0.2-0.1c-0.2,0-0.3-0.1-0.4-0.3
					c-0.2-0.1-0.1-0.1-0.3-0.2c-0.2-0.1,0,0-0.3-0.1c-0.3-0.1-0.4-0.1-0.4-0.1s0,0.1-0.1,0c-0.1-0.1,0,0-0.2,0c-0.2-0.1-0.2,0-0.3,0
					c-0.2,0,0,0-0.4,0c-0.4,0-0.4,0-0.6,0c-0.3,0-0.4-0.1-0.6-0.3c-0.2-0.2-0.5-0.6-0.6-0.8c0,0,0.1,0.2,0,0.4
					c-0.1,0.2-0.1,0.2-0.2,0.4c-0.1,0.2-0.2,0.4-0.2,0.2c0-0.1,0.2-0.4,0-0.1c-0.2,0.3-0.6,0.2-0.8,0.3c-0.2,0.2-0.4,0.4-0.3,0.2
					c0-0.1,0.1-0.1,0.1-0.1c0,0-0.1,0-0.1,0.1c0,0-0.1,0-0.1,0.1c0,0,0,0-0.1,0c-0.1,0.1-0.1,0.1-0.1,0c-0.4,0.1-0.6,0.2-0.6,0.1
					c0,0,0,0,0,0c0,0-0.1,0-0.1,0.1c-0.3,0.2-0.6,0.4-0.8,0.5c-0.1,0.1-0.1,0-0.2,0.2c-0.1,0.2-0.2,0.2-0.3,0.3
					c-0.1,0.3-0.1,0.4-0.2,0.3c0-0.2-0.1-0.2-0.1,0C10,5.9,10,6,9.9,6C9.7,6.3,9.2,6.4,9.3,6.6c0.1,0.2-0.1,0.5-0.1,0.3
					c-0.1-0.2-0.1-0.2-0.1,0C9.1,7,8.9,7,8.8,7C8.7,7,8.6,7.2,8.7,7.2c0.1,0,0.4,0.3,0.2,0.4c-0.2,0-0.3,0.2-0.2,0.2
					c0.1,0,0.1,0.1,0,0.2C8.6,8,8.5,8.1,8.7,8.2c0.1,0,0.2,0.1,0,0.2C8.5,8.4,8.4,8.6,8.6,8.6c0.2,0,0.2,0,0.1,0.1
					C8.7,8.7,8.6,8.7,8.6,8.8c0,0.1-0.1,0.3-0.2,0.5C8.4,9.4,8.1,9.7,8.3,9.6c0.2-0.1,0.2,0,0.1,0.1C8.4,9.9,8.4,10,8.4,10.1
					c0.1-0.1,0.5-0.3,0.2,0.2c-0.1,0.2-0.1,0-0.1,0.4c0,0.4,0,0.8,0,0.6c0-0.2,0.1-0.1,0.1,0c0,0.2-0.2,0.5-0.1,0.4
					c0.1,0,0.2-0.1,0.2,0.1c0,0.2-0.2,0.4-0.1,0.4c0.1-0.1,0.2,0,0.2,0.1c0,0.1-0.1,0.2,0,0.3c0.2,0.2,0.2,0.3,0.3,0.3
					C9.2,13,9.2,13.1,9.2,13c0-0.1-0.1-0.4,0-0.1c0.1,0.3,0.2,0.5,0.2,0.4c0-0.1,0.2,0.1,0.2,0.1S9.9,13,10,12.4
					c0-0.6,0.1-1,0.2-1.4c0.1-0.3,0.5-0.6,0.5-1c0.1-0.3,0.1-0.6,0-0.5c-0.1,0-0.2-0.1-0.2-0.2c0-0.1,0-0.3-0.1-0.2c0,0,0-0.3,0-0.4
					c0-0.1,0.1-0.5,0.3-0.7c0.2-0.2,0.6-0.4,0.8-0.5c0.2,0,0.6-0.3,0.8-0.3c0.1,0,0.4,0,0.6-0.1c0.2-0.1,0.5-0.3,0.7-0.2
					c0.2,0,0.2,0,0.2,0.1C14,7,14.3,7,14.4,7.1C14.6,7.1,14.6,7,14.7,7c0.1-0.1,0.2-0.3,0.2-0.2c0,0.1,0.2-0.1,0.2-0.1s0.2,0,0.2,0
					c0,0.1,0.2,0.3,0.2,0.3s0.2-0.2,0.3-0.1C16.1,6.9,16.3,7,16.4,7c0.1,0,0.5-0.1,0.7,0c0.2,0.1,0.5,0.3,0.5,0.3s0.4,0.2,0.4,0.2
					c0.1,0,0.2,0.2,0.2,0.3c0.1,0.1,0.5,0.6,0.6,1.1c0.1,0.5,0,0.7,0,1c0,0.3,0,0.4,0.2,0.6c0.2,0.2,0.4,0.6,0.5,1
					c0.1,0.4,0,0.5,0,0.8c0,0.2,0,0.4,0.2,0.6c0.2,0.2,0.2,0.4,0.3,0.2c0.1-0.2,0.2-0.5,0.4-0.5c0.2,0,0.2-0.2,0.3-0.2
					c0.1,0,0.1-0.3,0.1-0.3c0,0-0.1-0.1,0-0.2l-0.1-0.1l0.2-0.2c0,0-0.1-0.1-0.1-0.2c0-0.1,0.1-0.3,0.1-0.4c0-0.1-0.1-0.2-0.1-0.3
					c0-0.1,0.1-0.1,0.1-0.2c0-0.1-0.1-0.3-0.1-0.3L21,10C21,10,20.9,9.8,20.8,9.8z"/>
				<path class="st17" d="M8.5,10.2c0,0-0.1,0-0.1-0.1C8.3,10.2,8.3,10.2,8.5,10.2z"/>
				<path class="st11" d="M9.6,13.7c0-0.2,0,1.1,0,1.5c0,0.4-0.1,0.5,0,0.8c0,0.2,0.1,0.6,0.1,0.6s-0.1-0.5-0.1-0.8
					c0-0.3,0-0.9,0-1.2C9.6,14.3,9.6,13.9,9.6,13.7z"/>
				<path class="st11" d="M20.1,16.3c0,0.4,0,0.4-0.1,0.8c0.3-0.9,0.3-1.3,0.3-1.6c0-0.3,0-0.7-0.1-1.1c-0.1-0.3-0.2-0.8-0.1-1.3
					c-0.1,0.4,0,0.9,0.1,1.4c0.1,0.5,0,0.8,0,1.1C20.1,15.8,20.1,15.9,20.1,16.3z"/>
				<path class="st11" d="M10.7,19.3c0.2,0.1,0.5,0.4,0.8,0.7c0.4,0.3,1.4,1.1,2.1,1.3c-0.4-0.2-1.3-0.7-1.7-1
					c-0.4-0.3-1.5-1.8-2-2.7c0,0,0.5,1.3,0.5,1.7C10.5,19.8,10.5,19.3,10.7,19.3z"/>
				<path class="st18" d="M13.5,14.8c0.2,0.1,0.7,0.3,0.7,0.2c0,0-0.1-0.1-0.2-0.2C13.7,14.6,13.5,14.8,13.5,14.8z"/>
				<path class="st18" d="M15.3,15c0.3,0,0.5-0.1,0.7-0.2c-0.1,0-0.2-0.1-0.3-0.1C15.4,14.8,15.3,15,15.3,15z"/>
				<path class="st19" d="M15.6,6.8c0.1,0.2,0.1-0.2,0.2-0.5c0.1-0.3,0.1-0.4,0-0.8c-0.1-0.4-0.2-0.4-0.4-0.6c0,0,0,0,0,0
					c0,0.1,0,0.2-0.1,0.1c-0.1-0.1-0.2-0.3-0.4-0.5c-0.2-0.2-0.3-0.4-0.2-0.2c0.1,0.2,0.2,0.6,0.3,1c0.1,0.4,0,0.4-0.1,0.2
					c-0.1-0.2-0.1-0.4-0.2-0.7c-0.1-0.3,0,0.1,0,0.4c0,0.3-0.1-0.1-0.2-0.5c-0.1-0.5-0.2-0.7-0.4-1c-0.1-0.3,0,0.1,0,0.3
					c0,0.2-0.1,0.3-0.1,0.6c0,0.3,0,0.5,0,0.9C14.2,5.7,14,5.4,14,5.1c0-0.2-0.1,0.2-0.1,0.5c0,0.3-0.1-0.2-0.2-0.4
					c0-0.2,0,0.5,0,0.5c0,0-0.1-0.4-0.2-0.6c0-0.2,0-0.5,0-0.8c0-0.4-0.1-0.3-0.2-0.2c-0.1,0.1-0.3,0.1-0.4,0.3
					c-0.2,0.2-0.1,0.3-0.2,0.5c-0.1,0.2-0.1,0.1-0.1-0.1c0-0.2,0.2-0.5,0-0.3c-0.1,0.2-0.5,0.6-0.5,1.1c0,0.5,0.2,0.9,0.4,1.1
					c0.1,0.2,0.2,0.1,0.3,0c0.1-0.1,0.4,0,0.4-0.1c0.1-0.1,0.2-0.2,0.3-0.1c0.1,0.1,0.2,0,0.2-0.1c0-0.1,0.2-0.1,0.2,0
					c0,0.1,0.3,0.1,0.2-0.1c-0.1-0.2,0.1-0.9,0.1-0.5c0,0.4,0.2,0.7,0.3,0.8c0,0,0.1,0.3,0.1,0.3c0,0,0,0,0.1-0.2
					c0.1-0.2,0.2-0.2,0.3-0.3c0.1-0.1,0.1,0,0.2-0.2c0.1-0.1,0.1,0,0.3,0.2c0.2,0.2,0.1,0,0-0.1C15.3,6.2,15.6,6.6,15.6,6.8z"/>
				<path class="st19" d="M15.4,4.8c0-0.1,0-0.1,0-0.2C15.2,4.5,15.1,4.7,15.4,4.8z"/>
				<path class="st19" d="M11.1,7.4c0.3,0,0.5-0.1,0.5-0.1c-0.1-0.1-0.4-0.1-0.5-0.5C11,6.5,10.9,6.3,10.9,6c0.1-0.3,0-0.4,0-0.5
					c0-0.1,0,0-0.1,0.2c-0.1,0.2-0.2,0.2-0.2,0.4c-0.1,0.2,0,0.3-0.1,0.1C10.4,6,10.2,5.8,10.3,6c0.1,0.3,0.2,0.4,0,0.3
					c-0.2-0.1-0.5-0.3-0.4,0c0.1,0.3,0.2,0.3,0,0.3c-0.3,0-0.4,0-0.4,0.2c0,0.2,0.2,0.3,0,0.4C9.2,7.2,9,7.2,9.1,7.3
					c0.2,0.1,0.5,0.1,0.2,0.3C9.1,7.7,9.1,7.7,9.1,7.8c0,0.1,0,0,0,0.3c0,0.3,0.1,0.3-0.1,0.4C8.8,8.7,8.9,8.7,8.8,9
					C8.7,9.2,8.5,9.4,8.7,9.2c0.2-0.2,0.4-0.3,0.6-0.4c0.3-0.1,0.4-0.2,0.4-0.3c0-0.1-0.1-0.2,0.2-0.2c0.3,0,0.5-0.2,0.6-0.2
					c0.1,0,0.3-0.1,0-0.2c-0.3-0.1-0.5,0-0.1-0.1c0.4-0.1,0.3,0,0.5-0.2c0.2-0.2,0-0.2-0.1-0.3c0,0,0-0.1,0,0c0,0,0,0,0,0
					C10.9,7.3,11,7.4,11.1,7.4z"/>
				<path class="st19" d="M10.8,7.3C10.8,7.3,10.8,7.3,10.8,7.3C10.8,7.2,10.8,7.3,10.8,7.3z"/>
				<path class="st19" d="M18.3,7.2c-0.4-0.1-0.4-0.1-0.2,0c0.2,0.1,0.4,0.3,0.5,0.5c0.2,0.2,0.3,0.5,0.5,0.5
					c0.2-0.1,0.3-0.1,0.4-0.3c0.2-0.2,0.2-0.1,0.7-0.1c0.1,0,0-0.4-0.2-0.5C20,7.1,20,7,19.8,6.8c-0.2-0.2-0.1-0.3-0.2-0.5
					C19.5,6,19.3,6.1,19.2,6c-0.1-0.1-0.1-0.1-0.2-0.2c-0.2,0-0.2,0-0.4-0.1c-0.2-0.1,0-0.2-0.1-0.4c-0.1-0.2-0.1,0-0.3,0.3
					C18,5.9,18.1,5.4,18,5c-0.1-0.4-0.1,0.1-0.1,0.3c0,0.2-0.2-0.2-0.4-0.5c-0.2-0.3-0.1,0,0.1,0.3s-0.1,0.3-0.1,0.1
					c-0.1-0.2-0.4-0.4-0.7-0.7c-0.4-0.3-0.1,0,0,0.2c0.1,0.2,0.3,0.3,0.5,0.7c0.2,0.5,0,0.3,0.1,0.8c0.1,0.5-0.1,0.5-0.3,0.7
					c0,0,0.2,0,0.4,0c0.2,0,0.3,0,0.6-0.1c0.3-0.1,0,0.1-0.1,0.2C17.6,7,18,7,18.2,6.9c0.2,0,0.2,0,0.4,0.1
					C18.9,7.2,18.7,7.3,18.3,7.2z"/>
				<path class="st19" d="M20,12.4c0.3-0.2,0.6-0.3,0.7-0.3c0.1,0,0.1-0.3-0.2-0.3c-0.2,0-0.4,0-0.2-0.1c0.2-0.1,0.5-0.3,0.2-0.3
					c-0.3,0-0.3,0-0.2-0.2c0.1-0.1,0-0.2,0.1-0.4c0.1-0.2,0.2-0.2,0.1-0.4c0-0.2-0.1-0.1-0.2-0.4c0-0.3,0-0.1,0-0.4
					c0.1-0.3,0.3-0.5,0.1-0.4c-0.2,0-0.3,0-0.5-0.1c-0.2-0.1-0.5-0.1-0.2-0.2c0.4-0.1,0.6-0.3,0.4-0.2c-0.2,0.1-0.5,0.1-0.3,0
					c0.2-0.1,0.4-0.3,0.2-0.2c-0.3,0.1-0.5,0.3-0.4,0c0.1-0.3,0.3-0.8,0.1-0.5c-0.2,0.3-0.7,0.6-0.7,0.6c0,0.3,0.1,0.5,0.1,1
					c0,0.4-0.1,0.3,0.1,0.6c0.2,0.3,0.3,0.3,0.4,0.6c0.1,0.3,0,0.2,0.1,0.6c0,0.4-0.1,0.3,0,0.6C20,12.4,19.7,12.6,20,12.4z"/>
				<path class="st19" d="M10.1,10.5c0.3-0.2,0.3-0.2,0.4-0.8c0.2-0.5,0,0-0.3,0.1c-0.3,0.1,0,0,0-0.4c0-0.4-0.1-0.1-0.3,0
					c-0.2,0.1,0.1-0.2,0.3-0.7c0.2-0.5,0-0.2-0.1-0.2C10.2,8.7,10,8.8,9.7,9C9.4,9.2,9.4,9,9.4,9.3c0,0.3,0,0.2-0.2,0.3
					C9,9.7,9.1,9.8,9.2,9.9C9.2,10,9.5,10,9.6,10.3c0.2,0.2-0.3,0.2-0.4,0.3c-0.1,0.1-0.2,0.3-0.4,0.5c-0.2,0.1,0.2,0.2,0.4,0.2
					c0.2,0,0,0.2-0.4,0.4c-0.3,0.2-0.1,0.1,0.2,0.1c0.2-0.1,0.2,0.1,0,0.3C9,12.3,9,12.2,8.9,12.5c-0.1,0.3,0,0.3,0.1,0.3
					c0.1,0.1,0.2,0,0.2,0c0.1,0,0.2-0.2,0.4-0.3c0.2-0.1,0.4-0.1,0.4-0.1s-0.1-0.7-0.1-1c0-0.3,0-0.3-0.1-0.5
					C9.7,10.5,9.8,10.7,10.1,10.5z"/>
				<path class="st19" d="M12.2,4.7c0,0-0.2,0.2-0.3,0.4c-0.1,0.2-0.1,0.3-0.2,0.6c-0.1,0.4,0-0.3,0-0.6c0-0.3-0.2,0.2-0.2,0.4
					c0,0.2-0.1-0.3-0.2-0.5c0-0.3-0.1,0.3-0.1,0.6c0,0.3,0.1,0.5,0.1,0.9c0,0.4,0.3,0.4,0.5,0.6c0,0,0-0.2,0.1-0.1
					C12,7.1,12.1,7,12,6.9C12,6.8,12,6.7,12,6.3c-0.1-0.4-0.1-0.2-0.1-0.7C11.9,5,12.2,4.7,12.2,4.7z"/>
				<path class="st19" d="M16.3,6.7c0,0.1,0.1-0.1,0.3-0.3c0.2-0.3,0.2-0.3,0.2-0.5c0-0.3-0.2-0.5-0.4-1c-0.3-0.5,0,0.2,0,0.4
					c0,0.1-0.4-0.5-0.7-0.7c-0.2-0.3,0.1,0.2,0.2,0.7c0.1,0.5,0.1,0.3,0.2,0.7c0.1,0.4,0,0.5-0.1,0.8C16.1,6.6,16.2,6.4,16.3,6.7z"
					/>
				<path class="st20" d="M14,4.1c0-0.1,0-0.1,0-0.2C13.9,3.8,13.9,3.8,14,4.1z"/>
				<path class="st20" d="M13.8,5.5C13.8,5.5,13.8,5.5,13.8,5.5C13.8,5.5,13.8,5.5,13.8,5.5z"/>
				<path class="st20" d="M13.9,4.2c0,0.1-0.1,0.1-0.1,0.3c0,0.2,0,0.1-0.1-0.1c-0.1-0.2-0.1-0.2-0.1-0.1c0,0.1,0,0.2,0,0.5
					c0,0.3,0,0.3,0.1,0.4c0,0,0,0.2,0,0.2c0-0.1,0.1-0.1,0.1-0.3C13.9,5,13.9,5,14,4.7c0.1-0.2,0-0.4,0-0.7c0,0,0,0,0,0
					C14,4.1,14,4.1,13.9,4.2z"/>
				<path class="st20" d="M16.5,6.7C16.5,6.7,16.4,6.9,16.5,6.7c0.1,0,0.2,0,0.4-0.2c0.2-0.2,0.1-0.2,0.2-0.4c0.1-0.2,0,0,0.1,0.2
					c0,0.2,0.1-0.3,0.1-0.6c0-0.3-0.2-0.3-0.4-0.6c-0.2-0.3-0.3-0.7-0.4-0.9c-0.1-0.2,0,0.1,0.1,0.4c0.1,0.3,0.1,0.2,0.2,0.4
					c0.1,0.2,0.1,0.4,0.2,0.4c0,0.1-0.1-0.2-0.3-0.5c-0.2-0.3-0.1-0.1,0,0c0.1,0.2,0.1,0.3,0.2,0.5c0.1,0.3,0,0.3,0,0.5
					C16.9,6.3,16.6,6.5,16.5,6.7z"/>
				<path class="st20" d="M11.2,6.6C11.2,6.6,11.2,6.5,11.2,6.6C11.2,6.6,11.2,6.6,11.2,6.6z"/>
				<path class="st20" d="M11.1,6.5c0,0.1,0,0.2,0.1,0.3c0.1,0.1,0,0.2,0.2,0.2c0.2,0.1,0.4,0.1,0.4,0.1c-0.2-0.1-0.3-0.2-0.4-0.3
					c-0.1-0.1-0.1-0.1-0.1-0.5c0-0.3-0.2-0.7-0.1-0.5c0,0.2,0.1,0.5,0,0.6C11.2,6.4,11.1,6.5,11.1,6.5C11.2,6.5,11.2,6.6,11.1,6.5
					C11.2,6.6,11.2,6.6,11.1,6.5C11.1,6.5,11.1,6.4,11.1,6.5z"/>
				<path class="st20" d="M19.2,8.7c0.1-0.2,0.1-0.1,0.3-0.3c0.1-0.1,0.2-0.2,0.3-0.4c0.2-0.2,0.5-0.3,0.6-0.3c0.1,0-0.2,0-0.4,0
					c-0.2,0-0.2-0.1-0.3,0c-0.2,0.1-0.3,0.3-0.4,0.4c0,0-0.2,0.2-0.1,0.2c0.1,0,0.1,0,0,0.2C19,8.8,19.1,8.9,19.2,8.7z"/>
				<path class="st20" d="M9.3,9.7C9,9.9,9,9.8,8.9,10c-0.1,0.3-0.5,0.7-0.2,0.4c0.4-0.3,0.5-0.5,0.8-0.5c0.3-0.1,0.4-0.1,0.5-0.3
					c0.1-0.1-0.5,0.2-0.4,0c0.3-0.4,0.4-0.6,0.4-0.6c-0.4,0-0.5,0.2-0.8,0.2C9,9.2,8.9,9.5,8.8,9.6C8.7,9.7,9,9.4,9.2,9.5
					C9.3,9.5,9.5,9.5,9.3,9.7z"/>
				<path class="st21" d="M32.8,49.9c0-0.9-0.3-1.3-0.1-2.3c0.1-1,0.2-1.5,0-2.3c-0.2-0.8-0.7-2.5-0.7-3.8c0-1.4,0.2-2.6-0.1-3.8
					c-0.3-1.2-1-4.3-1.2-5.6c-0.2-1.3-0.1-1.6-0.4-2.6c-0.4-1-0.8-2.2-2.7-3.2c-1.9-1.1-4.3-2.2-5.3-2.6c-1-0.4-1.5-0.7-1.5-0.7
					s-0.9-2.2-1.5-2.7c0,0.8,0,2.7-0.2,3.2c-0.1,0.5-0.5,1.1-0.8,1.6c-0.3,0.5-0.3,0.7-0.5,1c-0.2,0.3-0.3,0.5-0.5,0.6
					c-0.2,0.1-0.5,0.5-0.7,0.7c-0.3,0.2-0.7,1-1.1,1.3c-0.3,0.4-1,0.9-1,0.9s0-0.4-0.3-0.7c-0.3-0.3-0.7-0.8-0.9-1.2
					c-0.2-0.4-0.5-1.2-0.8-1.5c-0.3-0.3-0.7-0.4-1.1-0.5c-0.3,0-0.3-0.2-0.4-0.7c-0.1-0.5-0.2-0.9-0.4-1.2c-0.1-0.4-0.2-1.2-0.2-1.6
					c0-0.5,0-1.4,0-1.4s-0.3,0.3-0.7,1c-0.4,0.7-0.5,1.1-0.7,1.2C9,23,6.5,24.2,5.4,24.8c-1.1,0.5-2.9,1.3-3.9,1.9
					c-0.9,0.6-1.5,1.3-1.7,1.9c-0.3,0.6-0.7,2-1.1,3.8c-0.2,1.1-0.5,2.1-0.7,3.2v23.8h4.2c0-0.1,0-0.2,0.1-0.3
					c0.1-0.4,0.1-1,0.1-1.4c0-0.4,0.4,0,0.8,0.2c0.4,0.1,1.7,1,2.6,1.2c0.3,0.1,0.5,0.2,0.7,0.3h15.6c0.5-0.1,0.9-0.3,1.2-0.4
					c1-0.4,1.6-1,1.9-1.5c0.3-0.4,0.4-0.5,0.5-1.2c0-0.7,0-1.7-0.1-2.3c0-0.6,0-1.2,0.1-1.8c0.1-0.7,0.4-1.9,0.1-2.9
					c-0.2-1-0.1-2.5-0.1-3.3c-0.1-0.9,0-1.7,0-1.7s0.3,3,0.4,4.1c0.1,1,0,2.3,0,2.8c0,0.5-0.3,1.1-0.2,1.6c0.1,0.5,0.1,1.3,0,2
					c0,0.7-0.2,0.8,0,1.6c0.2,0.7,0.4,1.3,0.5,1.6c0,0.3-0.4,0.5-0.3,1c0.1,0.2,0.2,0.4,0.3,0.5h5c0.1-0.1,0.1-0.3,0.2-0.5
					c0.3-0.8,0.7-1.8,1-2.5c0.3-0.7,0.4-0.9,0.4-2.3C33,52.7,32.8,50.9,32.8,49.9z"/>
				<path class="st22" d="M9.1,22.9l-2.3,1.1c0,0,0.6-0.3,1-0.4c0.4-0.1,0.4,0,0.3,0.2C7.9,24,7.8,24,7.9,24.1
					c0.1,0.2-0.1,0.7-0.1,0.7C8.1,24.4,9.1,22.9,9.1,22.9z"/>
				<path class="st22" d="M11.3,25.7C11.3,25.7,11.3,25.7,11.3,25.7C11.3,25.7,11.3,25.7,11.3,25.7z"/>
				<path class="st22" d="M9.8,22.3c0,0.6-0.1,0.7,0.2,1.1c0.3,0.3,0.6,0.9,0.7,1.3c0.1,0.4,0.3,1,0.3,1c0,0,0.2,0,0.2,0
					c0,0-0.2,0-0.3-0.5c-0.1-0.6-0.2-0.9-0.4-1.3c-0.2-0.4-0.2-0.5-0.2-1.1c-0.1-0.5,0-2.1,0-2.1S9.9,21.7,9.8,22.3z"/>
				<path class="st22" d="M19.2,23c0,0.4-0.2,0.8-0.4,1.2c-0.2,0.4-0.4,0.6-0.5,1c-0.2,0.4-0.5,0.9-0.5,0.9s0.2-0.2,0.4-0.3
					c0.1-0.1,0.4-0.7,0.6-0.9c0.1-0.3,0.6-0.9,0.8-1.5c0.2-0.5,0.3-1.1,0.1-1.7c-0.1-0.6-0.2-1.5-0.2-1.5S19.2,22.6,19.2,23z"/>
				<path class="st22" d="M13.8,29c0.3,0.1,0.4,0.1,0.4,0.2c0.1,0.1-0.1-0.1-0.4-0.4c-0.3-0.3-0.8-0.7-1.2-1c-0.4-0.3-0.8-0.8-1-1
					c-0.2-0.2-0.5-0.3-0.8-0.5c-0.3-0.2-0.5-0.3-0.6-0.4c-0.1,0-1,0-1.6,0.2c-0.7,0.2-0.9,0.5-1.3,0.8c-0.4,0.4-0.7,0.7-0.8,0.9
					c-0.1,0.2-0.2,0.3-0.2,0c0,0-0.3,0.4-0.4,0.6c-0.1,0.2,0.1,0.1,0.3-0.2C6.4,28,6.5,28,6.7,27.9c0.2,0,0.4-0.1,0.7-0.1
					c0.3-0.1,0.5-0.1,0.9-0.2c0.4-0.1,0.7-0.2,1.1-0.1c0.4,0.2,0.6,0.5,0.9,0.3c0.2-0.2,0.4-0.4,0.8-0.2c0.3,0.2,0.6,0.5,1.1,0.7
					c0.5,0.2,0.5,0.3,0.8,0.5c0.3,0.2,0.6,0.7,0.9,0.9c0.3,0.2,0.3,0.4,0.3,0.4l0.1-0.1c0,0-0.4-0.3-0.5-0.5
					c-0.1-0.2-0.3-0.4-0.4-0.5C13.3,28.8,13.5,28.9,13.8,29z"/>
				<path class="st22" d="M17.1,28.2C17.1,28.2,17.1,28.2,17.1,28.2C17.1,28.2,17.1,28.2,17.1,28.2z"/>
				<path class="st22" d="M21.7,28.1c-0.2-0.2-1-1-1.4-1.3c-0.4-0.3-1.4-0.5-1.7-0.6c-0.3-0.1-0.4,0-0.5,0.2
					c-0.1,0.2-0.4,0.3-0.5,0.4c-0.2,0.1-0.3,0.3-0.3,0.6c0,0.3-0.2,0.7-0.2,0.8c0.1-0.1,0.4-0.5,0.5-0.7c0.1-0.1,0.4-0.1,0.7,0
					c0.3,0.1,2,0.8,2.5,1c0.5,0.2,1,0.6,1.2,0.6c0.2,0,0-0.3-0.1-0.5C22,28.4,22,28.3,21.7,28.1z"/>
				<path class="st22" d="M16.1,27.9c-0.2,0.2-0.6,0.8-0.6,0.8s0.3-0.1,0.5-0.1c0.2,0,0.4-0.1,0.6,0c0.2,0,0.4,0,0.4-0.2
					c0-0.2-0.2-0.4-0.3-0.6c-0.1-0.2,0.1-0.5,0.1-0.5C16.7,27.2,16.3,27.7,16.1,27.9z"/>
				<path class="st22" d="M14.5,30c-0.2,0.2-0.1,0.3,0,0.5c0.1,0.2,0.1,0.4,0.1,0.3c0-0.1,0.3-0.5,0.4-0.6c0.1-0.1,0.9-0.4,1.1-0.5
					c0.2-0.1,0.5-0.7,0.5-0.7s-0.5,0.3-0.7,0.4c-0.2,0.1-0.5,0.2-0.8,0.3C14.8,29.7,14.7,29.7,14.5,30z"/>
				<path class="st22" d="M17.8,36.5c0,0-0.5,4.2-0.6,5.4c-0.1,1.2-0.3,3.3-0.4,3.9c0,0.6,0.7,0.9,1.3,1.4c0.6,0.4,1.7,1,2.3,1.2
					c0.6,0.2,1.6,0.7,1.9,0.5c0.3-0.2,1.6-0.7,1.8-1.2c0.3-0.5,0.7-4.8,0.7-4.8s-0.3,1.9-0.4,2.7c-0.1,0.8-0.3,1.4-0.4,1.6
					c-0.1,0.3-0.3,0.5-1.2,0.9c-0.9,0.4-2.6-0.2-3.6-0.7c-1-0.5-2.2-1.5-2.2-1.5s0.2-2.8,0.4-5C17.6,38.9,17.8,36.5,17.8,36.5z"/>
				<path class="st22" d="M25.2,39.8c0,0.3,0-0.4,0.3-0.8c0.2-0.3,0.5-0.6,0.6-1c0-0.3,0.3-0.2,0-0.8c-0.4-0.5-0.2-0.8-0.6-1.1
					c-0.4-0.3-0.7-0.5-0.7,0.1c0,0.6-0.1,0.8-0.5,0.7c-0.4-0.1-0.8-0.2-1.3-0.2c-0.5,0-2.4-0.1-2.4-0.1s1.2,0.2,2.2,0.4
					c1,0.2,2.3,0.4,2.4,0.4c0.1,0,0.2,0.2,0.3,0.4c0,0.2-0.1,0.7-0.1,1C25.2,39.3,25.2,39.4,25.2,39.8z"/>
				<path class="st22" d="M26.6,27.8c0-0.7-0.2,0.4-0.5,1.4c-0.3,1-0.2,1.9-0.3,3c0,1.1,0,2.7,0.1,3.5c0.1,1,0.2-1.4,0.2-2.2
					c0-0.8,0-1,0-1.8c0-0.7,0-1.1,0-1.6C26.3,29.5,26.7,28.5,26.6,27.8z"/>
				<path class="st22" d="M22.4,24.9c0.3,0.1,1.1,0.1,1.5,0.3c0.4,0.1,2,0.8,2.8,1.1c0.8,0.3,1.9,1.4,1.7,1.1
					c-0.2-0.3-1.1-1-1.7-1.3c-0.6-0.3-2.2-0.9-3.1-1.2c-0.9-0.3-1.4-0.4-2-0.8c-0.3-0.2-0.6-0.6-0.7-0.9c0,0.1,0.1,0.3,0.2,0.5
					c0.2,0.6,0.5,2,0.7,2.8c0.1,0.8,0.5,2.2,0.5,2.2s0-1.2,0-2.1c0-0.8-0.1-1.1-0.1-1.3C22.2,25.1,22.1,24.8,22.4,24.9z"/>
				<path class="st22" d="M20.8,22.8c0,0,0,0.1,0.1,0.3C20.9,22.9,20.8,22.8,20.8,22.8z"/>
				<path class="st22" d="M8.8,59c-0.1-0.5-0.4,0-0.7,0.4h0.8C8.9,59.2,8.9,59.1,8.8,59z"/>
				<path class="st22" d="M7,58.8c-0.3-0.4-0.8-0.7-1.7-1c-0.9-0.3-1.9-1.1-2.2-1.6c-0.3-0.5-0.5-1.2-0.5-1.7c0-0.4,0.6-1.2,0.9-2.1
					c0.3-0.9-0.2-0.9-0.2-1.4c0-0.6,0.4-0.9,1-2.2c0.5-1.3,0.4-2.7,0.4-3.1c0-0.4-0.6-1.5-1-2.1c-0.4-0.7-0.3-1.5-0.2-1.9
					c0.1-0.4,0.5-0.8,0.8-1.6c0.3-0.8-0.1-1.5-0.6-1.2c-0.5,0.3-0.4-0.6-0.4-1.4c-0.1-0.8,0-0.9-0.2-1.6C3,35.1,2.7,35,2.6,34.2
					c-0.1-0.8,0.3-2.3,0.4-3.4c0.1-1.1-0.4-2-0.3-1.3c0.1,0.7-0.1,2.5-0.3,3.5c-0.2,1-0.1,1.4,0.1,2C2.8,35.7,3,36.4,3,37.2
					c0,0.8,0.1,1.1,0.1,1.5c0.1,0.4,0.3,1,0.2,1.8c0,0.8-0.1,1.5,0.1,2.4c0.3,1-0.1,1.3-0.3,1.8c-0.2,0.5,0,1.2,0.2,2.2
					c0.2,0.9-0.1,1.3-0.3,2.1c-0.2,0.8-0.3,0.9-0.3,1.7c0,0.8,0,0.8-0.2,1.7c-0.2,0.9-0.3,0.7-0.5,1.2c-0.2,0.5,0,0.5,0.1,1.2
					c0.1,0.7,0,0.5-0.1,1c-0.2,0.4,0.2,0.7,0.3,1c0.1,0.3,0.1,0.7,0.1,0.9c0-0.1,0.1-0.1,0.2-0.1c0.1,0.1,1,0.5,1.2,0.7
					C4,58.4,5,58.9,5.3,59c0.3,0.1,0.7,0.2,1,0.4h1.1C7.3,59.2,7.1,59,7,58.8z"/>
				<path class="st22" d="M15.1,57c-0.1-1.2-0.4-1-0.3,0.2c0.1,1.3-0.2,1.2-0.3,2c0,0,0,0.1,0,0.1h0.9C15.1,59.1,15.2,58.1,15.1,57z
					"/>
				<path class="st22" d="M23,59.1c1.3-0.4,2.3-1.5,2.5-2.1c0.2-0.6,0.2-1.5,0.1-2.2c-0.1-0.8,0.1-2.4,0.1-3.3
					c0.1-0.9,0-1.1-0.5-2.9c-0.4-1.8-0.3-1.1-0.6,0.4c-0.3,1.5-0.4,1.4-0.2,2.6c0.2,1.2,0.2,1.2,0.4,2.2c0.2,1-0.1,1.9,0.3,2.9
					c0.4,1-0.6,0.7-1.3,1.5c-0.7,0.8-1.5,0.4-2.1,0.5c-0.6,0.1-1.1-0.1-1.7,0.5c-0.2,0.2-0.4,0.3-0.7,0.3h2.7
					C22.4,59.3,22.7,59.2,23,59.1z"/>
				<path class="st22" d="M16.4,59.2c-0.1,0.1-0.1,0.1-0.2,0.2h0.6C16.5,59.1,16.6,58.9,16.4,59.2z"/>
				<path class="st22" d="M2.4,57.6C2.4,57.6,2.4,57.6,2.4,57.6C2.4,57.7,2.4,57.6,2.4,57.6z"/>
				<path class="st22" d="M28.4,59.1c-0.7-0.4-0.8-0.2-1.2-0.7c-0.4-0.4-0.6-0.6-0.2-0.9c0.5-0.3,0.7-0.4,1.3-0.7
					c0.5-0.3,1.2-0.7,0.5-0.7c-0.6,0-0.9,0.3-1.4,0.1c-0.5-0.2-1.1-0.4-0.3-0.5c0.8-0.1,1.3,0,1.2-0.3c-0.1-0.3,0-0.6-0.5-0.6
					c-0.6,0-0.5,0-0.8-0.2c-0.3-0.2-0.8-0.5-0.1-0.4c0.7,0.1,1.3,0.2,1-0.2c-0.4-0.4-0.4-0.4-0.6-0.5c-0.3-0.1-0.5-0.2-0.4-0.6
					c0.1-0.4,0.5-0.7,1.1-0.7c0.6,0,2,0.5,2,0.2c0-0.3-0.2-0.7-1.1-1c-0.9-0.3-1.2-0.1-1.4-0.7c-0.2-0.5-0.7-1.3-0.6-1.7
					c0.1-0.4,0.3-0.1,0.9-0.4c0.6-0.3,0.3-0.7,0.3-1.6c0-0.9,0.3-2.7-0.1-2.6c-0.4,0.1-0.4,0.4-0.8,1.1c-0.4,0.8-0.9,1.1-0.4,0.2
					c0.6-0.9,0.7-1.3,1.3-2.1c0.6-0.8,1.7-2.2,2.1-3.3c0.4-1.1,0.5-1.9,0.4-2.6c0-0.7,0-3.2-0.2-2c-0.1,1.1-0.4,3.8-0.9,4.9
					c-0.5,1.2-0.7,1.8-1.3,2.5c-0.7,0.7-1,1.4-1.1,0.7c0-0.7-0.4-0.4-0.3-1.1c0.1-0.6,0-0.6-0.1-0.9c-0.2-0.2-0.3-0.6-0.2-1.1
					c0.1-0.5,0.7-3.6,0.8-4.4c0.1-0.8,0.3-1.8,0.6-2.5c0.3-0.7,0.7-1.7,0.9-2.4c0.3-0.7,0.6-0.9,0.7-1.3c0-0.3-0.4,0.7-0.8,1.4
					c-0.3,0.7-0.9,1.4-1.2,2.2c-0.2,0.8-0.4,1.9-0.5,2.6c-0.1,0.8-0.5,2.9-0.7,3.7c-0.2,0.8-0.2,1.7-0.2,2.2c0,0.5,0.2,0.4,0,1.2
					c-0.2,0.8-0.3,1.4-0.3,1.7c0,0.3,0.1,1.4,0.2,2.1c0.1,0.8,0.1,2.3,0,3c-0.1,0.7-0.2,1.2-0.2,1.5c0,0.2,0,0.6,0,0.9
					c0,0.3,0.1,0.6,0,1c-0.1,0.4,0,1.1-0.1,1.5c-0.1,0.4-0.1,0.6,0.1,1c0.2,0.5,0.5,1.4,0.4,1.7c-0.1,0.3-0.4,0.6,0,1.2
					c0,0,0,0.1,0.1,0.1h0.7c0-0.2,0-0.3,0.2-0.2c0.2,0,0.4,0.1,0.7,0.2h0.8C28.7,59.3,28.6,59.2,28.4,59.1z"/>
				<path class="st22" d="M26.1,38.9c0-1.2,0.6-2.1,0.7-3c0.1-0.8,0.4-1.2,0.1-1c-0.3,0.3-0.2-0.2-0.1-1c0-0.7,0.2-1.5,0.2-2.2
					c0-0.7-0.4,0.9-0.5,1.6c-0.1,0.7,0.1,1.1,0.1,1.7c0,0.7,0,1,0,1.6c-0.1,0.6-0.2,0.9-0.5,1.5c-0.3,0.5-0.4,0.6-0.5,0.9
					c0,0.3-0.1,0.6-0.1,1c0.1,0.4,0.2,0.5,0.2,1.1c0,0.6-0.3,0.6-0.2,1.1c0.1,0.5,0.3,0.7,0.2,1.2c-0.1,0.5,0.1,0.9,0.1,0.9
					s0.1-0.5,0.1-0.8c0.1-0.3,0-0.4-0.1-0.8c-0.1-0.4-0.1-0.6,0.1-1.5C26.1,40.4,26.1,40,26.1,38.9z"/>
				<path class="st22" d="M2.3,59c0.1-0.5,0.1-1.2,0.2-1.5c0-0.3,0-0.9,0-1.5c0-0.5,0-0.7-0.1-1.6c0-0.8,0.3-1.3,0.3-2.2
					c0.1-0.9,0.3-2.4,0.7-3.3c0.4-0.9,0.1-1.5,0.1-2.3c0-0.8,0.1-2.4,0-3c-0.1-0.6-0.2-1.2-0.2-2.4c0-1.1-0.2-2.2-0.3-3.3
					c-0.1-1.2-0.4-2.2-0.5-2.7c-0.1-0.5-0.3-0.5-0.6-1.9c-0.3-1.4-0.3-1.5-0.3-0.5c0,1,0.1,1.1,0.2,2.1c0.1,1,0.2,0.7,0.6,1.6
					c0.4,0.9,0.1,1,0.2,2.6c0.1,1.5-0.4-0.5-0.8-1.6c-0.4-1.1-0.4-0.9-0.7-2.1c-0.3-1.2-0.8-1.9-1.4-2.7c-0.6-0.8,0.1,1,0.4,2.2
					C0.5,36,0.6,36.3,1,37.5c0.3,1.2,1.2,3.2,1.5,3.6c0.2,0.4,0.3,1,0.3,1.9c0,0.9,0.1,1.8,0.1,2.8c0,1-0.3,0.8-0.5,1.5
					C2.1,48,2,47.4,1.9,47.8c-0.1,0.4-0.3,0.2-0.1,0.6c0.3,0.4,0.1,0.5,0.1,0.9c0,0.3-0.2,0.8-0.4,1c-0.2,0.2-1.6-0.1-1.9-0.1
					c-0.3,0,0.4,0.3,1.3,0.5c0.9,0.2,0.2,0.2,0.6,0.4c0.4,0.2,0.1,0.4-0.2,0.5c-0.3,0.1-0.5,0.5-0.1,0.7c0.4,0.2,0.1,0.6,0,0.8
					c-0.1,0.2-0.2,1.4-0.3,1.9c-0.1,0.5-0.4,0.6-0.6,1.2c-0.2,0.6,0.5,1.2,0.6,1.8c0.1,0.4,0.2,0.9,0.3,1.5h1.1
					C2.2,59.3,2.3,59.1,2.3,59z"/>
				<path class="st22" d="M-1.1,34.5c0.1,0.5,0.1,1.8,0.5,2.8c0.4,1.1,1,2.4,1.7,3.4c0.4,0.6-0.2-1.1-0.4-2.1c-0.3-1-0.6-2-1.1-3.3
					C-0.8,34.1-1.2,34-1.1,34.5z"/>
				<path class="st22" d="M-1.3,45.5c-0.5-0.7-1-0.7-0.1,0.4c0.9,1.1,1,1.4,1.5,1.7c0.5,0.3,1,0.4,1.2,0.3c0.2-0.1-0.2-0.6-0.4-0.6
					C-0.2,46.8-0.8,46.2-1.3,45.5z"/>
				<path class="st22" d="M1.5,49.3c-1.1-0.6-1.2-0.7-2.1-1.1c-0.8-0.3-1-0.1-1.4,0v0.2c0.2,0.1,0.5,0.2,0.8,0.2
					c0.8,0.2,2,0.5,2.3,0.7C1.4,49.4,2,49.6,1.5,49.3z"/>
				<path class="st22" d="M-2,48.9v0.4c0.3,0,0.6,0,0.8,0.1c0.4,0.2,1.1,0.1,1.1,0.1C-0.9,49.3-1.3,49.1-2,48.9z"/>
				<path class="st22" d="M0.6,53.4c-0.7-0.2-0.8-0.3-1.4-0.4c-0.7-0.1-1.2-0.1-0.5,0.1c0.7,0.2,1.6,0.3,1,0.4c-0.6,0.1-0.3,0-1,0.1
					c-0.2,0-0.4,0.1-0.6,0.1v0.1c1-0.2,1.5-0.1,2.1-0.2C0.8,53.5,1.3,53.6,0.6,53.4z"/>
				<path class="st22" d="M0.8,58.3c-0.4-0.3-0.7-0.7-0.7-0.7c-0.7-0.5-1.3-1.1-2-1c0,0-0.1,0-0.1,0v0.7c0.2-0.1,0.4-0.1,0.7,0.1
					c0.6,0.3,1.6,0.1,1.1,0.4c-0.5,0.3-0.4,0.3-1,0.6c-0.3,0.1-0.6,0.3-0.8,0.5v0.1c0.1,0,0.2-0.1,0.3-0.1c0.9-0.4,1.6-0.6,2-0.5
					C0.8,58.3,1.2,58.6,0.8,58.3z"/>
				<path class="st22" d="M0.4,59.1c-0.3-0.1-0.7,0-1.1-0.1c-0.4,0-0.8-0.1-1.3,0c0,0,0,0-0.1,0v0.3c0.1,0,0.3,0,0.5-0.1
					c0.8-0.1,1.9,0,2.3,0.1h0.1C0.9,59.3,0.6,59.2,0.4,59.1z"/>
				<path class="st22" d="M16.4,57.5c-0.1-1.4-0.2-3-0.3-5.4c-0.1-2.4-0.2-1.8-0.4-3.4c-0.2-1.6-0.2-1.5-0.4-3.1
					c-0.1-1.6-0.2-2.4-0.2-1.8c0,0.5-0.1,1.9-0.2,3.2c-0.1,1.4,0,0.8,0.3,1.6c0.2,0.8,0.1,1.2,0.4,3.5c0.2,2.3,0.1,2,0.1,4
					c0,1.8,0.1,2,0,3.1h0.7C16.5,59.1,16.5,58.5,16.4,57.5z"/>
				<path class="st22" d="M21.1,58.7c0.4-0.3,0-0.5-0.1-1.3c-0.1-0.8,0-1.6-0.3-3.2c-0.3-1.5-0.2-2.4-0.4-3.6
					c-0.2-1.2-0.3-1.9-0.9-2.9c-0.6-1,0,0.6,0.1,1.5c0.1,1,0,1,0,2c0,1,0,1.6,0.3,3.1c0.2,1.5,0.2,2.3,0.3,3.3
					c0.1,0.9-0.1,1.1-0.4,1.8h0.3C20.2,59.2,20.9,58.9,21.1,58.7z"/>
				<path class="st22" d="M23.4,53.2c-0.4,1.5-0.2,1.8-0.3,3.5c-0.1,1.7-0.6,1.7-1.4,2.5c0,0,1.9-1.5,2-2c0.1-0.5,0-2.2-0.1-3.5
					C23.5,52.3,23.7,51.7,23.4,53.2z"/>
				<path class="st23" d="M8.4,26.1C7.9,26.4,7,27.2,7,27.2s0.9-0.8,1.5-0.8c0.6-0.1,1.3-0.2,1.5,0.1c0.1,0.3,0.4,0.7,0.5,0.6
					c0.2-0.1,0.3,0,0.6,0c0.3,0.1,0.4,0,0.7,0.2c0.3,0.2,0.6,0.6,1,0.8c0.3,0.2,1,0.5,1,0.5s-1.8-1.7-2.2-2
					c-0.4-0.3-1.1-0.7-1.3-0.8C10,25.8,8.9,25.9,8.4,26.1z"/>
				<path class="st23" d="M20.8,27.2c-0.3-0.3-1-0.7-1.6-0.8c-0.6-0.2-0.8-0.2-1,0c-0.2,0.3-0.6,0.4-0.6,0.4c0,0-0.3,0.2-0.3,0.6
					c0,0.1,0.5-0.2,0.8-0.2c0.4-0.1,0.6-0.2,0.8-0.4c0.3-0.2,0.9,0,1.2,0.1c0.3,0.1,0.6,0.6,0.9,0.8c0.3,0.2,0.7,0.6,0.7,0.6
					c0.1,0.1,0.2,0.2,0.2,0.2s0-0.2-0.3-0.5C21.4,27.8,21.1,27.4,20.8,27.2z"/>
				<path class="st23" d="M25.8,40.5c-0.2-0.2-0.1-0.5-0.2-1.1c-0.1-0.7-0.2-1.2-0.2-1c0,0.3,0,0.3,0,0.8c0,0.5,0,0.3-0.2,0.6
					c-0.1,0.3,0.1,0.4,0.3,0.8c0.2,0.4-0.1,0.6-0.2,1c-0.1,0.4,0.1,0.7,0.4,1.2c0,0,0-0.5,0-0.8c0-0.4,0-0.2,0.1-0.7
					C26,40.9,26,40.7,25.8,40.5z"/>
				<path class="st23" d="M27,51.7c0.5,0,0-0.6-0.3-1.3c-0.3-0.6-0.1-0.5-0.2-0.9c-0.1-0.4,0-0.5,0.3-1c0.3-0.5,0.3-1.1,0.4-1.7
					c0.1-0.7-0.4,0.3-0.6,0.9c-0.3,0.6-0.4,0.8-0.4,0.8s0,1.7,0,2.3c0,0.6-0.3,0.8-0.2,1.7C26,53.4,26,53.5,26,54
					c0,0.5-0.1,1-0.2,1.3c-0.1,0.3,0.1,1.1,0.1,1.1s0-0.1,0-0.5c0-0.3,0.2-0.6,0.1-1c-0.1-0.4,0-0.4,0.2-0.8c0.2-0.4,0.1-0.3,0-0.8
					c-0.2-0.5,0.1-1.1,0.1-1.5C26.4,51.5,26.5,51.6,27,51.7z"/>
				<path class="st24" d="M14.2,58.9c0-0.5,0.3-2.8,0.4-3.5c0-0.7,0.1-3.2,0.2-4.6c0.1-1.4,0.3-5.5,0.3-6.8c0.1-1.3,0.2-6.2,0.2-7.3
					c0-1.2,0.4-6.6,0.4-6.6s-0.5,0.3-0.5,0.6c0,0.3-0.2,1.1-0.3,1.8c-0.1,0.7-0.2,1-0.1,2.1c0,1.1,0.2,1.7,0,2.7
					c-0.1,1.1-0.4,1-0.4,1.8c-0.1,0.8,0.2,1.2,0.3,2.1c0,0.9-0.3,5.3-0.4,6.5c-0.1,1.1-0.4,4.7-0.5,6.1c0,1.4-0.2,2.2-0.1,3.2
					c0,1-0.1,1.7-0.1,2.1c0,0.1,0,0.1,0,0.2h0.7C14.2,59.2,14.2,59.1,14.2,58.9z"/>
				<path class="st24" d="M9.6,22.6c0,0.1,0,0.2,0,0.3C9.6,22.7,9.6,22.5,9.6,22.6z"/>
				<path class="st24" d="M9.4,25.6c-0.1,0.2-0.1,0.2-0.1,0.2s0.8-0.1,1,0c0,0,0-1.2-0.1-1.5c-0.1-0.3-0.2-0.7-0.4-1
					c-0.1-0.1-0.1-0.2-0.2-0.3c0,0.3,0,0.8,0,1.2C9.6,24.7,9.5,25.3,9.4,25.6z"/>
				<path class="st24" d="M19.5,21C19.5,21,19.5,21,19.5,21L19.5,21z"/>
				<path class="st24" d="M18.8,25.4c-0.1,0.3-0.3,0.7-0.3,0.7s0.8,0.1,1.3,0.3c0.5,0.2,0.9,0.5,1.2,0.7c0.3,0.2,0.6,0.6,0.7,0.7
					c0.2,0.1-0.1-0.5-0.4-1.1c-0.4-0.5-0.3-0.7-0.5-1.4c-0.2-0.7-0.1-1-0.3-1.8c-0.2-0.7-0.9-2.4-1-2.6c0,0,0,0,0,0
					c0.1,0.1,0.6,1.6,0.1,2.4C19.2,24.4,19,25.1,18.8,25.4z"/>
				<path class="st24" d="M2,28.3c0,0.7-0.1,0.8-0.2,2.1C1.7,31.7,2,32,2.1,32.9c0,0,0.2-0.4,0.2-0.8c0-0.4,0.3-1.5,0.3-2.1
					c0-0.7-0.1-1.1-0.2-1.8C2.2,27.4,2,27.7,2,28.3z"/>
				<path class="st24" d="M7.3,38.6c-0.2-0.9-0.8-0.3-1.8,0.2c-1,0.5,0.2-1.5,0.5-2.4c0.3-0.9,0-0.8-0.6-1.2c-0.5-0.3-0.4-1-0.7-1.9
					c-0.3-0.9,0.2-1.5,0.1-2.3c0-0.8-0.2-0.7-0.7-0.7s-0.2-1-0.1-1.7c0.1-0.7,0.5-1.6,0.7-2.7c0.3-1.1-0.8,0.9-1.4,1.9
					c-0.6,1.1-0.3,0.8-0.3,1.5c0,0,0.2,0.5,0.3,1.2c0.1,0.7-0.3,2.2-0.3,2.7c-0.1,0.5-0.2,0.8,0,1.3C3.2,35,3.4,35,3.4,36
					c0,1.1,0.1,0.8,0.4,1.3c0.3,0.4,0.5,1.2,1,1.5C5.3,39.2,5,39.4,5,40c-0.1,0.7,0,0.6,0.5,0.4c0.5-0.2,0.6-0.3,0.7,0.3
					c0,0.6-0.7,1.3-1.8,2c-1.1,0.7-0.5,0.4-0.3,0.9c0.2,0.5,0.8,1.5,0.9,2.5c0.1,1-0.3,2.4-0.8,3.3c-0.5,0.9-0.5,0.9-0.4,1.6
					c0.1,0.7,0,1-0.5,2.1c-0.5,1.1-0.5,1.1-0.3,2.2c0.3,1.1,1,1.6,1.9,2c0.9,0.4,0.9,0.4,1.7,1c0.9,0.6,0.2,0-0.1-0.4
					c-0.3-0.3-0.6-0.6-0.9-1.1c-0.3-0.5-0.1-1,0.1-2.2c0.2-1.2,0.7-1,1.1-2.2c0.4-1.2,0.2-1.8,0-2.9c-0.1-1.1-0.5-2.2-0.5-2.4
					c0-0.2,0.1-2.6,0.7-4.4C7.8,41,7.5,39.5,7.3,38.6z"/>
				<path class="st24" d="M2.1,44.2c-0.6-0.4-0.9-0.1-0.8-0.8c0.1-0.7-0.2-1.2,0.1-1.2c0.4-0.1,0.4-0.3-0.1-0.8
					C1,40.9,0,39.1-0.3,38.3c-0.3-0.9-0.9-2.9-0.9-3.7c0-0.5-0.2-0.8-0.2-0.8s-0.2,1.5,0.2,3.1c0.4,1.6,0.8,2.5,1.3,3.4
					c0.5,0.9,1.1,1.8,0.5,1.5c-0.5-0.3-1.2-0.6-0.7,0.1c0.5,0.7,0.5,0.8,0.7,1.3c0.2,0.5,0.3,0.3-0.4,0.5c-0.6,0.2-0.5,0.5-1.3,0.3
					c-0.4-0.1-0.8-0.2-1.1-0.2v0.4c0.4,0.6-0.1,1.3,1.3,1.4c1.4,0.1,1.9-0.1,2.4-0.4C2.1,44.9,2.8,44.6,2.1,44.2z"/>
				<path class="st24" d="M1.5,48.6C1.2,48.3,0.4,48,0,47.8c-0.4-0.3-1.1-0.8-1.3-1.2c-0.3-0.4-0.4-0.7-0.7-1.3v1.6
					c0.2,0.3,0.4,0.6,0.6,0.7c0.2,0.2,0.7,0.4,1.2,0.7c0.6,0.3,1.5,0.6,1.7,0.8C1.6,49.2,1.7,49,1.5,48.6z"/>
				<path class="st24" d="M0.5,52.6c-0.3-0.3-0.6-0.4-0.7-0.7c0-0.3,0.4-0.4,0.8-0.8C1.1,50.7,0.1,51-0.6,51
					c-0.6-0.1-0.8-0.6-1.4-0.7v1.2c0.1,0.1,0.3,0.2,0.4,0.2c0.8,0.2,0.2,0.3-0.4,0.5v0.7c0.2-0.1,0.5-0.2,1.1-0.3
					c1-0.1,0.8,0.2,1.6,0.5C1.6,53.4,0.8,52.9,0.5,52.6z"/>
				<path class="st24" d="M23.6,43.1c-0.5,1-0.6,1.5-1.5,2.1c-0.8,0.7-1.1,1-1.7,1.1c-0.6,0.1-1.6,0.4-0.6,1
					c0.8,0.4,1.3,0.6,2.3,0.4c1-0.2,1.3-0.1,1.5-1.1c0.2-0.9,0.4-2.1,0.5-3C24.2,42.8,24.2,42.1,23.6,43.1z"/>
				<path class="st24" d="M26.1,27.4c-0.3-1.1-0.7,1.1-1.5,2.2c-0.8,1.1-1,1.5-1.1,2.5c-0.1,1,0.1,1.4-0.1,2.4
					c-0.3,0.9-1,1.8-0.4,1.6c0.7-0.1,1.3-0.5,1.8-0.5c0.5,0,1.1,1.6,0.9,0.1c-0.2-1.5-0.2-3.7-0.1-5.1
					C25.8,29.2,26.2,27.6,26.1,27.4z"/>
				<path class="st24" d="M29.4,35.6c-0.4,1.9-0.5,4.2-1,5.6c-0.5,1.4-1.6,3.3-0.8,2.3c0.9-1,1.2-1.5,1.7-2.7
					c0.5-1.2,0.6-1.9,0.7-3.4c0.1-1.4,0.1-4.3,0-4.9c0-0.7,0-1.4,0-1.4C29.8,32.7,29.7,33.7,29.4,35.6z"/>
				<path class="st24" d="M27.9,32.8c-0.1,1.6,0.5-1.1,0.8-1.9c0.3-0.8,0.5-1,0.8-1.4c0.3-0.4-0.3-1.1-0.8-2c0,0-0.1,0.5,0.1,0.9
					c0.2,0.4,0.1,0.4-0.1,1.4C28.4,30.8,28.1,31.2,27.9,32.8z"/>
				<path class="st24" d="M31.2,37.2c0-1.3-0.3,0.2-0.4,0.8c0,0.6-0.5,2.5-0.8,3.2c-0.3,0.8-1.1,1.8-1.7,2.7c-0.5,0.9,0,0.6,0,1.1
					c0,0.5-0.1,2-0.1,3c0,1-0.2,1.5-0.1,2c0.1,0.4,0.5-0.2,2-0.5c1.5-0.2-0.4-0.3-1-0.5c-0.6-0.2-0.3-0.8-0.1-1.5
					c0.2-0.6,0.3-1,0-1.5c-0.3-0.6,0.1-0.3,1,0.2c0.9,0.5,1.3,0.5,1.1,0.1c-0.2-0.5-1-1.2-1.4-1.5c-0.4-0.3,0.1-1.2,0.3-2.1
					C30.2,41.7,31.2,38.6,31.2,37.2z"/>
				<path class="st24" d="M32.1,52c0.5-0.7,0.7-1.1,0.6-1.9c-0.1-0.8-0.3-1.4-0.3-2c0-0.6,0.4-0.6,0.1-1.1c-0.3-0.5-0.5-0.1-0.5,0
					c-0.2,0.7-0.2,1-0.1,2c0.1,1,0.2,1.1-0.2,2.1C31.4,52,31.6,52.7,32.1,52z"/>
				<path class="st24" d="M29.3,58.2c-0.4-0.7,0.3-0.5,0.8-1.3c0.5-0.8,0.5-0.5,1.2-1.4c0.7-0.8,0-0.6-0.6-0.3
					c-0.6,0.3-0.7,0.3-2,0.7c0,0,0.8,0.2,0.5,0.8c-0.3,0.6-0.5,0.8-1.6,1.3c-1,0.5,0.2,0.6,1,1c0.3,0.2,0.4,0.3,0.6,0.4h0.9
					C29.8,59,29.7,58.8,29.3,58.2z"/>
				<path class="st23" d="M6,58.6c-0.1-0.6-0.3-0.7-0.6-0.5c-0.3,0.2-0.4-0.2-0.9-0.4C4,57.4,3,57.2,2.9,56.7
					c-0.1-0.5,0.7,0,0.3-0.8c-0.1-0.3-0.3-0.9-0.5-1.5c-0.2-0.7-0.2-1.2,0.6-1.8c0.2-0.1,0.4-0.5-0.1-1.1c-0.4-0.6,0.6-2.5,1-3.2
					c0.3-0.7,0-2.9-0.4-4.1c-0.4-1.2-0.1-1.1,0.5-1.6c0.5-0.4,1.5-1,0.8-1.3c-0.5-0.2-1.5,0.1-1.6-1.9c0-0.7-0.5-0.5-0.5-1.9
					c0-1.2-0.4-2.7-0.2-1.8c0.2,0.9,0.1,2.1,0.2,2.5c0.1,0.4,0.3,1.9,0.3,2.7c0,0.8,0.1,1.7,0.1,2.4c0,0.6,0.1,1.4,0,2.1
					c0,0.7,0,1.6,0,2.1c0.1,0.5-0.1,1.1-0.3,1.9c-0.2,0.7-0.3,1.5-0.4,2c-0.1,0.5-0.2,1.5-0.4,2c-0.1,0.5-0.1,1.9-0.1,2.4
					c0,0.5,0,1.4,0.1,1.8C2.6,57.8,3.4,58,3.4,58s0.7,0.4,1.1,0.6c0.3,0.1,1.3,0.6,1.8,0.8h0.1C6.2,59.3,6,59.1,6,58.6z"/>
				<path class="st23" d="M11.9,58.9c0-1.6,0.1-3.2,0.1-4.1c0.1-0.9,0.3-5.6,0.3-6.5c0-0.9,0.1-2.8,0.1-3.9c0-1.1,0.2-3,0.3-4.1
					c0-1.2,0.2-4.2,0.3-5c0.1-0.8,0.1-1.8,0.1-2.4c0.1-0.5,0.3-1.6,0.5-2c0.2-0.4,0.4-0.6,0.4-0.6s-0.7,0.9-1,1.8
					c-0.3,0.9-0.1,3.5-0.2,4.6c0,1.1-0.4,6.2-0.4,6.9c0,0.8-0.2,3.4-0.2,4.4c0,1-0.1,3.3-0.2,4.1c0,0.8-0.3,4.7-0.3,5.4
					c0,0.5,0,1.4,0,2H12C11.9,59.2,11.9,59.1,11.9,58.9z"/>
				<path class="st23" d="M14.1,36.2c0,0.3,0,0.6,0.1,0.6c0,0,0.1-0.3,0.1-0.6c0-0.3,0-0.6-0.1-0.6C14.1,35.6,14.1,35.9,14.1,36.2z"
					/>
				<path class="st23" d="M13.8,42.5c0,0.4,0,0.6,0,0.6c0,0,0.1-0.3,0.1-0.6c0-0.4,0-0.6,0-0.6C13.9,41.8,13.8,42.1,13.8,42.5z"/>
				<path class="st23" d="M13.5,48.9c0,0.3,0,0.6,0,0.6c0,0,0.1-0.3,0.1-0.6c0-0.3,0-0.6,0-0.6C13.6,48.3,13.5,48.6,13.5,48.9z"/>
				<path class="st23" d="M13.3,55.2c0,0.4,0,0.6,0,0.6C13.3,55.9,13.4,55.6,13.3,55.2c0.1-0.4,0.1-0.6,0.1-0.6
					C13.3,54.6,13.3,54.9,13.3,55.2z"/>
				<g>
					<path class="st25" d="M13.8,36.2c0,0.2,0.2,0.4,0.4,0.4s0.4-0.2,0.4-0.4c0-0.2-0.2-0.4-0.4-0.4S13.8,36,13.8,36.2z"/>
					<path class="st26" d="M13.9,36.2c0,0.2,0.1,0.3,0.3,0.3c0.2,0,0.3-0.1,0.3-0.3c0-0.2-0.1-0.3-0.3-0.3
						C14,35.9,13.9,36,13.9,36.2z"/>
					<path class="st23" d="M14,36.1C14,36.2,14.1,36.2,14,36.1C14.1,36.2,14.1,36.2,14,36.1C14.1,36.1,14.1,36.1,14,36.1
						C14.1,36.1,14,36.1,14,36.1z"/>
					<path class="st23" d="M14.2,36.1C14.2,36.2,14.2,36.2,14.2,36.1C14.3,36.2,14.3,36.2,14.2,36.1C14.3,36.1,14.3,36.1,14.2,36.1
						C14.2,36.1,14.2,36.1,14.2,36.1z"/>
					<path class="st23" d="M14,36.3C14,36.3,14.1,36.3,14,36.3C14.1,36.3,14.1,36.3,14,36.3C14.1,36.2,14.1,36.2,14,36.3
						C14.1,36.2,14,36.2,14,36.3z"/>
					<path class="st23" d="M14.2,36.3C14.2,36.3,14.2,36.3,14.2,36.3C14.3,36.3,14.3,36.3,14.2,36.3C14.3,36.2,14.3,36.2,14.2,36.3
						C14.2,36.2,14.2,36.2,14.2,36.3z"/>
				</g>
				<path class="st23" d="M14.6,30.3c-0.1,0.3-0.1,0.6-0.1,0.6c0,0,0.1-0.3,0.2-0.6c0.1-0.3,0.1-0.6,0.1-0.6
					C14.8,29.7,14.7,30,14.6,30.3z"/>
				<g>
					<path class="st25" d="M14.3,30.2c-0.1,0.2,0.1,0.4,0.3,0.5c0.2,0.1,0.4-0.1,0.5-0.3c0.1-0.2-0.1-0.4-0.3-0.5
						C14.5,29.9,14.3,30,14.3,30.2z"/>
					<path class="st26" d="M14.3,30.2c0,0.2,0.1,0.3,0.2,0.4c0.2,0,0.3-0.1,0.4-0.2c0-0.2-0.1-0.3-0.2-0.4
						C14.6,30,14.4,30.1,14.3,30.2z"/>
					<path class="st23" d="M14.7,30.3C14.7,30.3,14.7,30.3,14.7,30.3C14.7,30.3,14.8,30.3,14.7,30.3C14.8,30.3,14.8,30.2,14.7,30.3
						C14.7,30.2,14.7,30.2,14.7,30.3z"/>
					<path class="st23" d="M14.5,30.4C14.5,30.4,14.5,30.4,14.5,30.4C14.6,30.4,14.6,30.4,14.5,30.4C14.6,30.4,14.6,30.3,14.5,30.4
						C14.5,30.3,14.5,30.3,14.5,30.4z"/>
					<path class="st23" d="M14.7,30.4C14.6,30.4,14.7,30.5,14.7,30.4C14.7,30.5,14.7,30.4,14.7,30.4C14.7,30.4,14.7,30.4,14.7,30.4
						C14.7,30.4,14.7,30.4,14.7,30.4z"/>
				</g>
				<g>
					<path class="st25" d="M13.6,42.2c-0.1,0.2-0.1,0.4,0,0.6c0.2,0.1,0.4,0.1,0.6,0c0.1-0.2,0.1-0.4,0-0.6C14,42,13.7,42,13.6,42.2
						z"/>
					<path class="st26" d="M13.6,42.3c-0.1,0.1-0.1,0.3,0,0.4c0.1,0.1,0.3,0.1,0.4,0c0.1-0.1,0.1-0.3,0-0.4
						C13.9,42.1,13.7,42.1,13.6,42.3z"/>
					<path class="st23" d="M13.8,42.3C13.8,42.3,13.8,42.4,13.8,42.3C13.8,42.4,13.9,42.4,13.8,42.3C13.9,42.4,13.9,42.3,13.8,42.3
						C13.9,42.3,13.8,42.3,13.8,42.3z"/>
					<path class="st23" d="M13.9,42.4C13.9,42.4,13.9,42.5,13.9,42.4C14,42.5,14,42.5,13.9,42.4C14,42.5,14,42.4,13.9,42.4
						C14,42.4,14,42.4,13.9,42.4z"/>
					<path class="st23" d="M13.7,42.4C13.7,42.5,13.7,42.5,13.7,42.4C13.8,42.5,13.8,42.5,13.7,42.4C13.8,42.5,13.8,42.4,13.7,42.4
						C13.8,42.4,13.7,42.4,13.7,42.4z"/>
					<path class="st23" d="M13.8,42.5C13.8,42.6,13.8,42.6,13.8,42.5C13.9,42.6,13.9,42.6,13.8,42.5C13.9,42.6,13.9,42.5,13.8,42.5
						C13.9,42.5,13.9,42.5,13.8,42.5z"/>
				</g>
				<g>
					<path class="st25" d="M13.2,48.9c0,0.2,0.1,0.4,0.3,0.5c0.2,0,0.4-0.1,0.5-0.3c0-0.2-0.1-0.4-0.3-0.5
						C13.5,48.5,13.3,48.7,13.2,48.9z"/>
					<path class="st26" d="M13.3,48.9c0,0.2,0.1,0.3,0.2,0.4c0.2,0,0.3-0.1,0.4-0.2c0-0.2-0.1-0.3-0.2-0.4
						C13.5,48.6,13.3,48.8,13.3,48.9z"/>
					<path class="st23" d="M13.5,48.9C13.5,48.9,13.5,48.9,13.5,48.9C13.6,48.9,13.6,48.9,13.5,48.9C13.6,48.9,13.6,48.9,13.5,48.9
						C13.5,48.9,13.5,48.9,13.5,48.9z"/>
					<path class="st23" d="M13.7,48.9C13.7,48.9,13.7,49,13.7,48.9C13.7,49,13.7,49,13.7,48.9C13.7,48.9,13.7,48.9,13.7,48.9
						C13.7,48.9,13.7,48.9,13.7,48.9z"/>
					<path class="st23" d="M13.5,49C13.5,49.1,13.5,49.1,13.5,49C13.5,49.1,13.6,49.1,13.5,49C13.6,49,13.5,49,13.5,49
						C13.5,49,13.5,49,13.5,49z"/>
					<path class="st23" d="M13.6,49.1C13.6,49.1,13.6,49.1,13.6,49.1C13.7,49.1,13.7,49.1,13.6,49.1C13.7,49.1,13.7,49,13.6,49.1
						C13.6,49,13.6,49,13.6,49.1z"/>
				</g>
				<g>
					<path class="st25" d="M13.1,54.9c-0.2,0.1-0.3,0.3-0.2,0.5c0.1,0.2,0.3,0.3,0.5,0.2c0.2-0.1,0.3-0.3,0.2-0.5
						C13.6,54.9,13.3,54.8,13.1,54.9z"/>
					<path class="st26" d="M13.2,55C13,55,13,55.2,13,55.4c0.1,0.2,0.3,0.2,0.4,0.1c0.2-0.1,0.2-0.3,0.1-0.4
						C13.5,55,13.3,54.9,13.2,55z"/>
					<path class="st23" d="M13.2,55.2C13.2,55.2,13.2,55.2,13.2,55.2C13.2,55.3,13.2,55.3,13.2,55.2C13.3,55.2,13.3,55.2,13.2,55.2
						C13.2,55.2,13.2,55.2,13.2,55.2z"/>
					<path class="st23" d="M13.3,55.1C13.3,55.1,13.3,55.2,13.3,55.1C13.3,55.2,13.4,55.2,13.3,55.1C13.4,55.2,13.4,55.2,13.3,55.1
						C13.4,55.1,13.4,55.1,13.3,55.1z"/>
					<path class="st23" d="M13.3,55.3C13.2,55.3,13.2,55.3,13.3,55.3C13.2,55.4,13.3,55.4,13.3,55.3C13.3,55.4,13.3,55.4,13.3,55.3
						C13.3,55.3,13.3,55.3,13.3,55.3z"/>
					<path class="st23" d="M13.4,55.2C13.4,55.3,13.4,55.3,13.4,55.2C13.4,55.3,13.4,55.3,13.4,55.2C13.5,55.3,13.5,55.3,13.4,55.2
						C13.4,55.2,13.4,55.2,13.4,55.2z"/>
				</g>
				<path class="st27" d="M14.5,30c-0.3,0.1-0.2,0.4-0.2,0.4c0,0,0.1-0.1,0.2-0.1c0,0,0.2-0.1,0.3-0.1c0.1,0,0.1,0,0.1,0
					S14.8,29.9,14.5,30z"/>
				<path class="st28" d="M14.5,30.1c0.1,0,0.3-0.1,0.4,0.1c0,0,0.1,0,0.1,0c0,0-0.1-0.2-0.3-0.2c-0.2,0-0.4,0.1-0.5,0.3
					c0,0,0,0.1,0,0.2c0,0,0.1-0.1,0.1-0.1C14.4,30.4,14.3,30.2,14.5,30.1z"/>
				<path class="st29" d="M14.5,30.2C14.5,30.2,14.6,30.3,14.5,30.2C14.6,30.3,14.6,30.3,14.5,30.2C14.6,30.2,14.6,30.2,14.5,30.2
					C14.6,30.2,14.6,30.2,14.5,30.2z"/>
				<path class="st30" d="M15.2,11.8c0,0.4,0.2,1,0.5,1.2c0.4,0.2,1.3,0.1,1.9,0.1c0.6,0,1-0.1,1.1-0.2c0.1-0.1,0.1-0.3,0.1-0.4
					c0,0,0.4,0,0.6,0c0.1,0,0.1-0.1,0.1-0.1h0c0,0-0.6-0.1-0.7-0.1c0,0,0,0.1-0.1,0.2c0,0.1-0.1,0.3-0.8,0.4c-0.7,0.1-2,0.1-2.3-0.1
					C15.6,12.8,15.3,12.2,15.2,11.8c0.1-0.3,0.1-0.4,0.1-0.4S15.2,11.5,15.2,11.8z"/>
				<path class="st30" d="M15.3,12c0,0,0-0.1,0-0.1c-0.7-0.1-1.2,0.1-1.2,0.1s0,0,0,0.1C14.4,11.9,15.3,12,15.3,12z"/>
				<path class="st30" d="M13.7,12.9c-0.2,0.2-0.6,0.1-1.2,0.2c-0.6,0-1.7,0-1.8-0.1c-0.1-0.1-0.2-0.4-0.2-0.5c0-0.1,0-0.2-0.1-0.2
					c-0.1,0-0.5,0-0.5,0.1c0,0,0,0.2,0,0.2s0.2,0,0.4,0c0.1,0,0.2,0.3,0.2,0.5c0.1,0.2,0.2,0.2,0.5,0.2c0.3,0,2,0,2.3,0
					c0.4,0,0.5-0.2,0.6-0.5c0.1-0.3,0.2-0.7,0.2-0.7s-0.1,0-0.1,0.1C14,12.2,13.9,12.7,13.7,12.9z"/>
				<path class="st31" d="M10.9,11.4c-0.4,0.1-0.4,0.1-0.5,0.3c-0.1,0.1,0,0.9,0.1,1.1c0.1,0.2,0.1,0.4,0.3,0.4
					c0.2,0.1,2.2,0.1,2.7,0c0.5-0.1,0.7-1.3,0.7-1.4c0-0.1,0-0.3-0.1-0.4C13.2,11.2,11.2,11.3,10.9,11.4z"/>
				<path class="st32" d="M18.7,11.1c-1.5-0.1-2.8,0.1-3.2,0.2c-0.3,0.1-0.3,0.4-0.2,0.9c0.1,0.4,0.3,0.7,0.4,0.7
					c0.1,0.1,0.3,0.1,0.8,0.1c0.6,0,1.8,0,2.1-0.2c0.4-0.1,0.4-1.2,0.3-1.4C19,11.2,18.9,11.2,18.7,11.1z"/>
				<path class="st33" d="M18.7,11.2c-0.1,0-2.2-0.1-2.9,0.2c-0.2,0.1-0.5,0.2-0.4,0.3c0,0.2,0.1,0.7,0.2,0.9
					c0.1,0.1,0.1,0.3,0.5,0.4c0.4,0.1,1.1,0.1,1.4,0.1c0.3,0,1-0.1,1.1-0.1c0.1,0,0.6-0.3,0.5-0.9C18.9,11.5,18.8,11.2,18.7,11.2z"
					/>
				<path class="st34" d="M12,10.5c-0.6,0.2-0.9,0.7-0.9,0.8c-0.1,0.1,0.4-0.3,0.7-0.5c0.3-0.1,0.7-0.1,1.1-0.1
					c0.3,0.1,0.7,0.3,0.8,0.2c0.1,0,0-0.2-0.1-0.4C13.4,10.5,12.5,10.3,12,10.5z"/>
				<path class="st35" d="M18.4,11.1c-0.1,0-0.4,0-0.4,0s0.3,0.2,0.3,0.3c0.1,0.1,0.3,0.4,0.3,0.4c0.1,0,0.1-0.2,0-0.4
					C18.5,11.3,18.5,11.2,18.4,11.1z"/>
				<path class="st34" d="M17.7,10.5c-0.6-0.2-1.4-0.1-1.7,0.1c-0.2,0.1-0.1,0.3-0.1,0.4c0.1,0.1,0.3-0.1,0.4-0.1
					c0.2-0.1,0.4-0.2,0.8-0.1c0.4,0,0.7,0.1,0.9,0.2c0.2,0.1,0.6,0.3,0.5,0.2C18.5,11,18.2,10.7,17.7,10.5z"/>
				<path class="st36" d="M14.1,11.7c0,0.1,0,0.2,0,0.2c0,0,0.6-0.2,1.2,0c0-0.1,0-0.2,0-0.2S14.6,11.5,14.1,11.7z"/>
				<path class="st36" d="M19.9,11.8c-0.2-0.1-0.5-0.3-0.7-0.3c-0.2,0-0.2,0-0.2,0l0,0.2c0,0,0.3,0,0.4,0.1c0.2,0.1,0.6,0.4,0.7,0.5
					c0.1,0.1,0.1,0.3,0.2,0.4c0.1-0.1,0-0.3,0-0.5C20.3,12,20.1,11.9,19.9,11.8z"/>
				<path class="st36" d="M9.8,11.8c-0.1,0.1-0.9,0.6-1,1c0.1,0,0.3,0,0.3,0.1c0,0,0-0.2,0.3-0.4c0.3-0.3,0.4-0.4,0.9-0.3l0-0.2
					C10.4,11.8,10,11.7,9.8,11.8z"/>
				<path class="st37" d="M14.1,11.9c0,0,0-0.1,0.1-0.2c0.1,0,0.5-0.1,0.6-0.1c0.2,0,0.3,0,0.3,0s-0.7-0.1-1,0.1
					C14.1,11.8,14.1,11.9,14.1,11.9z"/>
				<path class="st37" d="M15.1,11.8c0.1,0,0.2,0.1,0.2,0.1s0,0,0-0.2C15.3,11.8,15.1,11.8,15.1,11.8z"/>
				<path class="st37" d="M10.4,11.8c0,0-0.2,0-0.5,0c-0.2,0-0.6,0.4-0.8,0.5c-0.1,0.1-0.3,0.3-0.3,0.4c0.1,0,0.3,0,0.3,0
					s0-0.2,0-0.2c0-0.1,0.1-0.2,0.2-0.3c0-0.1,0.2-0.2,0.3-0.3c0.1-0.1,0.2-0.1,0.3-0.1c0.1,0,0.1,0,0.1,0c0,0,0.2,0,0.3,0
					c0.1,0,0.1,0.1,0.1,0.1C10.4,11.9,10.4,11.8,10.4,11.8z"/>
				<path class="st37" d="M10.4,12C10.4,12,10.4,12,10.4,12C10.4,12,10.4,12,10.4,12z"/>
				<path class="st37" d="M20,12c-0.1,0-0.3-0.1-0.2-0.1c0.1,0,0.3,0.3,0.4,0.3c0.1,0.1,0.1,0.3,0.1,0.3s0,0,0-0.1
					c0-0.1,0-0.3-0.1-0.4c0-0.1-0.6-0.4-0.8-0.5c-0.2-0.1-0.5-0.1-0.5-0.1l0,0.2c0-0.1,0-0.1,0-0.1s0.2,0,0.2,0c0.1,0,0,0.1,0.1,0.1
					c0.1,0,0-0.1,0.1-0.1C19.5,11.6,20,11.9,20,12C20.2,12,20.1,12.1,20,12z"/>
				<path class="st38" d="M14.8,11.7c0.2,0,0.3,0,0.3,0s-0.3-0.1-0.5,0C14.6,11.7,14.6,11.7,14.8,11.7z"/>
				<path class="st38" d="M10,11.9c0,0,0-0.1-0.1-0.1c0-0.1-0.1,0-0.1,0.1c0,0-0.1,0-0.1,0.1c0,0.1,0.3,0,0.4,0c0.1,0,0,0,0,0
					C10.1,11.9,10,12,10,11.9z"/>
				<path class="st38" d="M19.5,11.7C19.5,11.7,19.5,11.8,19.5,11.7C19.6,11.8,19.6,11.7,19.5,11.7C19.5,11.7,19.5,11.7,19.5,11.7z"
					/>
				<path class="st38" d="M19.1,11.6c0,0,0.1,0.1,0.2,0.1c0,0,0.1,0,0,0C19.2,11.6,19.1,11.6,19.1,11.6z"/>
				<path class="st35" d="M12.8,11.4c-0.5-0.1-0.9,0.2-1.1,0.3c-0.2,0.1-0.6,0.5-0.9,0.7c-0.3,0.2,0,0.1,0.6,0.1
					c0.6,0,1.7-0.1,1.8,0c0.1,0,0.1,0.3,0.1,0.4c0,0.1,0.1,0.2,0.1,0.2c0.1,0,0.3-0.2,0.4-0.3c0.1-0.1,0.2-0.7,0.2-0.9
					c0-0.2,0-0.4-0.1-0.5c-0.1-0.1-0.7-0.1-0.7-0.1c0,0,0.1,0.1,0.1,0.1C13.4,11.5,13.3,11.5,12.8,11.4z"/>
				<path class="st39" d="M12.7,11.6c-0.6,0-0.8,0.3-1,0.4c-0.1,0.1-0.1,0.1-0.1,0.1s0.6,0,0.9,0c0.3,0,0.6,0,0.9,0
					c0.3,0,0.4,0,0.4,0S13.3,11.6,12.7,11.6z"/>
				<path class="st40" d="M12.3,11.7c0,0-0.1,0.3,0.1,0.5c0.2,0,0.5,0,0.6,0c0,0,0.2-0.2,0.1-0.5C12.9,11.6,12.6,11.6,12.3,11.7z"/>
				<path class="st41" d="M11.6,12.2c0.2,0,0.5,0,0.5,0s-0.3-0.1-0.1-0.4C11.9,11.9,11.7,12.1,11.6,12.2z"/>
				<path class="st41" d="M13.3,12.2c0.1,0,0.5,0,0.5,0s-0.2-0.2-0.5-0.3C13.6,12,13.3,12.2,13.3,12.2z"/>
				<path class="st42" d="M12.5,11.9c0,0.1,0.1,0.2,0.2,0.2c0.1,0,0.2-0.1,0.2-0.2c0-0.1-0.1-0.2-0.2-0.2
					C12.6,11.6,12.5,11.7,12.5,11.9z"/>
				<path class="st39" d="M12.7,11.8C12.7,11.8,12.7,11.9,12.7,11.8c0.1,0.1,0.2,0,0.2,0C12.9,11.7,12.8,11.7,12.7,11.8
					C12.7,11.7,12.7,11.7,12.7,11.8z"/>
				<path class="st43" d="M12.3,11.9c0,0.1,0,0.2,0.1,0.2c0.1,0,0.2,0,0.1,0C12.5,12,12.4,11.9,12.3,11.9
					C12.4,11.8,12.4,11.9,12.3,11.9z"/>
				<path class="st43" d="M12.5,11.9c0,0,0.1,0.1,0.1,0.1C12.6,12,12.5,11.8,12.5,11.9z"/>
				<path class="st44" d="M13.5,13.1C13.5,13.1,13.4,13.1,13.5,13.1C13.4,13.1,13.5,13.1,13.5,13.1z"/>
				<path class="st44" d="M10.7,13.1c-0.2-0.1-0.2-0.5-0.2-0.5l0-0.1c0,0,0,0.1,0.1,0.3C10.6,13.1,10.8,13.1,10.7,13.1
					c0.6,0.1,2.3,0.1,2.7,0c-0.2,0-1.1,0-1.3,0C11.9,13.1,10.9,13.2,10.7,13.1z"/>
				<path class="st35" d="M11,11.4c0,0,0,0-0.1,0.2c-0.1,0.2,0.2,0.2,0.3,0.2c0.1-0.1,0.4-0.3,0.5-0.4c0.1-0.1-0.1,0,0,0
					C11.8,11.3,11,11.4,11,11.4z"/>
				<path class="st30" d="M10.6,11.7c0.2-0.1,0.5-0.2,1-0.2c0.5,0,2,0,2.2,0c0.2,0.1,0.3,0.1,0.3,0.3c0,0,0.1-0.4-0.3-0.4
					c-0.4,0-1.8-0.1-2.8,0c-0.4,0.1-0.5,0.2-0.5,0.4c0,0.2,0.1,0.4,0.1,0.4S10.4,11.8,10.6,11.7z"/>
				<path class="st36" d="M13.5,13.1c0.1-0.1,0.2-0.1,0.4-0.4c0.1-0.3,0.3-1,0.2-1.2c0-0.2-0.5-0.2-1-0.2c-0.6,0-2.1,0-2.4,0.1
					c-0.1,0-0.3,0.1-0.3,0.4c0,0.3,0.1,0.8,0.1,0.8s0-0.1,0-0.3c0-0.1-0.1-0.5,0-0.6c0.1-0.1,0.1-0.2,0.3-0.2c0.2,0,1.8-0.2,3-0.1
					c0.2,0,0.2,0.1,0.3,0.2c0,0.1,0,0.7-0.2,1C13.7,12.9,13.6,13.1,13.5,13.1z"/>
				<path class="st38" d="M14.1,11.6C14.1,11.6,14.1,11.6,14.1,11.6C14.1,11.6,14.1,11.6,14.1,11.6z"/>
				<path class="st38" d="M11.6,11.3c-0.2,0-0.3,0.1-0.2,0c0.1,0,2.1-0.1,2.4,0c0.2,0.1,0.2,0.1,0.2,0.2c0-0.1,0-0.2-0.3-0.2
					C13.4,11.3,11.8,11.3,11.6,11.3z"/>
				<path class="st37" d="M10.5,11.6C10.5,11.6,10.5,11.7,10.5,11.6c0,0,0.1,0,0.2-0.1c0.1-0.1,0.6-0.1,0.6-0.1s-0.1,0-0.4,0
					C10.6,11.4,10.5,11.5,10.5,11.6z"/>
				<path class="st45" d="M13.6,12.6c-0.2,0.2-0.2,0.1-0.3,0.2c-0.2,0.1-0.3,0.1-0.1,0.2c0,0,0.1,0.1,0.2,0c0.1,0,0.3-0.2,0.4-0.4
					c0.1-0.2,0.2-0.6,0.1-0.5C13.9,12.4,13.8,12.5,13.6,12.6z"/>
				<path class="st46" d="M13.5,13c0.4-0.1,0.5-0.8,0.5-0.8c-0.1,0.3-0.5,0.5-0.5,0.6C13.4,12.8,13.5,13,13.5,13z"/>
				<path class="st47" d="M15.9,12.2c0.2,0.1,1.2,0.2,1.6,0.2c0.3,0,0.7,0,0.8,0c0.1,0,0.2,0,0.2,0c0,0-0.4-0.5-0.6-0.6
					c-0.2-0.2-0.9-0.6-1.6-0.4c-0.7,0.1-0.7,0.4-0.6,0.4c0.1,0,0.1,0.1,0.1,0.1C15.7,12,15.7,12.1,15.9,12.2z"/>
				<path class="st39" d="M15.8,12.1c0.1,0,0.7,0.1,1,0.1c0.3,0,0.8,0,1.1,0c-0.5-0.5-0.8-0.6-1.3-0.6
					C16.2,11.6,15.8,12.1,15.8,12.1z"/>
				<path class="st40" d="M16.4,11.6c0,0-0.2,0.3,0.1,0.5c0.2,0,0.6,0,0.6,0c0.1-0.1,0.2-0.2,0.1-0.4C17.2,11.7,16.9,11.5,16.4,11.6
					z"/>
				<path class="st41" d="M15.8,12.1c0.2,0,0.4,0,0.4,0s-0.3-0.1-0.1-0.3C16,11.9,15.9,12,15.8,12.1z"/>
				<path class="st41" d="M17.5,12.1c0.1,0,0.5,0,0.4,0c0,0-0.2-0.2-0.4-0.3C17.7,12,17.5,12.1,17.5,12.1z"/>
				<path class="st42" d="M16.6,11.8c0,0.1,0.1,0.2,0.2,0.2c0.1,0,0.2-0.1,0.2-0.2c0-0.1-0.1-0.2-0.2-0.2
					C16.7,11.6,16.6,11.7,16.6,11.8z"/>
				<path class="st39" d="M16.8,11.8C16.8,11.8,16.9,11.8,16.8,11.8c0.1,0.1,0.2,0,0.2,0C17,11.7,17,11.7,16.8,11.8
					C16.9,11.7,16.8,11.7,16.8,11.8z"/>
				<path class="st43" d="M16.6,11.9c0,0,0-0.1-0.1-0.1c0,0-0.1,0.1,0,0.2c0,0.1,0.2,0.1,0.2,0C16.8,12,16.6,12,16.6,11.9z"/>
				<path class="st43" d="M16.6,11.8c0,0,0.1,0.1,0.1,0.1C16.7,11.9,16.7,11.8,16.6,11.8z"/>
				<path class="st44" d="M19,12.2C19,12.3,19,12.3,19,12.2C19,12.2,19,12.2,19,12.2z"/>
				<path class="st44" d="M17.9,12.9c-0.3,0-1.6,0.1-1.6,0.1c0,0,1.9,0,2.4-0.1c0.3-0.1,0.3-0.4,0.3-0.6c0,0.1-0.1,0.5-0.3,0.5
					C18.6,12.9,18.2,12.9,17.9,12.9z"/>
				<path class="st30" d="M15.3,11.5C15.3,11.6,15.3,11.6,15.3,11.5C15.3,11.6,15.3,11.6,15.3,11.5z"/>
				<path class="st30" d="M18,11.2c-0.5,0-2.6,0-2.7,0.3c0,0,0.1-0.1,0.4-0.1c0.5-0.1,2.1-0.2,2.8-0.1c0.3,0.1,0.4,0.2,0.4,0.5
					c0,0.2,0,0.4,0,0.4c0,0,0-0.4,0-0.4c0-0.1,0-0.3-0.1-0.4C18.7,11.3,18.4,11.2,18,11.2z"/>
				<path class="st36" d="M19,12.2c0,0.1,0,0.2,0,0.2c0.1-0.3,0-0.7,0-0.8c0-0.2-0.1-0.3-0.2-0.3c-0.3-0.1-1.7-0.1-2.5,0
					c-0.8,0.1-0.9,0.1-1,0.3c-0.1,0.1,0,0.8,0.1,1.2c0.2,0.4,0.4,0.4,0.4,0.4c-0.4-0.2-0.5-0.8-0.5-0.9c0-0.1-0.1-0.4,0-0.5
					c0-0.2,1.1-0.3,1.6-0.4c0.4,0,1.6,0,1.8,0.1c0.2,0.1,0.2,0.4,0.2,0.6C19,12,19,12.1,19,12.2z"/>
				<path class="st38" d="M15.8,11.3c0.1,0,0.2,0,0.2,0C15.9,11.3,15.8,11.3,15.8,11.3z"/>
				<path class="st38" d="M17.4,11.1c-0.4,0-1,0.1-1.4,0.2c0.4-0.1,1.3-0.1,1.7-0.1c0.5,0,1.1,0.1,1.2,0.1c0.1,0,0.2,0.3,0.2,0.3
					s0-0.1-0.1-0.2C18.8,11,17.9,11.1,17.4,11.1z"/>
				<path class="st37" d="M19,12.2c0,0,0-0.2,0-0.4c0-0.1,0-0.3-0.1-0.4c0,0.2,0,0.4,0,0.5C19,12,19,12.2,19,12.2z"/>
				<path class="st48" d="M18.3,11.2c-0.3,0-0.5,0.1-0.4,0.1c0.1,0,0.2,0.1,0.5,0.1c0.5,0.1,0.4,0.7,0.5,0.5c0-0.1,0-0.4,0-0.5
					C18.8,11.2,18.7,11.2,18.3,11.2z"/>
				<path class="st46" d="M18,11.2l0.2,0.2c0.2,0,0.3,0.1,0.4,0.1c0-0.1-0.1-0.2-0.1-0.3C18.3,11.2,18,11.2,18,11.2z"/>
				<path class="st46" d="M18.6,11.4c0.1,0,0.2,0.1,0.2,0.1c0,0,0-0.1,0-0.1C18.8,11.4,18.7,11.4,18.6,11.4z"/>
				<path class="st46" d="M17.9,11.2C17.9,11.2,17.9,11.2,17.9,11.2c0,0,0.1,0,0.2,0.1c0,0,0,0,0,0C18,11.2,17.9,11.2,17.9,11.2z"/>
				<path class="st49" d="M11.7,12.1c0.1,0,0.1,0,0.1,0s0,0,0-0.1c0.1,0,0.1,0,0.1,0s0-0.1,0-0.1C11.9,12,11.6,12.1,11.7,12.1z"/>
				<path class="st49" d="M13.6,12.1c0-0.1-0.2-0.2-0.3-0.2c0,0,0.1,0.1,0.1,0.1s0,0,0.1,0c0,0,0,0.1,0,0.1S13.6,12.1,13.6,12.1z"/>
				<path class="st49" d="M15.9,12c0.1,0,0.2,0.1,0.2,0.1c0,0-0.1,0-0.1-0.1c0,0,0,0,0,0s0-0.1,0.1-0.2C16.1,11.9,15.8,12,15.9,12z"
					/>
				<path class="st49" d="M17.6,12.1c0,0,0.1,0,0.2-0.1c0-0.1-0.2-0.2-0.3-0.2c0,0,0.1,0.1,0.1,0.1C17.6,12,17.6,12,17.6,12.1
					C17.6,12.1,17.6,12.1,17.6,12.1z"/>
				<path class="st38" d="M11.9,11.9c0,0,0,0.1,0,0.1c0,0,0.3-0.1,0.4-0.1c0-0.1,0-0.1,0-0.2C12.2,11.8,12,11.9,11.9,11.9z"/>
				<path class="st38" d="M13.1,11.9c0.1,0,0.3,0.1,0.3,0.1c0-0.1-0.1-0.1-0.1-0.1s-0.1-0.1-0.3-0.1C13.1,11.8,13.1,11.8,13.1,11.9z
					"/>
				<path class="st40" d="M13.1,12.2c0.3,0,0.6,0,0.7-0.1c0,0-0.5-0.5-1.1-0.5c-0.6,0-1,0.3-1.1,0.4c-0.1,0.1-0.2,0.1-0.3,0.2
					c-0.1,0,0.3,0,0.5,0c0.2,0,0.5,0,0.5,0s-0.4,0-0.5,0c-0.1,0-0.2,0-0.1-0.1c0.1-0.1,0.3-0.3,0.8-0.3c0.2,0,0.4,0,0.6,0.1
					c0.3,0.1,0.4,0.2,0.4,0.3C13.6,12.1,13.3,12.2,13.1,12.2z"/>
				<path class="st38" d="M16.1,12c0,0,0.1-0.1,0.3-0.1c0,0,0-0.1,0-0.2c0,0-0.2,0.1-0.3,0.1C16.1,11.8,16.1,11.9,16.1,12z"/>
				<path class="st38" d="M17.5,12c0-0.1-0.1-0.1-0.1-0.1s-0.1,0-0.2-0.1c0,0,0,0.2,0,0.2C17.4,11.9,17.5,12,17.5,12z"/>
				<path class="st34" d="M17.3,12.1c0.3,0,0.8,0.1,0.8,0.1s0,0-0.3-0.3c-0.3-0.3-0.7-0.4-1.2-0.4c-0.4,0.1-0.8,0.5-0.8,0.5
					c0.2,0,0.4,0,0.7,0c-0.1,0-0.2,0-0.4,0C15.9,12,15.9,12,16,12c0-0.1,0.2-0.2,0.3-0.2c0.6-0.2,1.1,0.1,1.3,0.2
					C17.8,12.1,17.7,12.2,17.3,12.1z"/>
				<path class="st50" d="M15.9,16.3c-0.4-0.1-2.5,0.1-2.8,0.1c-0.3,0-0.6,0-0.9-0.1c0.1,0.1,0.2,0.4,0.7,0.7
					c0.4,0.3,2.2,0.5,2.5,0.5c0.2,0,0.3,0,1-0.2c0.6-0.3,1.2-0.9,1.2-0.9s-0.3,0.1-0.4,0.1C17,16.4,16.3,16.4,15.9,16.3z"/>
				<path class="st51" d="M13,16.5c0,0,0,0.3,0.2,0.4c0.1,0,0.8,0.3,1.6,0.3c0.8,0,1.5-0.1,1.7-0.2c0.2-0.3,0.2-0.5,0-0.5
					C16.3,16.3,13,16.5,13,16.5z"/>
				<path class="st0" d="M14.2,16.9c0,0.3,0,0.4,0.1,0.5c0.1,0,0.5,0,0.5,0s0-0.1,0-0.2c0-0.2,0-0.4-0.2-0.4
					C14.5,16.5,14.2,16.5,14.2,16.9z"/>
				<path class="st0" d="M14.8,17c0,0.3,0.1,0.3,0.1,0.3c0.1,0,0.4,0.1,0.5,0c0-0.2,0-0.5-0.1-0.6C15.2,16.5,14.8,16.6,14.8,17z"/>
				<path class="st0" d="M13.8,17.2c0,0,0.1,0.1,0.2,0.1c0.1,0,0.1,0,0.2-0.1c0-0.1,0-0.4-0.2-0.5C13.9,16.6,13.8,16.9,13.8,17.2z"
					/>
				<path class="st0" d="M15.4,17c0,0.3,0.2,0.3,0.2,0.3c0.3,0.1,0.3-0.6,0.1-0.6C15.5,16.6,15.4,16.8,15.4,17z"/>
				<path class="st0" d="M13.7,16.7c-0.2-0.1-0.2,0-0.3,0.2c0,0.2,0.1,0.3,0.1,0.3c0.1,0,0.4,0.1,0.3-0.1
					C13.8,16.8,13.9,16.8,13.7,16.7z"/>
				<path class="st0" d="M15.8,17c0,0.2,0.1,0.2,0.1,0.2c0.1,0,0.3,0.1,0.3-0.1c0.1-0.2,0-0.5-0.1-0.5C15.9,16.6,15.8,16.8,15.8,17z
					"/>
				<path class="st0" d="M13.1,16.9c0,0.2,0.1,0.3,0.1,0.3c0.1,0,0.3,0,0.3-0.1c0-0.1,0-0.2,0-0.3C13.3,16.5,13.1,16.7,13.1,16.9z"
					/>
				<path class="st0" d="M16.2,17c0,0.1,0.1,0.1,0.1,0.1c0.1,0,0.2,0.2,0.3,0c0-0.2,0-0.4-0.1-0.4C16.3,16.6,16.2,16.8,16.2,17z"/>
				<path class="st52" d="M12.9,16.5c-0.1,0-0.7-0.1-0.7-0.1c0,0,0.1,0.2,0.3,0.3c0.2,0.2,0.4,0.3,0.4,0.3
					C12.8,16.8,12.6,16.6,12.9,16.5z"/>
				<path class="st52" d="M16.7,16.9c0.3,0,0.8-0.5,0.8-0.5s-0.3,0.1-0.6,0.1c-0.2,0-0.2,0,0,0.1C17,16.7,16.7,16.9,16.7,16.9z"/>
				<path class="st53" d="M14.7,17.2c-0.4,0-0.5,0-0.5,0s0,0.1,0,0.1C14.2,17.2,14.7,17.3,14.7,17.2c0.1-0.1,0.1-0.1,0.1-0.3
					c0-0.4-0.3-0.4-0.4-0.3c-0.1,0.1-0.2,0.2-0.2,0.2c0.1-0.1,0.1-0.2,0.2-0.2c0.1,0,0.1,0,0.2,0c0.1,0,0.2,0.2,0.2,0.3
					C14.8,17.1,14.8,17.2,14.7,17.2z"/>
				<path class="st53" d="M15.3,17.2c-0.1,0-0.4,0-0.4,0c-0.1,0,0,0,0,0s0.5,0,0.5,0c0,0,0-0.1,0-0.2c0-0.2,0-0.3-0.1-0.3
					c-0.1-0.1-0.2-0.2-0.4-0.1c-0.1,0.1-0.2,0.2-0.1,0.2c0,0,0.1-0.1,0.2-0.1c0.1,0,0.1,0,0.2,0c0.1,0,0.1,0.2,0.1,0.3
					C15.3,17.1,15.3,17.1,15.3,17.2z"/>
				<path class="st53" d="M15.6,17.2c-0.1,0-0.1,0-0.1,0C15.4,17.2,15.4,17.2,15.6,17.2C15.5,17.2,15.6,17.2,15.6,17.2
					c0.1,0,0.1,0,0.1,0c0,0,0.1-0.1,0.1-0.1c0-0.1,0-0.2,0-0.3c0-0.1,0-0.2-0.2-0.2c-0.1,0-0.2,0.1-0.2,0.2c0.1-0.1,0.1-0.2,0.2-0.2
					c0.1,0,0.1,0,0.1,0.1c0,0.1,0,0.3,0,0.3C15.7,17.1,15.7,17.2,15.6,17.2z"/>
				<path class="st53" d="M15.9,17.1C15.8,17.1,15.7,17.1,15.9,17.1c0,0.1,0.2,0,0.3,0c0,0,0.1-0.1,0.1-0.4c0-0.1-0.1-0.2-0.3-0.1
					c-0.1,0-0.1,0.1-0.1,0.2c0.1-0.1,0.1-0.1,0.2-0.1c0.1,0,0.1,0.1,0.1,0.2c0,0.1,0,0.2-0.1,0.2C16.1,17.1,16,17.1,15.9,17.1z"/>
				<path class="st53" d="M16.2,17C16.2,17.1,16.2,17.1,16.2,17c0,0,0.3,0,0.3,0c0,0,0-0.1,0-0.2c0-0.1-0.1-0.2-0.1-0.2
					c-0.1,0-0.1,0.1-0.1,0.1c0,0,0-0.1,0.1-0.1c0,0,0.1,0,0.1,0.1c0,0.1,0,0.2,0,0.2C16.4,17,16.3,17,16.2,17z"/>
				<path class="st53" d="M14,17.2c-0.1,0-0.2,0-0.2,0c0,0,0,0,0.1,0c0,0,0.2,0,0.2,0c0.1,0,0.1-0.2,0.1-0.3c0-0.1-0.1-0.3-0.2-0.3
					c-0.1,0-0.2,0.3-0.2,0.3c0.1-0.3,0.2-0.2,0.3-0.1c0.1,0.1,0,0.2,0,0.3C14.2,17.1,14.1,17.2,14,17.2z"/>
				<path class="st53" d="M13.4,17.1C13.4,17.1,13.5,17.2,13.4,17.1c0.1,0.1,0.3,0.2,0.4,0.1c0.1,0,0.1-0.2,0-0.3
					c0-0.1-0.1-0.2-0.1-0.2c0,0-0.1-0.1-0.2-0.1c-0.1,0-0.1,0.2-0.1,0.2c0-0.2,0.2-0.2,0.2-0.2c0.1,0,0.1,0.1,0.2,0.2
					c0,0.1,0,0.2,0,0.2C13.7,17.2,13.4,17,13.4,17.1z"/>
				<path class="st53" d="M13.4,16.8c0-0.1-0.1-0.2-0.2-0.1c-0.1,0.1-0.1,0.2-0.1,0.2c0.1-0.2,0.1-0.1,0.1-0.2
					C13.3,16.7,13.3,16.7,13.4,16.8c0,0.1,0,0.2,0,0.3c0,0.1-0.1,0-0.2,0c-0.1,0-0.1,0-0.1,0s0.1,0.1,0.2,0.1c0.1,0,0.1,0,0.1,0
					c0,0,0-0.1,0-0.1C13.4,16.9,13.4,16.8,13.4,16.8z"/>
				<path class="st54" d="M17.4,16.3C17.5,16.3,17.5,16.3,17.4,16.3C17.5,16.3,17.5,16.3,17.4,16.3z"/>
				<path class="st54" d="M15.2,16c-0.2,0-0.3,0.1-0.7,0c-0.3-0.1-1.2,0.2-1.6,0.3c-0.4,0.1-0.7-0.1-0.7-0.1
					c0.2,0.3,0.5,0.3,0.7,0.3c0.5-0.1,1.2,0.1,1.5,0.1c0.2,0,0.5,0.1,0.8,0c0.2,0,0.9-0.1,1.5-0.1c0.4,0,0.6-0.1,0.8-0.2
					c0,0-0.1,0-0.2,0c-0.2,0-1.2-0.2-1.4-0.3C15.6,16,15.3,16,15.2,16z"/>
				<path class="st54" d="M12.2,16.3c0,0,0.8,1.6,2.6,1.7c0.8,0,1.5-0.2,2.8-1.7c-0.4,0.3-1.2,1-2.8,1C14,17.2,13,17.2,12.2,16.3z"
					/>
				<path class="st55" d="M14.9,14.5c-0.2,0.1-0.2,0.2-0.1,0.3c0.1,0.1,0.4-0.1,0.5-0.2C15.5,14.3,15.2,14.3,14.9,14.5z"/>
				<path class="st55" d="M18,10.1C18,10,18,9.6,17.7,9.2c-0.3-0.4-0.4-0.1-0.5,0.1c-0.1,0.2-0.5,0.5-0.8,0.6
					c-0.3,0.1-0.2,0.2,0,0.2c0.3,0,0.9,0,1.2,0c0.1,0,0.3,0.2,0.5,0.2C18.3,10.3,18.1,10.3,18,10.1z"/>
				<path class="st55" d="M18.7,13.8c-0.2,0.1-0.5,0.4-0.4,0.6c0.1,0.2,0.3,0.4,0.5,0.3c0.1,0,0.2-0.2,0.2-0.5
					C19,13.9,18.8,13.7,18.7,13.8z"/>
				<path class="st55" d="M16.2,20c-0.1,0.1-0.3,0.2-0.5,0.2c-0.2,0-0.6,0-0.8,0.1c-0.2,0.1,0.3,0.2,0.6,0.1
					C16.1,20.2,16.3,19.9,16.2,20z"/>
				<path class="st56" d="M15,16.5c-0.2,0-0.5,0-0.7,0c-0.2,0-0.9-0.1-1.1,0c-0.3,0-0.7,0.1-1-0.2c0.1,0.2,0.3,0.3,0.7,0.3
					c0.3,0,0.7,0,1,0c0.3,0,0.8,0.1,1.3,0c0.5-0.1,1.1-0.1,1.5-0.1c0.4,0,0.6,0,0.9-0.2c-0.1,0.1-0.4,0.2-1.1,0.1
					C15.5,16.4,15.1,16.4,15,16.5z"/>
				<path class="st56" d="M17.5,16.3C17.5,16.3,17.5,16.3,17.5,16.3C17.5,16.3,17.5,16.3,17.5,16.3z"/>
				<path class="st56" d="M12.2,16.3L12.2,16.3c0.8,1,1.7,1.2,2.8,1.1c1.2,0,2-0.6,2.5-1.2c-1.4,1.1-2.2,1-3.3,1
					C12.8,17.2,12.2,16.3,12.2,16.3z"/>
				<path class="st57" d="M15.3,17.6c0.5,0,0.7-0.2,0.8-0.3c0.2-0.1-0.1,0-0.6,0.2C15.3,17.6,14.9,17.7,15.3,17.6z"/>
				<path class="st58" d="M12.3,16.3C12.3,16.3,12.3,16.3,12.3,16.3C12.3,16.3,12.3,16.3,12.3,16.3z"/>
				<path class="st58" d="M12.2,15.7c-0.1,0.1-0.2,0.1-0.3,0.3c-0.1,0.1,0,0.2,0.1,0.4c0.1,0.2,0.4,0.5,0.3,0.2
					c-0.1-0.2-0.3-0.4-0.2-0.4c0.1,0,0.2,0,0.2,0c0,0-0.3-0.1-0.2-0.3C12.2,15.8,12.3,15.6,12.2,15.7z"/>
				<path class="st58" d="M17.4,16.3c0.1-0.1,0.2-0.1,0.2-0.1c0,0,0,0.2,0.1,0.1c0.1-0.1,0-0.2,0-0.3c-0.1-0.1-0.4-0.1-0.2,0
					C17.7,16.2,17.4,16.3,17.4,16.3z"/>
			</g>
		</g>
	</g>
</g>
</svg>
