<svg xmlns="http://www.w3.org/2000/svg" width="27" height="27" viewBox="0 0 27 27">
    <path id="prefix__avatar" d="M27 25.81a2.369 2.369 0 0 0-1.444-2.183l-6.726-2.862v-1.676a6.274 6.274 0 0 0 1.313-3.1h1.375a2.376 2.376 0 0 0 2.373-2.373v-3.4a2.376 2.376 0 0 0-2.043-2.35C21.676 2.715 18.8 0 13.5 0S5.322 2.715 5.151 7.862a2.376 2.376 0 0 0-2.043 2.35v3.4a2.376 2.376 0 0 0 2.373 2.373h1.375a6.273 6.273 0 0 0 1.313 3.1v1.677l-6.726 2.865A2.37 2.37 0 0 0 0 25.81v.4a.791.791 0 0 0 .79.79h25.418a.791.791 0 0 0 .792-.792zm-9.751-4.49a4.859 4.859 0 0 1-1.089 3.12 3.53 3.53 0 0 1-2.66.977 3.534 3.534 0 0 1-2.653-.97 4.825 4.825 0 0 1-1.1-3.127V20.505a7.194 7.194 0 0 0 7.5 0V21.32zm1.369-6.548l-1.5 1a2.891 2.891 0 0 1-1.609.487h-1.344a.791.791 0 0 0 0 1.582H15.5a4.467 4.467 0 0 0 2.487-.753l.3-.2a4.989 4.989 0 0 1-4.787 3.089 4.88 4.88 0 0 1-5.118-4.852V8.712c.312-1.45.764-2.371 1.308-2.667s1.331.012 2.093.308A4.916 4.916 0 0 0 13.5 6.8a4.765 4.765 0 0 0 1.708-.453c.763-.3 1.484-.59 2.018-.311.389.2.944.835 1.392 2.685zm3.691-4.561v3.4a.792.792 0 0 1-.791.791H20.2V9.42h1.318a.792.792 0 0 1 .791.791zM8.143 3.519c1.1-1.286 2.9-1.938 5.356-1.938s4.26.652 5.356 1.938a6.935 6.935 0 0 1 1.408 4.319h-.243c-.478-1.7-1.141-2.722-2.064-3.2a3.878 3.878 0 0 0-3.333.243 3.972 3.972 0 0 1-1.123.339 4.147 4.147 0 0 1-1.144-.341 3.955 3.955 0 0 0-3.42-.224 4.719 4.719 0 0 0-1.973 3.183h-.228a6.934 6.934 0 0 1 1.408-4.319zM4.69 13.613v-3.4a.792.792 0 0 1 .791-.791H6.8V14.4H5.481a.792.792 0 0 1-.791-.791zm-2.627 11.47l6.2-2.637a5.866 5.866 0 0 0 1.329 2.971h-7.9a.789.789 0 0 1 .377-.334zm15.347.334a5.866 5.866 0 0 0 1.329-2.971l6.2 2.637a.79.79 0 0 1 .377.334zm0 0" transform="translate(.001)" style="fill:#fff"/>
</svg>
