<svg xmlns="http://www.w3.org/2000/svg" xmlns:xlink="http://www.w3.org/1999/xlink" width="38" height="38" viewBox="0 0 38 38">
  <defs>
    <clipPath id="clip-Chat_Rated_Good_Archives">
      <rect width="38" height="38"/>
    </clipPath>
  </defs>
  <g id="Chat_Rated_Good_Archives" data-name="Chat Rated Good Archives" clip-path="url(#clip-Chat_Rated_Good_Archives)">
    <g id="Group_1313" data-name="Group 1313" transform="translate(-1161 -153)">
      <g id="Group_193" data-name="Group 193" transform="translate(1162.938 155.032)">
        <g id="Ellipse_359" data-name="Ellipse 359" transform="translate(0.062 -0.032)" fill="rgba(71,175,175,0.1)" stroke="#47afaf" stroke-width="1">
          <ellipse cx="17" cy="17.5" rx="17" ry="17.5" stroke="none"/>
          <ellipse cx="17" cy="17.5" rx="16.5" ry="17" fill="none"/>
        </g>
      </g>
      <g id="thumbs-up" transform="translate(1171.875 164)">
        <path id="thumbs-up-2" data-name="thumbs-up" d="M11.749,7.687V4.437A2.437,2.437,0,0,0,9.312,2L6.062,9.312v8.937h9.164a1.625,1.625,0,0,0,1.625-1.381l1.121-7.312a1.625,1.625,0,0,0-1.625-1.869ZM6.062,18.249H3.625A1.625,1.625,0,0,1,2,16.624V10.937A1.625,1.625,0,0,1,3.625,9.312H6.062" transform="translate(-2 -2)" fill="none" stroke="#47afaf" stroke-linecap="round" stroke-linejoin="round" stroke-width="2"/>
      </g>
    </g>
  </g>
</svg>
