<?xml version="1.0" encoding="utf-8"?>
<!-- Generator: Adobe Illustrator 23.0.1, SVG Export Plug-In . SVG Version: 6.00 Build 0)  -->
<svg version="1.1" id="Layer_1" xmlns="http://www.w3.org/2000/svg" xmlns:xlink="http://www.w3.org/1999/xlink" x="0px" y="0px"
	 viewBox="0 0 72 72" style="enable-background:new 0 0 72 72;" xml:space="preserve">
<style type="text/css">
	.st0{clip-path:url(#SVGID_2_);}
	.st1{fill:#009CE8;}
	.st2{fill:#FFFFFF;stroke:#FFFFFF;stroke-width:0.2;}
</style>
<g>
	<defs>
		<rect id="SVGID_1_" width="72" height="72"/>
	</defs>
	<clipPath id="SVGID_2_">
		<use xlink:href="#SVGID_1_"  style="overflow:visible;"/>
	</clipPath>
	<g id="Chat_Active" class="st0">
		<g id="Group_569" transform="translate(-15 -147)">
			<path id="Rectangle_1544" class="st1" d="M32,151h39c7.7,0,14,6.3,14,14l0,0v50l0,0H32c-7.7,0-14-6.3-14-14v-36
				C18,157.3,24.3,151,32,151z"/>
			<path id="Path_748" class="st2" d="M62.3,170.5h-21c-1.6,0-2.9,1.3-2.9,2.9v14.1c0,1.6,1.3,2.9,2.9,2.9h5.8l4.7,6.1l4.7-6.1h5.8
				c1.6,0,2.9-1.3,2.9-2.9v-14.1C65.2,171.8,63.9,170.5,62.3,170.5z M63.6,187.5c0,0.7-0.6,1.2-1.2,1.2h-6.6l-3.9,5.1l-3.9-5.1h-6.6
				c-0.7,0-1.2-0.6-1.2-1.2v-14.1c0-0.7,0.6-1.2,1.2-1.2h21c0.7,0,1.2,0.6,1.2,1.2V187.5z M45.2,178.5h13.4v-1.6H45.2L45.2,178.5z
				 M45.2,183.6h13.4V182H45.2L45.2,183.6z"/>
		</g>
	</g>
</g>
</svg>
