<?xml version="1.0" encoding="utf-8"?>
<!-- Generator: Adobe Illustrator 23.0.1, SVG Export Plug-In . SVG Version: 6.00 Build 0)  -->
<svg version="1.1" id="Layer_1" xmlns="http://www.w3.org/2000/svg" xmlns:xlink="http://www.w3.org/1999/xlink" x="0px" y="0px" width="15" height="16.243" viewBox="0 0 10 10" style="enable-background:new 0 0 10 10;" xml:space="preserve">
<style type="text/css">
	.st0{fill-rule:evenodd;clip-rule:evenodd;}
</style>
<title>icon/mini-chevron-right</title>
<desc>Created with Sketch.</desc>
<g>
	<path class="st0" d="M9.1,4.5H2L5.5,1c0.2-0.2,0.2-0.5,0-0.6C5.3,0.2,5,0.2,4.9,0.4L0.6,4.7c-0.2,0.2-0.2,0.5,0,0.6l4.3,4.3
		C5,9.7,5.1,9.7,5.2,9.7c0.1,0,0.2,0,0.3-0.1c0.2-0.2,0.2-0.5,0-0.6L2,5.5h7.1c0.3,0,0.5-0.2,0.5-0.5S9.4,4.5,9.1,4.5"/>
</g>
</svg>
