<svg xmlns="http://www.w3.org/2000/svg" width="24" height="23.997" viewBox="0 0 24 23.997">
  <g id="Group_530" data-name="Group 530" transform="translate(0 -0.036)">
    <path id="Path_731" data-name="Path 731" d="M22.813,38.665V29.26a1.621,1.621,0,0,1,.638-1.289l7.582-5.783a4.682,4.682,0,0,1,3.3-.937l-.431-.329a4.688,4.688,0,0,0-5.685,0l-6.375,4.862A4.688,4.688,0,0,0,20,29.512V37.4a4.688,4.688,0,0,0,4.277,4.669,4.674,4.674,0,0,1-1.465-3.4Z" transform="translate(-19.063 -18.992)" fill="#cee1f2"/>
    <path id="Path_732" data-name="Path 732" d="M18.375,24.033H5.625A5.631,5.631,0,0,1,0,18.408V10.52A5.657,5.657,0,0,1,2.214,6.048L8.589,1.185a5.638,5.638,0,0,1,6.823,0l6.375,4.862A5.657,5.657,0,0,1,24,10.52v7.888A5.631,5.631,0,0,1,18.375,24.033ZM12,1.91a3.745,3.745,0,0,0-2.274.766L3.351,7.539A3.772,3.772,0,0,0,1.875,10.52v7.888a3.754,3.754,0,0,0,3.75,3.75h12.75a3.754,3.754,0,0,0,3.75-3.75V10.52a3.772,3.772,0,0,0-1.476-2.982L14.274,2.676A3.745,3.745,0,0,0,12,1.91Zm3.411,14.408,4.517-3.446a.937.937,0,1,0-1.137-1.491l-4.517,3.446a3.759,3.759,0,0,1-4.548,0l-4.47-3.409a.937.937,0,1,0-1.137,1.491l4.47,3.409a5.639,5.639,0,0,0,6.823,0Z" transform="translate(0 0)" fill="#0178d4"/>
    <path id="Path_733" data-name="Path 733" d="M232.172,96.682a.937.937,0,0,1-.937-.937V91.9a.938.938,0,0,1,1.875,0v3.844A.937.937,0,0,1,232.172,96.682Zm0,1.359a1.172,1.172,0,1,0,1.172,1.172,1.172,1.172,0,0,0-1.172-1.172Z" transform="translate(-220.172 -86.664)" fill="#0095de"/>
  </g>
</svg>
