<svg id="Group_464" data-name="Group 464" xmlns="http://www.w3.org/2000/svg" width="17.491" height="17.491" viewBox="0 0 17.491 17.491">
  <path id="Path_674" data-name="Path 674" d="M11.955,11.746H4.791v-1.3h7.164Zm0-2.6H4.791v-1.3h7.164Zm0-2.6H4.791v-1.3h7.164ZM3,14.994l.9-.975.9.975.9-.975.9.975.9-.975.9.975.9-.975.9.975.9-.975.9.975.9-.975.9.975V2l-.9.975L11.955,2l-.9.975L10.164,2l-.9.975L8.373,2l-.9.975L6.582,2l-.9.975L4.791,2l-.9.975L3,2Z" transform="translate(0.372 0.248)" fill="#0d99dd"/>
  <path id="Path_675" data-name="Path 675" d="M0,0H17.491V17.491H0Z" fill="none"/>
</svg>
