<?xml version="1.0" encoding="utf-8"?>
<!-- Generator: Adobe Illustrator 23.0.1, SVG Export Plug-In . SVG Version: 6.00 Build 0)  -->
<svg version="1.1" id="Layer_1" xmlns="http://www.w3.org/2000/svg" xmlns:xlink="http://www.w3.org/1999/xlink" x="0px" y="0px"
	 viewBox="0 0 24 24" style="enable-background:new 0 0 24 24;" xml:space="preserve">
<style type="text/css">
	.st0{clip-path:url(#SVGID_2_);}
	.st1{fill:#009CE8;}
</style>
<g>
	<defs>
		<rect id="SVGID_1_" width="24" height="24"/>
	</defs>
	<clipPath id="SVGID_2_">
		<use xlink:href="#SVGID_1_"  style="overflow:visible;"/>
	</clipPath>
	<g id="Customer_Chat_Active" class="st0">
		<g id="team" transform="translate(1 0.866)">
			<path id="Path_9" class="st1" d="M17.1,11.6c-2.5,0-3.1-0.1-4.1,0.4c-1.3-0.1-2.7-0.1-4,0c-0.2,0-0.4,0-0.6,0
				c-1-0.5-1.6-0.4-4.1-0.4c-2.4,0-4.3,1.9-4.3,4.3v0.3c0,1.5,1.2,2.6,2.6,2.6h0.7c0.3,1.6,1.7,2.7,3.4,2.7h7.9c1.6,0,3-1.1,3.4-2.7
				h0.8c1.5,0,2.6-1.2,2.6-2.6v-0.3C21.4,13.5,19.5,11.6,17.1,11.6z M3.3,17.5H2.6c-0.7,0-1.3-0.6-1.3-1.3v-0.3
				c0-1.6,1.3-2.9,2.9-2.9h1.5C4.3,14,3.3,15.7,3.3,17.5z M16.7,18.1c0,1.2-0.9,2.1-2.1,2.1c0,0,0,0,0,0H6.7c-1.2,0-2.1-0.9-2.1-2.1
				l0,0v-0.4c0-2.4,2-4.4,4.4-4.4h3.3c2.4,0,4.4,2,4.4,4.4L16.7,18.1L16.7,18.1z M20.1,16.2c0,0.7-0.6,1.3-1.3,1.3H18
				C18,15.7,17,14,15.5,13h1.6c1.6,0,2.9,1.3,2.9,2.9L20.1,16.2z"/>
			<path id="Path_10" class="st1" d="M5.5,10.6c0.9,0,1.7-0.3,2.3-1c1.7,1.6,4.3,1.5,5.9,0c1.2,1.3,3.2,1.3,4.5,0.2
				c0.3-0.3,0.6-0.7,0.8-1.1c0.3-1,0.5-2,0.4-3c0-1.8-1.2-3-3.3-3c-0.4,0-0.7,0-1,0.1c-0.5-1.7-2-2.6-4.2-2.6s-3.7,1-4.2,2.6
				c-0.3-0.1-0.6-0.1-1-0.1c-2.2,0-3.3,1.2-3.3,3c0,1,0.1,2.1,0.4,3C3,9.9,4.2,10.7,5.5,10.6L5.5,10.6z M18,5.6
				c0,0.9-0.1,1.7-0.3,2.5c-0.2,0.7-0.9,1.2-1.7,1.1c-0.6,0.1-1.3-0.3-1.5-0.9c0.5-1.4,0.7-2.8,0.7-4.3C15.4,4,15.7,4,16,4
				C16.5,4,18,4,18,5.6z M8.4,2.1c1.4-0.8,3.1-0.8,4.5,0c0.6,0.5,0.9,1.2,0.8,2c0,2.7-0.4,5.4-3.1,5.4S7.6,6.8,7.6,4
				C7.5,3.3,7.8,2.5,8.4,2.1L8.4,2.1z M5.5,4C5.7,4,6,4,6.3,4.1C6.2,5.6,6.4,7.1,7,8.5C6.7,9,6.1,9.3,5.5,9.3C4.7,9.3,4,8.9,3.8,8.1
				C3.5,7.3,3.4,6.5,3.5,5.6C3.5,5.2,3.5,4,5.5,4z"/>
		</g>
	</g>
</g>
</svg>
