<?xml version="1.0" encoding="utf-8"?>
<!-- Generator: Adobe Illustrator 23.0.1, SVG Export Plug-In . SVG Version: 6.00 Build 0)  -->
<svg version="1.1" id="Layer_1" xmlns="http://www.w3.org/2000/svg" xmlns:xlink="http://www.w3.org/1999/xlink" x="0px" y="0px"
	 viewBox="0 0 72 72" style="enable-background:new 0 0 72 72;" xml:space="preserve">
<style type="text/css">
	.st0{clip-path:url(#SVGID_2_);}
	.st1{fill:#009CE8;}
	.st2{fill:#FFFFFF;}
</style>
<g>
	<defs>
		<rect id="SVGID_1_" width="72" height="72"/>
	</defs>
	<clipPath id="SVGID_2_">
		<use xlink:href="#SVGID_1_"  style="overflow:visible;"/>
	</clipPath>
	<g id="Customers_Active" class="st0">
		<g id="Group_1282" transform="translate(12996 7655)">
			<path id="Rectangle_2025" class="st1" d="M-12979-7651h39c7.7,0,14,6.3,14,14l0,0v50l0,0h-53c-7.7,0-14-6.3-14-14v-36
				C-12993-7644.7-12986.7-7651-12979-7651z"/>
			<g id="Group_568" transform="translate(-13011 -7903.785)">
				<g id="team" transform="translate(39 271.652)">
					<path id="Path_9" class="st2" d="M20.3,13.8c-2.9,0-3.6-0.1-4.9,0.5c-1.6-0.1-3.2-0.1-4.8-0.1c-0.3,0-0.5,0-0.8,0
						c-1.2-0.6-1.9-0.4-4.9-0.4c-2.8,0-5.1,2.3-5.1,5.1v0.3c0,1.7,1.4,3.1,3.1,3.1H4c0.4,1.9,2.1,3.2,4,3.2h9.4c1.9,0,3.6-1.3,4-3.2
						h0.9c1.7,0,3.1-1.4,3.1-3.1v-0.3C25.4,16.1,23.1,13.8,20.3,13.8L20.3,13.8z M3.9,20.7H3.1c-0.9,0-1.5-0.7-1.5-1.5v-0.3
						c0-1.9,1.6-3.5,3.5-3.5h1.8C5.1,16.6,4,18.6,3.9,20.7z M19.9,21.5c0,1.4-1.1,2.5-2.5,2.5H8c-1.4,0-2.5-1.1-2.5-2.5V21
						c0-2.9,2.3-5.2,5.2-5.2h3.9c2.9,0,5.2,2.3,5.2,5.2L19.9,21.5L19.9,21.5z M23.8,19.2c0,0.9-0.7,1.5-1.5,1.5h-0.9
						c-0.1-2.2-1.2-4.1-3-5.4h1.9c1.9,0,3.5,1.6,3.5,3.5L23.8,19.2z"/>
					<path id="Path_10" class="st2" d="M6.5,12.6c1,0,2-0.4,2.7-1.1c2,1.9,5,1.8,7-0.1c1.4,1.5,3.8,1.6,5.3,0.2
						c0.4-0.4,0.7-0.8,0.9-1.3c0.4-1.2,0.6-2.4,0.5-3.6c0-2.1-1.4-3.5-4-3.5c-0.4,0-0.8,0-1.2,0.1c-0.6-2-2.4-3.1-5-3.1
						s-4.4,1.1-5,3.1C7.3,3.1,6.9,3.1,6.5,3.1c-2.6,0-4,1.4-4,3.5C2.5,7.9,2.6,9.1,3,10.2C3.5,11.7,4.9,12.6,6.5,12.6z M21.3,6.6
						c0,1-0.1,2-0.4,3c-0.3,0.9-1.1,1.4-2,1.3c-0.8,0.1-1.5-0.4-1.8-1c0.6-1.6,0.9-3.4,0.8-5.1c0.3-0.1,0.7-0.1,1-0.1
						C19.6,4.7,21.3,4.7,21.3,6.6z M10,2.4c1.7-1,3.7-1,5.3,0c0.7,0.6,1.1,1.4,1,2.3c0,3.2-0.4,6.5-3.7,6.5S9,8,9,4.8
						C8.9,3.9,9.3,3,10,2.4z M6.5,4.7c0.3,0,0.6,0,0.9,0.1C7.3,6.6,7.6,8.4,8.3,10c-0.4,0.6-1.1,1-1.8,1c-0.9,0.1-1.7-0.5-2-1.3
						c-0.3-1-0.4-2-0.4-3C4.1,6.2,4.1,4.7,6.5,4.7z"/>
				</g>
			</g>
		</g>
	</g>
</g>
</svg>
