<?xml version="1.0" encoding="utf-8"?>
<!-- Generator: Adobe Illustrator 23.0.1, SVG Export Plug-In . SVG Version: 6.00 Build 0)  -->
<svg version="1.1" id="Layer_1" xmlns="http://www.w3.org/2000/svg" xmlns:xlink="http://www.w3.org/1999/xlink" x="0px" y="0px"
	 viewBox="0 0 72 72" style="enable-background:new 0 0 72 72;" xml:space="preserve">
<style type="text/css">
	.st0{clip-path:url(#SVGID_2_);}
	.st1{fill:#009CE8;}
	.st2{fill:#FFFFFF;}
</style>
<g>
	<defs>
		<rect id="SVGID_1_" width="72" height="72"/>
	</defs>
	<clipPath id="SVGID_2_">
		<use xlink:href="#SVGID_1_"  style="overflow:visible;"/>
	</clipPath>
	<g id="Departments" class="st0">
		<g id="Group_1291" transform="translate(9 4)">
			<g id="Group_1283" transform="translate(20527 22342)">
				<path id="Rectangle_2027" class="st1" d="M-20519-22342h39c7.7,0,14,6.3,14,14l0,0v50l0,0h-53c-7.7,0-14-6.3-14-14v-36
					C-20533-22335.7-20526.7-22342-20519-22342z"/>
			</g>
			<g id="Group_1285" transform="translate(-23 -617.457)">
				<path id="Path_752" class="st2" d="M39,647.4h10v-10H39V647.4z M40.5,639h6.9v6.9h-6.9V639z M39,660.5h10v-10H39V660.5z
					 M40.5,652.1h6.9v6.9h-6.9V652.1z M52.1,637.5v10h10v-10H52.1z M60.5,645.9h-6.9V639h6.9L60.5,645.9z M52.1,660.5h10v-10h-10
					V660.5z M53.7,652.1h6.9v6.9h-6.9V652.1z"/>
			</g>
		</g>
	</g>
</g>
</svg>
