<?xml version="1.0" encoding="utf-8"?>
<!-- Generator: Adobe Illustrator 23.0.1, SVG Export Plug-In . SVG Version: 6.00 Build 0)  -->
<svg version="1.1" id="Layer_1" xmlns="http://www.w3.org/2000/svg" xmlns:xlink="http://www.w3.org/1999/xlink" x="0px" y="0px"
	 viewBox="0 0 24 24" style="enable-background:new 0 0 24 24;" xml:space="preserve">
<style type="text/css">
	.st0{fill:#172B4D;}
</style>
<g>
	<path class="st0" d="M12,1c6.1,0,11,4.9,11,11s-4.9,11-11,11S1,18.1,1,12S5.9,1,12,1z M12,2.5c-5.2,0-9.5,4.3-9.5,9.5
		s4.3,9.5,9.5,9.5s9.5-4.3,9.5-9.5S17.2,2.5,12,2.5z M8.2,10.5C7.6,10.5,7,9.9,7,9.2S7.6,8,8.2,8s1.2,0.6,1.2,1.2S8.9,10.5,8.2,10.5
		z M15.8,10.5c-0.7,0-1.2-0.6-1.2-1.2S15.1,8,15.8,8C16.4,8,17,8.6,17,9.2S16.4,10.5,15.8,10.5z M6.9,14.9c-0.2-0.4-0.1-0.8,0.3-1
		s0.8-0.1,1,0.3c0.9,1.4,2.1,2.1,3.9,2.1s3-0.7,3.9-2.1c0.2-0.4,0.7-0.5,1-0.3s0.5,0.7,0.3,1c-1.1,1.9-2.9,2.9-5.1,2.9
		S8,16.8,6.9,14.9z"/>
</g>
</svg>
