<?xml version="1.0" encoding="utf-8"?>
<!-- Generator: Adobe Illustrator 23.0.1, SVG Export Plug-In . SVG Version: 6.00 Build 0)  -->
<svg version="1.1" id="Layer_1" xmlns="http://www.w3.org/2000/svg" xmlns:xlink="http://www.w3.org/1999/xlink" x="0px" y="0px"
	 viewBox="0 0 24 24" style="enable-background:new 0 0 24 24;" xml:space="preserve">
<style type="text/css">
	.st0{fill:#D4E1F4;}
	.st1{fill:#0178D4;}
	.st2{fill:#0095DE;}
</style>
<g>
	<path class="st0" d="M12,3.8L2.6,20.7H4l8.7-15.7L12,3.8z"/>
	<path class="st1" d="M12.3,3.2C12.2,3.1,12,3,11.8,3.1c-0.1,0-0.1,0.1-0.1,0.1L2,20.7c-0.1,0.2,0,0.4,0.1,0.5c0.1,0,0.1,0,0.2,0
		h19.4c0.2,0,0.4-0.2,0.4-0.4c0-0.1,0-0.1,0-0.2L12.3,3.2z M2.6,20.7L12,3.8l9.4,16.9H2.6z"/>
	<path class="st1" d="M23.3,20.6L13.1,2.2c-0.3-0.6-1.1-0.8-1.6-0.5c-0.2,0.1-0.4,0.3-0.5,0.5L0.7,20.6c-0.3,0.6-0.1,1.3,0.5,1.6
		c0.2,0.1,0.4,0.2,0.6,0.2h20.4c0.7,0,1.2-0.5,1.2-1.2C23.4,21,23.4,20.8,23.3,20.6L23.3,20.6z M22.8,21.5c-0.1,0.2-0.3,0.3-0.6,0.3
		H1.8c-0.4,0-0.6-0.3-0.6-0.6c0-0.1,0-0.2,0.1-0.3L11.4,2.5c0.2-0.3,0.6-0.4,0.9-0.3c0.1,0.1,0.2,0.1,0.3,0.3l10.2,18.4
		C22.9,21.1,22.9,21.3,22.8,21.5z"/>
	<path class="st2" d="M12,13.1l1.5-3.2c0.1-0.2,0-0.4-0.1-0.5c-0.1-0.1-0.3-0.1-0.5,0.1L9.6,13c-0.1,0.2-0.2,0.4,0,0.6l1.6,2.1
		l-0.9,2.7l0,0c-0.1,0.2,0,0.4,0.2,0.5c0.1,0,0.1,0,0.2,0c0.1,0,0.2,0,0.3-0.1l2.7-3.2c0.1-0.2,0.1-0.4,0-0.6L12,13.1z M11.1,17.7
		l0.6-1.9l0,0c0-0.1,0-0.3-0.1-0.4l-1.6-2.1l2.4-2.6L11.4,13c-0.1,0.2,0,0.3,0.1,0.5l1.6,1.9L11.1,17.7z"/>
</g>
</svg>
