<svg xmlns="http://www.w3.org/2000/svg" width="108" height="108" viewBox="0 0 108 108">
  <g id="Group_1331" data-name="Group 1331" transform="translate(-1568 -457)">
    <g id="Group_1330" data-name="Group 1330">
      <g id="Group_1329" data-name="Group 1329">
        <path id="Path_2305" data-name="Path 2305" d="M54,0A54,54,0,1,1,0,54,54,54,0,0,1,54,0Z" transform="translate(1568 457)" fill="#f2fafd"/>
      </g>
      <g id="Group_1108" data-name="Group 1108" transform="translate(1588.032 477.032)">
        <g id="Group_1107" data-name="Group 1107" transform="translate(0 0)">
          <g id="Group_1105" data-name="Group 1105" transform="translate(0 7.034)">
            <path id="Path_2257" data-name="Path 2257" d="M0,0H61.495V61.495H0Z" fill="none"/>
            <path id="Path_2258" data-name="Path 2258" d="M50.683,12.249H45.559V35.31H12.249v5.125A2.57,2.57,0,0,0,14.811,43H43L53.246,53.246V14.811A2.57,2.57,0,0,0,50.683,12.249ZM40.434,27.623V4.562A2.57,2.57,0,0,0,37.872,2H4.562A2.57,2.57,0,0,0,2,4.562V40.434L12.249,30.185H37.872A2.57,2.57,0,0,0,40.434,27.623Z" transform="translate(3.125 3.125)" fill="#0178d4"/>
          </g>
          <ellipse id="Ellipse_562" data-name="Ellipse 562" cx="19.161" cy="18.726" rx="19.161" ry="18.726" transform="translate(31.078)" fill="#f2fafd"/>
        </g>
        <g id="Group_1106" data-name="Group 1106" transform="translate(35.71 4.355)">
          <ellipse id="Ellipse_560" data-name="Ellipse 560" cx="14" cy="14.5" rx="14" ry="14.5" transform="translate(0.258 -0.387)" fill="#0095de"/>
        </g>
      </g>
    </g>
    <g id="Group_1113" data-name="Group 1113" transform="translate(1628.968 487.531)">
      <path id="Path_2259" data-name="Path 2259" d="M0,0H17.324V17.324H0Z" fill="none"/>
      <path id="Path_2260" data-name="Path 2260" d="M9.218,16.246l-1.047-.953C4.454,11.922,2,9.7,2,6.97A3.932,3.932,0,0,1,5.97,3,4.323,4.323,0,0,1,9.218,4.509,4.323,4.323,0,0,1,12.467,3a3.932,3.932,0,0,1,3.97,3.97c0,2.729-2.454,4.952-6.172,8.33Z" transform="translate(-0.556 -0.834)" fill="#fff"/>
    </g>
  </g>
</svg>
