<svg xmlns="http://www.w3.org/2000/svg" xmlns:xlink="http://www.w3.org/1999/xlink" width="24" height="24" viewBox="0 0 24 24">
  <defs>
    <clipPath id="clip-Filter_Icon">
      <rect width="24" height="24"/>
    </clipPath>
  </defs>
  <g id="Filter_Icon" data-name="Filter Icon" clip-path="url(#clip-Filter_Icon)">
    <g id="Group_1312" data-name="Group 1312" transform="translate(2 -8.667)">
      <g id="Group_183" data-name="Group 183" transform="translate(0 24.045)">
        <g id="Group_182" data-name="Group 182">
          <path id="Path_498" data-name="Path 498" d="M19.232,354.09H17a2.907,2.907,0,0,0-5.58,0H.836a.836.836,0,0,0,0,1.672H11.424a2.907,2.907,0,0,0,5.58,0h2.227a.836.836,0,0,0,0-1.672Zm-5.017,2.09a1.254,1.254,0,1,1,1.254-1.254A1.256,1.256,0,0,1,14.215,356.181Z" transform="translate(0 -352)" fill="#172b4d"/>
        </g>
      </g>
      <g id="Group_185" data-name="Group 185" transform="translate(0 10.667)">
        <g id="Group_184" data-name="Group 184">
          <path id="Path_499" data-name="Path 499" d="M19.232,12.757H17a2.907,2.907,0,0,0-5.58,0H.836a.836.836,0,0,0,0,1.672H11.424a2.907,2.907,0,0,0,5.58,0h2.227a.836.836,0,0,0,0-1.672Zm-5.017,2.09a1.254,1.254,0,1,1,1.254-1.254A1.256,1.256,0,0,1,14.215,14.848Z" transform="translate(0 -10.667)" fill="#172b4d"/>
        </g>
      </g>
      <g id="Group_187" data-name="Group 187" transform="translate(0 17.356)">
        <g id="Group_186" data-name="Group 186">
          <path id="Path_500" data-name="Path 500" d="M19.232,183.424H8.643a2.907,2.907,0,0,0-5.58,0H.836a.836.836,0,1,0,0,1.672H3.063a2.907,2.907,0,0,0,5.58,0H19.231a.836.836,0,0,0,0-1.672Zm-13.378,2.09a1.254,1.254,0,1,1,1.254-1.254A1.256,1.256,0,0,1,5.853,185.515Z" transform="translate(0 -181.334)" fill="#172b4d"/>
        </g>
      </g>
    </g>
  </g>
</svg>
