<?xml version="1.0" encoding="utf-8"?>
<!-- Generator: Adobe Illustrator 23.0.1, SVG Export Plug-In . SVG Version: 6.00 Build 0)  -->
<svg version="1.1" id="Layer_1" xmlns="http://www.w3.org/2000/svg" xmlns:xlink="http://www.w3.org/1999/xlink" x="0px" y="0px"
	 viewBox="0 0 24 24" style="enable-background:new 0 0 24 24;" xml:space="preserve">
<style type="text/css">
	.st0{fill:#D4E1F4;}
	.st1{fill:#0178D4;}
	.st2{fill:#0095DE;}
</style>
<g>
	<path class="st0" d="M8.1,18.7v-8.3H7.1v8.3c0,1.4,1.1,2.5,2.5,2.5h0.9C9.2,21.3,8.1,20.1,8.1,18.7z"/>
	<g>
		<path class="st0" d="M10.6,5.2H9.7c-1.4,0-2.5,1.1-2.5,2.5v2.1h0.9V7.8C8.1,6.4,9.2,5.2,10.6,5.2z"/>
		<path class="st1" d="M6.6,7.8v2.1H6.3c-0.2,0-0.3,0.1-0.3,0.3s0.1,0.3,0.3,0.3h0.2v8.3c0,1.5,1.1,2.8,2.6,3.1v1
			c0,0.2,0.1,0.3,0.3,0.3h5.2c0.2,0,0.3-0.1,0.3-0.3v-1c1.5-0.3,2.6-1.6,2.6-3.1v-8.3h0.2c0.2,0,0.3-0.1,0.3-0.3s-0.1-0.3-0.3-0.3
			h-0.2V7.8c0-1.5-1.1-2.8-2.6-3.1V1.5h1c0.2,0,0.3-0.1,0.3-0.3S16,0.9,15.8,0.9H8.2C8,0.9,7.9,1,7.9,1.2S8,1.5,8.2,1.5h1v3.3
			C7.6,5,6.6,6.3,6.6,7.8L6.6,7.8z M9.7,22.5v-0.7h4.6v0.7H9.7z M16.9,18.7c0,1.4-1.1,2.5-2.5,2.5H9.7c-1.4,0-2.5-1.1-2.5-2.5v-8.3
			h9.7V18.7z M16.9,7.8v2.1H7.1V7.8c0-1.4,1.1-2.5,2.5-2.5h4.6C15.7,5.2,16.9,6.4,16.9,7.8z M12.7,4.7h-1.4V4.3
			c0-0.1,0.1-0.2,0.2-0.2h1c0.1,0,0.2,0.1,0.2,0.2L12.7,4.7z M14.3,1.5v3.2h-1V4.3c0-0.4-0.3-0.8-0.8-0.8h-1c-0.4,0-0.8,0.3-0.8,0.8
			v0.4h-1V1.5H14.3z"/>
		<path class="st2" d="M12,12.9c-0.1,0-0.1,0-0.2,0.1c-0.2,0.2-2.1,2.2-2.1,3.4c0,1.3,1,2.3,2.3,2.3s2.3-1,2.3-2.3
			c0-1.2-1.9-3.1-2.1-3.4C12.1,12.9,12.1,12.9,12,12.9L12,12.9z M12,18c-0.6,0-1.1-0.5-1.1-1.1c0-0.2,0.2-0.6,0.6-1
			c0.2-0.2,0.3-0.3,0.5-0.4c0.4,0.3,1.1,1,1.1,1.4C13.1,17.5,12.6,18,12,18L12,18z M13.7,16.3c0,0.1,0,0.3-0.1,0.4
			c-0.1-0.8-1.3-1.7-1.5-1.8c-0.1-0.1-0.2-0.1-0.3,0c-0.1,0.1-1.4,1-1.5,1.8c0-0.1-0.1-0.3-0.1-0.4c0-0.4,0.3-1,0.9-1.8
			c0.3-0.4,0.6-0.7,0.8-0.9c0.2,0.2,0.5,0.5,0.8,0.9C13.4,15.3,13.7,16,13.7,16.3z"/>
	</g>
</g>
</svg>
