<svg xmlns="http://www.w3.org/2000/svg" width="27" height="27" viewBox="0 0 27 27">
    <defs>
        <style>
            .prefix__cls-1{fill:#606060}
        </style>
    </defs>
    <g id="prefix__gear">
        <path id="prefix__Path_15" d="M140.063 133.609a6.454 6.454 0 1 0 6.454 6.454 6.462 6.462 0 0 0-6.454-6.454zm0 11.295a4.841 4.841 0 1 1 4.841-4.841 4.846 4.846 0 0 1-4.841 4.837zm0 0" class="prefix__cls-1" data-name="Path 15" transform="translate(-126.563 -126.563)"/>
        <path id="prefix__Path_16" d="M26.365 10.426l-2.075-.451a11.293 11.293 0 0 0-.668-1.61l1.148-1.788a.807.807 0 0 0-.108-1.007l-3.233-3.233a.807.807 0 0 0-1.007-.108l-1.786 1.149a11.294 11.294 0 0 0-1.61-.668L16.574.635A.807.807 0 0 0 15.786 0h-4.572a.807.807 0 0 0-.788.635L9.975 2.71a11.294 11.294 0 0 0-1.61.668L6.577 2.229a.807.807 0 0 0-1.007.108L2.338 5.57a.807.807 0 0 0-.108 1.007l1.148 1.787a11.294 11.294 0 0 0-.668 1.61l-2.075.451a.807.807 0 0 0-.635.789v4.572a.807.807 0 0 0 .635.788l2.075.451a11.294 11.294 0 0 0 .668 1.61l-1.149 1.788a.807.807 0 0 0 .108 1.007l3.233 3.232a.807.807 0 0 0 1.007.108l1.787-1.149a11.294 11.294 0 0 0 1.61.668l.451 2.075a.807.807 0 0 0 .788.635h4.572a.807.807 0 0 0 .788-.635l.451-2.075a11.294 11.294 0 0 0 1.61-.668l1.787 1.149a.807.807 0 0 0 1.007-.108l3.233-3.233a.807.807 0 0 0 .108-1.007l-1.149-1.787a11.294 11.294 0 0 0 .668-1.61l2.075-.451a.807.807 0 0 0 .637-.788v-4.572a.807.807 0 0 0-.635-.788zm-.978 4.71l-1.9.414a.807.807 0 0 0-.606.572 9.68 9.68 0 0 1-.894 2.156.807.807 0 0 0 .024.833l1.054 1.639-2.313 2.313-1.639-1.054a.806.806 0 0 0-.833-.024 9.686 9.686 0 0 1-2.156.894.807.807 0 0 0-.572.606l-.414 1.9h-3.274l-.414-1.9a.807.807 0 0 0-.572-.606 9.68 9.68 0 0 1-2.156-.894.807.807 0 0 0-.833.024l-1.637 1.052-2.314-2.313 1.053-1.639a.807.807 0 0 0 .024-.833 9.69 9.69 0 0 1-.894-2.156.807.807 0 0 0-.606-.572l-1.9-.414v-3.27l1.9-.414a.807.807 0 0 0 .606-.572 9.68 9.68 0 0 1 .894-2.156.807.807 0 0 0-.024-.833L3.938 6.252l2.313-2.314L7.89 4.992a.806.806 0 0 0 .833.024 9.686 9.686 0 0 1 2.156-.894.807.807 0 0 0 .572-.606l.414-1.9h3.271l.414 1.9a.807.807 0 0 0 .572.606 9.68 9.68 0 0 1 2.156.894.807.807 0 0 0 .833-.024l1.639-1.054 2.313 2.313-1.055 1.639a.807.807 0 0 0-.024.833 9.681 9.681 0 0 1 .894 2.156.807.807 0 0 0 .606.572l1.9.414zm0 0" class="prefix__cls-1" data-name="Path 16"/>
    </g>
</svg>
