<?xml version="1.0" encoding="utf-8"?>
<!-- Generator: Adobe Illustrator 24.1.2, SVG Export Plug-In . SVG Version: 6.00 Build 0)  -->
<svg version="1.1" id="Layer_1" xmlns="http://www.w3.org/2000/svg" xmlns:xlink="http://www.w3.org/1999/xlink" x="0px" y="0px"
	 viewBox="0 0 27 27" style="enable-background:new 0 0 27 27;" xml:space="preserve">
<style type="text/css">
	.st0{fill:#FFFFFF;}
</style>
<g id="prefix__gear">
	<path id="prefix__Path_15" class="st0" d="M13.5,7C9.9,7,7,9.9,7,13.5S9.9,20,13.5,20c3.6,0,6.5-2.9,6.5-6.5c0,0,0,0,0,0
		C19.9,9.9,17.1,7.1,13.5,7z M13.5,18.3c-2.7,0-4.8-2.2-4.8-4.8c0-2.7,2.2-4.8,4.8-4.8c2.7,0,4.8,2.2,4.8,4.8
		C18.3,16.2,16.2,18.3,13.5,18.3L13.5,18.3z"/>
	<path id="prefix__Path_16" class="st0" d="M26.4,10.4L24.3,10c-0.2-0.6-0.4-1.1-0.7-1.6l1.1-1.8c0.2-0.3,0.2-0.7-0.1-1l-3.2-3.2
		c-0.3-0.3-0.7-0.3-1-0.1l-1.8,1.1c-0.5-0.3-1.1-0.5-1.6-0.7l-0.5-2.1C16.5,0.3,16.2,0,15.8,0h-4.6c-0.4,0-0.7,0.3-0.8,0.6L10,2.7
		C9.4,2.9,8.9,3.1,8.4,3.4L6.6,2.2C6.3,2,5.8,2.1,5.6,2.3L2.3,5.6C2.1,5.8,2,6.3,2.2,6.6l1.1,1.8C3.1,8.9,2.9,9.4,2.7,10l-2.1,0.5
		C0.3,10.5,0,10.8,0,11.2v4.6c0,0.4,0.3,0.7,0.6,0.8L2.7,17c0.2,0.6,0.4,1.1,0.7,1.6l-1.1,1.8c-0.2,0.3-0.2,0.7,0.1,1l3.2,3.2
		c0.3,0.3,0.7,0.3,1,0.1l1.8-1.1c0.5,0.3,1.1,0.5,1.6,0.7l0.5,2.1c0.1,0.4,0.4,0.6,0.8,0.6h4.6c0.4,0,0.7-0.3,0.8-0.6l0.5-2.1
		c0.6-0.2,1.1-0.4,1.6-0.7l1.8,1.1c0.3,0.2,0.7,0.2,1-0.1l3.2-3.2c0.3-0.3,0.3-0.7,0.1-1l-1.1-1.8c0.3-0.5,0.5-1.1,0.7-1.6l2.1-0.5
		c0.4-0.1,0.6-0.4,0.6-0.8v-4.6C27,10.8,26.7,10.5,26.4,10.4z M25.4,15.1l-1.9,0.4c-0.3,0.1-0.5,0.3-0.6,0.6
		c-0.2,0.8-0.5,1.5-0.9,2.2c-0.1,0.3-0.1,0.6,0,0.8l1.1,1.6l-2.3,2.3L19.1,22c-0.3-0.2-0.6-0.2-0.8,0c-0.7,0.4-1.4,0.7-2.2,0.9
		c-0.3,0.1-0.5,0.3-0.6,0.6l-0.4,1.9h-3.3l-0.4-1.9c-0.1-0.3-0.3-0.5-0.6-0.6c-0.8-0.2-1.5-0.5-2.2-0.9c-0.3-0.1-0.6-0.1-0.8,0
		l-1.6,1.1l-2.3-2.3L5,19.1c0.2-0.3,0.2-0.6,0-0.8c-0.4-0.7-0.7-1.4-0.9-2.2c-0.1-0.3-0.3-0.5-0.6-0.6l-1.9-0.4v-3.3l1.9-0.4
		c0.3-0.1,0.5-0.3,0.6-0.6C4.3,10.1,4.6,9.4,5,8.7c0.1-0.3,0.1-0.6,0-0.8L3.9,6.3l2.3-2.3L7.9,5c0.3,0.2,0.6,0.2,0.8,0
		c0.7-0.4,1.4-0.7,2.2-0.9c0.3-0.1,0.5-0.3,0.6-0.6l0.4-1.9h3.3l0.4,1.9c0.1,0.3,0.3,0.5,0.6,0.6c0.8,0.2,1.5,0.5,2.2,0.9
		c0.3,0.1,0.6,0.1,0.8,0l1.6-1.1l2.3,2.3L22,7.9c-0.2,0.3-0.2,0.6,0,0.8c0.4,0.7,0.7,1.4,0.9,2.2c0.1,0.3,0.3,0.5,0.6,0.6l1.9,0.4
		L25.4,15.1z"/>
</g>
</svg>
