<svg xmlns="http://www.w3.org/2000/svg" id="prefix__Group_1085" width="24" height="24" data-name="Group 1085" viewBox="0 0 24 24">
    <path id="prefix__Path_2247" d="M0 0h24v24H0z" data-name="Path 2247" style="fill:none"/>
    <path id="prefix__Path_2248" d="M15 11V4H4v8.17l.59-.58.58-.59H15z" data-name="Path 2248" style="opacity:.3;isolation:isolate;fill:#449c63"/>
    <path id="prefix__Path_2249" d="M21 6h-2v9H6v2a1 1 0 0 0 1 1h11l4 4V7a1 1 0 0 0-1-1zm-5 7a1 1 0 0 0 1-1V3a1 1 0 0 0-1-1H3a1 1 0 0 0-1 1v14l4-4zM4.59 11.59l-.59.58V4h11v7H5.17z" data-name="Path 2249" style="fill:#449c63"/>
</svg>
