<svg xmlns="http://www.w3.org/2000/svg" width="24.003" height="24.003" viewBox="0 0 24.003 24.003">
    <g id="prefix__Group_532" data-name="Group 532" transform="translate(0 -.002)">
        <path id="prefix__Path_737" d="M25.32 158.983v-6.751a4.713 4.713 0 0 1 4.718-4.688h-2.72a4.688 4.688 0 0 0-4.688 4.688v6.751a4.688 4.688 0 0 0 4.688 4.688h2.719a4.713 4.713 0 0 1-4.717-4.688z" data-name="Path 737" transform="translate(-21.569 -140.625)" style="fill:#cee1f2"/>
        <path id="prefix__Path_738" d="M11.861 146H5.626A5.632 5.632 0 0 1 0 140.378v-6.751A5.632 5.632 0 0 1 5.626 128h12.751A5.632 5.632 0 0 1 24 133.627v.609a.938.938 0 1 1-1.875 0v-.609a3.755 3.755 0 0 0-3.75-3.75H5.626a3.755 3.755 0 0 0-3.75 3.75v6.751a3.755 3.755 0 0 0 3.75 3.75h6.235a.938.938 0 0 1 0 1.875zm.563-7.266a.938.938 0 0 0-.938-.938H9.7a3.238 3.238 0 0 1-3.235-3.235.938.938 0 0 0-1.875 0c0 2.818 2.292 5.11 6.892 5.11a.938.938 0 0 0 .941-.934zm-1.594-4.594z" data-name="Path 738" transform="translate(0 -121.998)" style="fill:#1e3574"/>
        <path id="prefix__Path_739" d="M166.672 1.877h-2.438a1.361 1.361 0 0 0-1.36 1.36.938.938 0 0 1-1.875 0A3.238 3.238 0 0 1 164.234 0h2.438a3.238 3.238 0 0 1 3.235 3.235.938.938 0 0 1-1.875 0 1.361 1.361 0 0 0-1.36-1.358zm10.649 19.375a.937.937 0 0 1-1.286.322l-.636-.382a3.984 3.984 0 0 1-1.882 1.059v.816a.938.938 0 1 1-1.875 0v-.816a3.984 3.984 0 0 1-1.916-1.095l-.7.417a.938.938 0 1 1-.965-1.608l.7-.422a3.984 3.984 0 0 1 0-2.33l-.7-.422a.938.938 0 0 1 .965-1.608l.7.417a3.984 3.984 0 0 1 1.916-1.095v-.816a.938.938 0 1 1 1.875 0v.816a3.984 3.984 0 0 1 1.882 1.059l.636-.382a.938.938 0 0 1 .965 1.61l-.625.375a3.979 3.979 0 0 1 0 2.424l.625.375a.938.938 0 0 1 .322 1.286zm-2.632-2.873a2.11 2.11 0 1 0-2.11 2.11 2.112 2.112 0 0 0 2.109-2.11z" data-name="Path 739" transform="translate(-153.451)" style="fill:#47afaf"/>
    </g>
</svg>
