<svg xmlns="http://www.w3.org/2000/svg" id="prefix__Group_1079" width="24" height="24" data-name="Group 1079" viewBox="0 0 24 24">
    <path id="prefix__Path_2238" d="M0 0h24v24H0z" data-name="Path 2238" style="fill:none"/>
    <path id="prefix__Path_2239" d="M12.07 6.01a7 7 0 1 0 7 7 6.995 6.995 0 0 0-7-7zm1 8h-2v-6h2z" data-name="Path 2239" style="fill:#fdb34e;opacity:.3;isolation:isolate"/>
    <path id="prefix__Path_2240" d="M9.07 1.01h6v2h-6zm2 7h2v6h-2zm8.03-.62l1.42-1.42a11.048 11.048 0 0 0-1.41-1.41l-1.42 1.42a9 9 0 1 0 1.41 1.41zm-7.03 12.62a7 7 0 1 1 7-7 6.995 6.995 0 0 1-7 7z" data-name="Path 2240" style="fill:#ffca81"/>
</svg>
