<svg xmlns="http://www.w3.org/2000/svg" id="prefix__Group_1083" width="24" height="24" data-name="Group 1083" viewBox="0 0 24 24">
    <defs>
        <style>
            .prefix__cls-3{fill:#ff8b8b}
        </style>
    </defs>
    <g id="prefix__Group_1080" data-name="Group 1080">
        <path id="prefix__Rectangle_2132" d="M0 0H24V24H0z" data-name="Rectangle 2132" style="fill:none"/>
    </g>
    <g id="prefix__Group_1082" data-name="Group 1082">
        <g id="prefix__Group_1081" data-name="Group 1081">
            <path id="prefix__Path_2241" d="M8.1 14.15A4.01 4.01 0 0 1 11 18a4.056 4.056 0 0 1-.48 1.87 7.966 7.966 0 0 0 5.61-1.01A12.125 12.125 0 0 1 9.33 13a11.529 11.529 0 0 1-1.04-8.1 7.966 7.966 0 0 0-4.3 7.1h.02a5 5 0 0 1 4.09 2.15z" data-name="Path 2241" style="opacity:.3;isolation:isolate;fill:#ff8b8b"/>
            <path id="prefix__Path_2242" d="M19.78 17.51a10.013 10.013 0 0 1-8.15-15.5A10 10 0 0 0 1.98 12c0 .14.02.28.02.42A5.052 5.052 0 0 1 3.98 12a7.966 7.966 0 0 1 4.3-7.1A11.639 11.639 0 0 0 9.32 13a12.088 12.088 0 0 0 6.8 5.86 7.966 7.966 0 0 1-5.61 1.01 3.93 3.93 0 0 1-1.64 1.64 9.99 9.99 0 0 0 11.48-4.02c-.17.01-.37.02-.57.02z" class="prefix__cls-3" data-name="Path 2242"/>
            <path id="prefix__Path_2243" d="M7 16h-.18A3 3 0 1 0 4 20h3a2 2 0 0 0 0-4z" class="prefix__cls-3" data-name="Path 2243"/>
        </g>
    </g>
</svg>
