<?xml version="1.0" encoding="utf-8"?>
<!-- Generator: Adobe Illustrator 23.0.1, SVG Export Plug-In . SVG Version: 6.00 Build 0)  -->
<svg version="1.1" id="Layer_1" xmlns="http://www.w3.org/2000/svg" xmlns:xlink="http://www.w3.org/1999/xlink" x="0px" y="0px"
	 viewBox="0 0 24 24" style="enable-background:new 0 0 24 24;" xml:space="preserve">
<style type="text/css">
	.st0{clip-path:url(#SVGID_2_);}
	.st1{opacity:0.998;}
	.st2{fill:#009CE8;stroke:#009CE8;stroke-width:0.3;}
</style>
<g>
	<defs>
		<rect id="SVGID_1_" width="24" height="24"/>
	</defs>
	<clipPath id="SVGID_2_">
		<use xlink:href="#SVGID_1_"  style="overflow:visible;"/>
	</clipPath>
	<g id="Peer_Chat_Active" class="st0">
		<g id="smile" transform="translate(0.5 -37.995)" class="st1">
			<g id="Group_6" transform="translate(4.12 51.251)">
				<g id="Group_5">
					<path id="Path_20" class="st2" d="M0.8,0.1C0.6,0,0.3,0,0.1,0.1C0,0.3,0,0.6,0.1,0.8s0.5,0.2,0.6,0c0.1-0.1,0.1-0.2,0.1-0.3
						C0.9,0.3,0.9,0.2,0.8,0.1z"/>
				</g>
			</g>
			<g id="Group_8" transform="translate(8.396 51.251)">
				<g id="Group_7">
					<path id="Path_21" class="st2" d="M0.8,0.1C0.6,0,0.3,0,0.1,0.1C0,0.3,0,0.6,0.1,0.8C0.3,1,0.6,1,0.8,0.8
						c0.1-0.1,0.1-0.2,0.1-0.3C0.9,0.3,0.9,0.2,0.8,0.1z"/>
				</g>
			</g>
			<g id="Group_10" transform="translate(4.748 53.858)">
				<g id="Group_9">
					<path id="Path_22" class="st2" d="M3.6,0C3.3,0,3.1,0.1,3,0.3c0,0,0,0,0,0C2.9,0.9,2.3,1.3,1.7,1.1C1.3,1,1,0.7,0.9,0.3
						C0.8,0.1,0.6,0,0.3,0C0.1,0.1,0,0.3,0,0.6C0.3,1.6,1.4,2.3,2.5,2c0.7-0.2,1.3-0.7,1.4-1.4C4,0.3,3.8,0.1,3.6,0
						C3.6,0,3.6,0,3.6,0z"/>
				</g>
			</g>
			<g id="Group_12" transform="translate(11.156 39.995)">
				<g id="Group_11" transform="translate(0 0)">
					<path id="Path_23" class="st2" d="M0.5,0C0.2,0,0,0.2,0,0.5c0,0,0,0,0,0v2.9c0,0.3,0.2,0.5,0.5,0.5c0.3,0,0.5-0.2,0.5-0.5V0.5
						C0.9,0.2,0.7,0,0.5,0C0.5,0,0.5,0,0.5,0z"/>
				</g>
			</g>
			<g id="Group_14" transform="translate(11.156 44.476)">
				<g id="Group_13">
					<path id="Path_24" class="st2" d="M0.8,0.1C0.6,0,0.3,0,0.1,0.1C0,0.3,0,0.6,0.1,0.8C0.3,1,0.6,1,0.8,0.8
						c0.1-0.1,0.1-0.2,0.1-0.3C0.9,0.3,0.9,0.2,0.8,0.1z"/>
				</g>
			</g>
			<g id="Group_16" transform="translate(6.914 42.828)">
				<g id="Group_15" transform="translate(0 0)">
					<path id="Path_25" class="st2" d="M1.9,1.3L0.8,0.1C0.6,0,0.3,0,0.1,0.1C0,0.3,0,0.6,0.1,0.8l1.2,1.2c0.2,0.2,0.5,0.2,0.6,0
						C2.1,1.7,2.1,1.5,1.9,1.3z"/>
				</g>
			</g>
			<g id="Group_18" transform="translate(14.168 42.829)">
				<g id="Group_17" transform="translate(0 0)">
					<path id="Path_26" class="st2" d="M2,0.1C1.8,0,1.5,0,1.4,0.1L0.1,1.4C0,1.5,0,1.8,0.1,2c0.2,0.2,0.5,0.2,0.6,0L2,0.8
						C2.2,0.6,2.2,0.3,2,0.1C2,0.1,2,0.1,2,0.1z"/>
				</g>
			</g>
			<g id="Group_20" transform="translate(0 46.149)">
				<g id="Group_19" transform="translate(0 0)">
					<path id="Path_27" class="st2" d="M23,5c-1-3.6-4.6-5.7-8.2-4.7c-1.2,0.3-2.3,1-3.2,1.9C9.1-0.6,4.8-0.7,2.1,1.8
						s-2.8,6.8-0.3,9.5c2.5,2.7,6.8,2.8,9.5,0.3c0.1-0.1,0.2-0.2,0.3-0.3c2.5,2.7,6.8,2.8,9.5,0.3C22.9,9.9,23.6,7.4,23,5L23,5z
						 M6.7,12.5c-3.2,0-5.8-2.6-5.8-5.8c0-3.2,2.6-5.8,5.8-5.8c1.6,0,3.2,0.7,4.3,1.9c-0.1,0.2-0.2,0.3-0.3,0.5
						C9.4,5.6,9.5,8.5,11,10.6C9.9,11.8,8.4,12.5,6.7,12.5z M18,12.3c-3.1,0.8-6.3-1-7.1-4.1c-0.4-1.5-0.2-3.1,0.6-4.4
						c0.1-0.2,0.3-0.5,0.5-0.7l0,0c2-2.5,5.7-2.9,8.2-0.9S23,7.8,21,10.3C20.3,11.3,19.2,12,18,12.3L18,12.3z"/>
				</g>
			</g>
			<g id="Group_22" transform="translate(13.233 51.243)">
				<g id="Group_21" transform="translate(0 0)">
					<path id="Path_28" class="st2" d="M1.9,0.7C1.8,0.2,1.2-0.1,0.7,0.1C0.2,0.2-0.1,0.7,0,1.2c0.1,0.2,0.3,0.4,0.6,0.3
						C0.8,1.5,1,1.2,0.9,1l0,0c0,0,0-0.1,0.1-0.1c0,0,0.1,0,0.1,0.1c0.1,0.2,0.3,0.4,0.6,0.3C1.9,1.2,2,1,1.9,0.7L1.9,0.7z"/>
				</g>
			</g>
			<g id="Group_24" transform="translate(17.337 50.143)">
				<g id="Group_23" transform="translate(0 0)">
					<path id="Path_29" class="st2" d="M1.9,0.7C1.8,0.2,1.2-0.1,0.7,0.1C0.2,0.2-0.1,0.7,0,1.2c0.1,0.2,0.3,0.4,0.6,0.3
						C0.8,1.5,1,1.2,0.9,1l0,0c0,0,0-0.1,0-0.1c0,0,0.1,0,0.1,0c0,0,0,0,0,0c0.1,0.2,0.3,0.4,0.6,0.3C1.9,1.2,2,1,1.9,0.7L1.9,0.7z"
						/>
				</g>
			</g>
			<g id="Group_26" transform="translate(15.018 53.382)">
				<g id="Group_25" transform="translate(0 0)">
					<path id="Path_30" class="st2" d="M3.9,0.3C3.8,0.1,3.5,0,3.3,0C3.1,0.1,2.9,0.3,3,0.6l0,0c0.2,0.6-0.2,1.2-0.8,1.3
						S1,1.7,0.9,1.1l0,0C0.8,0.9,0.6,0.7,0.3,0.8C0.1,0.9,0,1.1,0,1.4c0.2,0.9,1,1.5,1.9,1.5c1.1,0,2-0.9,2-2
						C3.9,0.7,3.9,0.5,3.9,0.3L3.9,0.3z"/>
				</g>
			</g>
		</g>
	</g>
</g>
</svg>
