<svg xmlns="http://www.w3.org/2000/svg" xmlns:xlink="http://www.w3.org/1999/xlink" width="24" height="24" viewBox="0 0 24 24">
  <defs>
    <clipPath id="clip-Peer_Chat_Inactive">
      <rect width="24" height="24"/>
    </clipPath>
  </defs>
  <g id="Peer_Chat_Inactive" data-name="Peer Chat Inactive" clip-path="url(#clip-Peer_Chat_Inactive)">
    <g id="smile" transform="translate(0.5 -37.995)" opacity="0.998">
      <g id="Group_6" data-name="Group 6" transform="translate(4.12 51.251)">
        <g id="Group_5" data-name="Group 5">
          <path id="Path_20" data-name="Path 20" d="M91.669,288.459a.454.454,0,1,0,.133.321A.456.456,0,0,0,91.669,288.459Z" transform="translate(-90.895 -288.326)" fill="#757776" stroke="#757776" stroke-width="0.3"/>
        </g>
      </g>
      <g id="Group_8" data-name="Group 8" transform="translate(8.396 51.251)">
        <g id="Group_7" data-name="Group 7">
          <path id="Path_21" data-name="Path 21" d="M186.014,288.459a.454.454,0,1,0,.133.321A.457.457,0,0,0,186.014,288.459Z" transform="translate(-185.24 -288.326)" fill="#757776" stroke="#757776" stroke-width="0.3"/>
        </g>
      </g>
      <g id="Group_10" data-name="Group 10" transform="translate(4.748 53.858)">
        <g id="Group_9" data-name="Group 9">
          <path id="Path_22" data-name="Path 22" d="M108.344,345.867a.453.453,0,0,0-.555.321,1.109,1.109,0,0,1-2.144,0,.453.453,0,1,0-.876.234,2.016,2.016,0,0,0,3.9,0A.454.454,0,0,0,108.344,345.867Z" transform="translate(-104.754 -345.851)" fill="#757776" stroke="#757776" stroke-width="0.3"/>
        </g>
      </g>
      <g id="Group_12" data-name="Group 12" transform="translate(11.156 39.995)">
        <g id="Group_11" data-name="Group 11" transform="translate(0 0)">
          <path id="Path_23" data-name="Path 23" d="M246.569,39.995a.453.453,0,0,0-.453.453v2.879a.453.453,0,1,0,.907,0V40.448A.453.453,0,0,0,246.569,39.995Z" transform="translate(-246.116 -39.995)" fill="#757776" stroke="#757776" stroke-width="0.3"/>
        </g>
      </g>
      <g id="Group_14" data-name="Group 14" transform="translate(11.156 44.476)">
        <g id="Group_13" data-name="Group 13">
          <path id="Path_24" data-name="Path 24" d="M246.9,139a.453.453,0,1,0,.133.321A.455.455,0,0,0,246.9,139Z" transform="translate(-246.121 -138.864)" fill="#757776" stroke="#757776" stroke-width="0.3"/>
        </g>
      </g>
      <g id="Group_16" data-name="Group 16" transform="translate(6.914 42.828)">
        <g id="Group_15" data-name="Group 15" transform="translate(0 0)">
          <path id="Path_25" data-name="Path 25" d="M154.465,103.792l-1.158-1.157a.453.453,0,1,0-.641.642l1.158,1.157a.454.454,0,0,0,.641-.642Z" transform="translate(-152.534 -102.503)" fill="#757776" stroke="#757776" stroke-width="0.3"/>
        </g>
      </g>
      <g id="Group_18" data-name="Group 18" transform="translate(14.168 42.829)">
        <g id="Group_17" data-name="Group 17" transform="translate(0 0)">
          <path id="Path_26" data-name="Path 26" d="M314.574,102.661a.454.454,0,0,0-.641,0l-1.231,1.232a.453.453,0,1,0,.642.641l1.231-1.232A.453.453,0,0,0,314.574,102.661Z" transform="translate(-312.569 -102.528)" fill="#757776" stroke="#757776" stroke-width="0.3"/>
        </g>
      </g>
      <g id="Group_20" data-name="Group 20" transform="translate(0 46.149)">
        <g id="Group_19" data-name="Group 19" transform="translate(0 0)">
          <path id="Path_27" data-name="Path 27" d="M22.978,180.75A6.715,6.715,0,0,0,11.6,177.892a6.712,6.712,0,1,0,.005,9.191,6.711,6.711,0,0,0,11.372-6.333ZM6.712,188.295a5.8,5.8,0,1,1,4.31-9.693q-.18.255-.339.529a6.713,6.713,0,0,0,.342,7.244A5.778,5.778,0,0,1,6.712,188.295Zm11.286-.2a5.8,5.8,0,0,1-6.529-8.509,5.889,5.889,0,0,1,.476-.7l.021-.027A5.805,5.805,0,1,1,18,188.094Z" transform="translate(0 -175.775)" fill="#757776" stroke="#757776" stroke-width="0.3"/>
        </g>
      </g>
      <g id="Group_22" data-name="Group 22" transform="translate(13.233 51.243)">
        <g id="Group_21" data-name="Group 21" transform="translate(0 0)">
          <path id="Path_28" data-name="Path 28" d="M293.876,288.891a.984.984,0,0,0-1.9.509.453.453,0,1,0,.876-.235.077.077,0,0,1,.054-.094.077.077,0,0,1,.094.054.453.453,0,0,0,.876-.235Z" transform="translate(-291.942 -288.161)" fill="#757776" stroke="#757776" stroke-width="0.3"/>
        </g>
      </g>
      <g id="Group_24" data-name="Group 24" transform="translate(17.337 50.143)">
        <g id="Group_23" data-name="Group 23" transform="translate(0 0)">
          <path id="Path_29" data-name="Path 29" d="M384.433,264.618a.984.984,0,0,0-1.9.509.453.453,0,0,0,.876-.235.077.077,0,1,1,.148-.04.454.454,0,0,0,.876-.235Z" transform="translate(-382.499 -263.889)" fill="#757776" stroke="#757776" stroke-width="0.3"/>
        </g>
      </g>
      <g id="Group_26" data-name="Group 26" transform="translate(15.018 53.382)">
        <g id="Group_25" data-name="Group 25" transform="translate(0 0)">
          <path id="Path_30" data-name="Path 30" d="M335.178,335.678a.453.453,0,1,0-.876.235,1.081,1.081,0,1,1-2.089.56.453.453,0,1,0-.876.235,1.991,1.991,0,0,0,1.917,1.475,1.991,1.991,0,0,0,1.924-2.5Z" transform="translate(-331.322 -335.341)" fill="#757776" stroke="#757776" stroke-width="0.3"/>
        </g>
      </g>
    </g>
  </g>
</svg>
