<svg id="Group_528" data-name="Group 528" xmlns="http://www.w3.org/2000/svg" width="24" height="24" viewBox="0 0 24 24">
  <path id="Path_725" data-name="Path 725" d="M22.859,37.438V24.688A4.687,4.687,0,0,1,27.547,20H24.688A4.687,4.687,0,0,0,20,24.688v12.75a4.687,4.687,0,0,0,4.688,4.688h2.859A4.687,4.687,0,0,1,22.859,37.438Z" transform="translate(-19.063 -19.063)" fill="#cee1f2"/>
  <path id="Path_726" data-name="Path 726" d="M18.375,24H5.625A5.631,5.631,0,0,1,0,18.375V5.625A5.631,5.631,0,0,1,5.625,0h12.75A5.631,5.631,0,0,1,24,5.625v12.75A5.631,5.631,0,0,1,18.375,24ZM5.625,1.875a3.754,3.754,0,0,0-3.75,3.75v12.75a3.754,3.754,0,0,0,3.75,3.75h12.75a3.754,3.754,0,0,0,3.75-3.75V5.625a3.754,3.754,0,0,0-3.75-3.75ZM9.891,4.734A.937.937,0,0,0,8.953,3.8H5.016a.938.938,0,0,0,0,1.875H8.953A.937.937,0,0,0,9.891,4.734Zm8.578,10.922a.937.937,0,0,0-.937-.937H9.7a.938.938,0,0,0,0,1.875h7.828A.937.937,0,0,0,18.469,15.656Zm1.266,3.656a.937.937,0,0,0-.937-.937H16.734a.938.938,0,0,0,0,1.875H18.8A.937.937,0,0,0,19.734,19.313Z" fill="#0178d4"/>
  <path id="Path_727" data-name="Path 727" d="M139.984,164.484h-6.609a.938.938,0,0,1,0-1.875h6.609a.938.938,0,0,1,0,1.875Zm-2.344-4.547A.937.937,0,0,0,136.7,159h-8.766a.938.938,0,0,0,0,1.875H136.7A.937.937,0,0,0,137.641,159.938Z" transform="translate(-121.047 -151.547)" fill="#0095de"/>
</svg>
