<svg id="Group_529" data-name="Group 529" xmlns="http://www.w3.org/2000/svg" width="24" height="24" viewBox="0 0 24 24">
  <path id="Path_728" data-name="Path 728" d="M22.812,37.437V24.687A4.687,4.687,0,0,1,27.5,20l9.935.01,0-.01H24.687A4.687,4.687,0,0,0,20,24.687v12.75a4.687,4.687,0,0,0,4.687,4.687l2.44-.015A4.688,4.688,0,0,1,22.812,37.437Z" transform="translate(-19.063 -19.063)" fill="#cee1f2"/>
  <path id="Path_729" data-name="Path 729" d="M13.406,24H5.625A5.631,5.631,0,0,1,0,18.375V5.625A5.631,5.631,0,0,1,5.625,0h12.75A5.631,5.631,0,0,1,24,5.625v7.687a.937.937,0,0,1-1.875,0V5.625a3.754,3.754,0,0,0-3.75-3.75H5.625a3.754,3.754,0,0,0-3.75,3.75v12.75a3.754,3.754,0,0,0,3.75,3.75h7.781a.937.937,0,1,1,0,1.875ZM20.25,6.047a.937.937,0,0,0-.937-.937H4.687a.937.937,0,0,0,0,1.875H19.312A.937.937,0,0,0,20.25,6.047Zm-2.578,15.14V18.562a.939.939,0,0,1,.937-.937h2.672a.937.937,0,0,0,0-1.875H18.609A2.816,2.816,0,0,0,15.8,18.562v2.625a.937.937,0,0,0,1.875,0Zm6.053,2.538a.937.937,0,0,0,0-1.326l-3.094-3.094a.937.937,0,0,0-1.326,1.326L22.4,23.725a.937.937,0,0,0,1.326,0Z" fill="#0178d4"/>
  <path id="Path_730" data-name="Path 730" d="M205.292,219.094a2.472,2.472,0,0,0-2.578-2.344c-.454,0-.8-.2-.8-.469a.469.469,0,0,1,.469-.469,3.7,3.7,0,0,1,1.441.311.937.937,0,0,0,.68-1.747,7.521,7.521,0,0,0-.809-.266v-.173a.937.937,0,1,0-1.875,0v.069a2.348,2.348,0,0,0-1.781,2.275,2.468,2.468,0,0,0,2.672,2.344c.4,0,.7.252.7.469a.535.535,0,0,1-.539.469,4.975,4.975,0,0,1-1.6-.356.937.937,0,0,0-.693,1.742,7.309,7.309,0,0,0,1.237.366v.122a.937.937,0,1,0,1.875,0v-.145a2.386,2.386,0,0,0,1.594-2.2Z" transform="translate(-190.621 -203.016)" fill="#0095de"/>
</svg>
