<svg xmlns="http://www.w3.org/2000/svg" id="prefix__Group_1391" width="89" height="89" data-name="Group 1391" viewBox="0 0 89 89">
    <g id="prefix__Group_923" data-name="Group 923" style="opacity:.104">
        <circle id="prefix__Ellipse_353" cx="44.5" cy="44.5" r="44.5" data-name="Ellipse 353" style="fill:#11cdef"/>
    </g>
    <path id="prefix__Path_2192" d="M38.862 30.539V27.93a12.356 12.356 0 0 0-24.711 0v2.609a4.286 4.286 0 0 0-2.644 3.954v3.631a4.27 4.27 0 0 0 5.284 4.158l.6-.144V30.479l-.6-.144a4.294 4.294 0 0 0-1-.123h-.078V27.93a10.8 10.8 0 0 1 21.594 0v2.286h-.078a4.294 4.294 0 0 0-1 .123l-.6.144v11.655l.6.144a4.27 4.27 0 0 0 5.284-4.158v-3.631a4.286 4.286 0 0 0-2.651-3.954zm-23.033 1.232v9.073a2.732 2.732 0 0 1-2.764-2.721v-3.63a2.725 2.725 0 0 1 2.722-2.721zm24.119 6.352a2.723 2.723 0 0 1-2.764 2.721v-9.073a2.719 2.719 0 0 1 2.764 2.721z" data-name="Path 2192" transform="translate(17.379 15.406)" style="fill:#2bb4c6;stroke:#2bb4c6;stroke-width:.2px"/>
</svg>
