<?xml version="1.0" encoding="utf-8"?>
<!-- Generator: Adobe Illustrator 23.0.1, SVG Export Plug-In . SVG Version: 6.00 Build 0)  -->
<svg version="1.1" id="Layer_1" xmlns="http://www.w3.org/2000/svg" xmlns:xlink="http://www.w3.org/1999/xlink" x="0px" y="0px"
	 viewBox="0 0 72 72" style="enable-background:new 0 0 72 72;" xml:space="preserve">
<style type="text/css">
	.st0{clip-path:url(#SVGID_2_);}
	.st1{fill:#009CE8;}
	.st2{fill:#FFFFFF;stroke:#FFFFFF;stroke-width:0.2;}
</style>
<g>
	<defs>
		<rect id="SVGID_1_" width="72" height="72"/>
	</defs>
	<clipPath id="SVGID_2_">
		<use xlink:href="#SVGID_1_"  style="overflow:visible;"/>
	</clipPath>
	<g id="Reports" class="st0">
		<g id="Group_1292" transform="translate(3 -4)">
			<g id="Group_1284" transform="translate(20533 22350)">
				<path id="Rectangle_2027" class="st1" d="M-20519-22342h39c7.7,0,14,6.3,14,14l0,0v50l0,0h-53c-7.7,0-14-6.3-14-14v-36
					C-20533-22335.7-20526.7-22342-20519-22342z"/>
			</g>
			<g id="Group_1286" transform="translate(-18.5 -711.016)">
				<path id="Path_751" class="st2" d="M64.6,743.3c-0.3-1.6-1.9-2.6-3.4-2.2s-2.6,1.9-2.2,3.4c0.2,0.8,0.6,1.4,1.3,1.8l-3.5,7.1
					c-0.1,0-0.3,0-0.4,0c-0.2,0-0.4,0-0.6,0.1c-0.3,0.1-0.6,0.2-0.9,0.4l-5.8-5.4c0.4-0.6,0.5-1.4,0.4-2.1c-0.3-1.6-1.9-2.5-3.4-2.2
					c-1.6,0.3-2.5,1.9-2.2,3.4c0.2,0.7,0.6,1.4,1.2,1.8l-3.2,7c-0.1,0-0.2,0-0.4,0c-0.2,0-0.4,0-0.6,0.1c-1.6,0.3-2.5,1.9-2.2,3.4
					c0,0,0,0,0,0c0.3,1.6,1.9,2.5,3.4,2.2c0,0,0,0,0,0c1.6-0.3,2.5-1.9,2.2-3.4c-0.1-0.7-0.6-1.3-1.1-1.7l3.2-7.1c0.1,0,0.2,0,0.3,0
					c0.5,0,1-0.1,1.4-0.4l5.9,5.4c-0.4,0.6-0.5,1.3-0.3,2c0.3,1.6,1.9,2.5,3.4,2.2c0,0,0,0,0,0c1.6-0.3,2.5-1.9,2.2-3.4
					c-0.1-0.7-0.5-1.3-1.1-1.7l3.5-7.2c0.1,0,0.1,0,0.2,0c0.2,0,0.4,0,0.6-0.1C63.9,746.4,64.9,744.9,64.6,743.3
					C64.6,743.3,64.6,743.3,64.6,743.3z M42.6,759.9c-0.2,0.3-0.5,0.6-0.9,0.6c-0.8,0.2-1.6-0.3-1.8-1.1c0,0,0,0,0,0
					c-0.2-0.8,0.3-1.6,1.1-1.8c0,0,0,0,0,0c0.8-0.2,1.6,0.3,1.8,1.1c0,0,0,0,0,0C42.9,759.2,42.8,759.6,42.6,759.9z M46.8,748.3
					c-0.8,0.2-1.6-0.3-1.8-1.1c-0.2-0.8,0.3-1.6,1.1-1.8c0.8-0.2,1.6,0.3,1.8,1.1C48.1,747.3,47.6,748.1,46.8,748.3
					C46.8,748.3,46.8,748.3,46.8,748.3L46.8,748.3z M57.5,757c-0.2,0.3-0.5,0.6-0.9,0.6c-0.8,0.2-1.6-0.3-1.8-1.1
					c-0.2-0.8,0.3-1.6,1.1-1.8c0,0,0,0,0,0c0.8-0.2,1.6,0.3,1.8,1.1c0,0,0,0,0,0C57.8,756.3,57.8,756.7,57.5,757z M62.1,745.3
					c-0.8,0.2-1.6-0.3-1.8-1.1s0.3-1.6,1.1-1.8c0.8-0.2,1.6,0.3,1.8,1.1c0,0,0,0,0,0C63.4,744.4,62.9,745.2,62.1,745.3z"/>
			</g>
		</g>
	</g>
</g>
</svg>
