<svg xmlns="http://www.w3.org/2000/svg" xmlns:xlink="http://www.w3.org/1999/xlink" width="48" height="48" viewBox="0 0 48 48">
  <defs>
    <clipPath id="clip-Reports">
      <rect width="48" height="48"/>
    </clipPath>
  </defs>
  <g id="Reports" clip-path="url(#clip-Reports)">
    <path id="Path_2298" data-name="Path 2298" d="M38.694,22.271a2.878,2.878,0,1,0-4.373,3.014l-3.481,7.076a2.8,2.8,0,0,0-.414-.033,2.914,2.914,0,0,0-.6.064,2.866,2.866,0,0,0-.915.371l-5.829-5.39a2.86,2.86,0,0,0,.385-2.142,2.877,2.877,0,1,0-4.425,2.982L15.88,35.249a2.837,2.837,0,0,0-.375-.028,2.913,2.913,0,0,0-.6.064A2.878,2.878,0,0,0,12.688,38.7,2.874,2.874,0,0,0,16.1,40.912a2.871,2.871,0,0,0,1.076-5.144L20.355,28.7a2.875,2.875,0,0,0,.291.016,2.891,2.891,0,0,0,1.417-.371l5.873,5.428a2.855,2.855,0,0,0-.326,2.039,2.876,2.876,0,0,0,3.416,2.212,2.871,2.871,0,0,0,1.109-5.12l3.52-7.159c.074.006.148.01.223.01a2.912,2.912,0,0,0,.6-.064A2.881,2.881,0,0,0,38.694,22.271ZM16.744,38.9a1.467,1.467,0,0,1-.932.642,1.474,1.474,0,0,1-1.755-1.136,1.478,1.478,0,0,1,1.137-1.755,1.474,1.474,0,0,1,1.755,1.136A1.472,1.472,0,0,1,16.744,38.9Zm4.215-11.623A1.5,1.5,0,0,1,19.2,26.143a1.479,1.479,0,1,1,1.755,1.136ZM31.666,36.01a1.47,1.47,0,0,1-.932.642,1.5,1.5,0,0,1-1.755-1.137,1.478,1.478,0,0,1,1.137-1.755A1.474,1.474,0,0,1,31.871,34.9,1.469,1.469,0,0,1,31.666,36.01ZM36.19,24.319a1.479,1.479,0,1,1,1.137-1.755A1.481,1.481,0,0,1,36.19,24.319Z" transform="translate(-2.124 -5.995)" fill="#606060" stroke="#606060" stroke-width="0.2"/>
  </g>
</svg>
