<?xml version="1.0" encoding="utf-8"?>
<!-- Generator: Adobe Illustrator 23.0.1, SVG Export Plug-In . SVG Version: 6.00 Build 0)  -->
<svg version="1.1" id="Layer_1" xmlns="http://www.w3.org/2000/svg" xmlns:xlink="http://www.w3.org/1999/xlink" x="0px" y="0px"
	 viewBox="0 0 72 72" style="enable-background:new 0 0 72 72;" xml:space="preserve">
<style type="text/css">
	.st0{clip-path:url(#SVGID_2_);}
	.st1{fill:#009CE8;}
	.st2{fill:#FFFFFF;}
</style>
<g>
	<defs>
		<rect id="SVGID_1_" width="72" height="72"/>
	</defs>
	<clipPath id="SVGID_2_">
		<use xlink:href="#SVGID_1_"  style="overflow:visible;"/>
	</clipPath>
	<g id="Settings" class="st0">
		<g id="Group_1284" transform="translate(20536 22345)">
			<path id="Rectangle_2027" class="st1" d="M-20519-22342h39c7.7,0,14,6.3,14,14l0,0v50l0,0h-53c-7.7,0-14-6.3-14-14v-36
				C-20533-22335.7-20526.7-22342-20519-22342z"/>
		</g>
		<g id="gear" transform="translate(23 23)">
			<path id="Path_15" class="st2" d="M13.1,6.8c-3.5,0-6.3,2.8-6.3,6.3s2.8,6.3,6.3,6.3s6.3-2.8,6.3-6.3C19.4,9.6,16.6,6.8,13.1,6.8
				z M13.1,17.8c-2.6,0-4.7-2.1-4.7-4.7s2.1-4.7,4.7-4.7c2.6,0,4.7,2.1,4.7,4.7l0,0C17.8,15.7,15.7,17.8,13.1,17.8z"/>
			<path id="Path_16" class="st2" d="M25.6,10.1l-2-0.4c-0.2-0.5-0.4-1.1-0.6-1.6L24,6.4c0.2-0.3,0.2-0.7-0.1-1l-3.1-3.1
				c-0.3-0.3-0.7-0.3-1-0.1l-1.7,1.1c-0.5-0.3-1-0.5-1.6-0.6l-0.4-2C16,0.3,15.7,0,15.3,0h-4.4c-0.4,0-0.7,0.3-0.8,0.6l-0.4,2
				C9.1,2.8,8.6,3,8.1,3.3L6.4,2.2C6.1,2,5.7,2,5.4,2.3L2.3,5.4C2,5.7,2,6.1,2.2,6.4l1.1,1.7C3,8.6,2.8,9.1,2.6,9.7l-2,0.4
				C0.3,10.2,0,10.5,0,10.9v4.4c0,0.4,0.3,0.7,0.6,0.8l2,0.4c0.2,0.5,0.4,1.1,0.6,1.6l-1.1,1.7c-0.2,0.3-0.2,0.7,0.1,1l3.1,3.1
				c0.3,0.3,0.7,0.3,1,0.1l1.7-1.1c0.5,0.3,1,0.5,1.6,0.6l0.4,2c0.1,0.4,0.4,0.6,0.8,0.6h4.4c0.4,0,0.7-0.3,0.8-0.6l0.4-2
				c0.5-0.2,1.1-0.4,1.6-0.6l1.7,1.1c0.3,0.2,0.7,0.2,1-0.1l3.1-3.1c0.3-0.3,0.3-0.7,0.1-1l-1.1-1.7c0.3-0.5,0.5-1,0.6-1.6l2-0.4
				c0.4-0.1,0.6-0.4,0.6-0.8v-4.4C26.2,10.5,25.9,10.2,25.6,10.1z M24.6,14.7l-1.8,0.4c-0.3,0.1-0.5,0.3-0.6,0.6
				c-0.2,0.7-0.5,1.4-0.9,2.1c-0.1,0.3-0.1,0.6,0,0.8l1,1.6l-2.2,2.2l-1.6-1c-0.2-0.2-0.6-0.2-0.8,0c-0.7,0.4-1.4,0.7-2.1,0.9
				c-0.3,0.1-0.5,0.3-0.6,0.6l-0.4,1.8h-3.2l-0.4-1.8c-0.1-0.3-0.3-0.5-0.6-0.6c-0.7-0.2-1.4-0.5-2.1-0.9c-0.3-0.1-0.6-0.1-0.8,0
				l-1.6,1l-2.2-2.2l1-1.6C5,18.3,5,18,4.9,17.7c-0.4-0.7-0.7-1.4-0.9-2.1c-0.1-0.3-0.3-0.5-0.6-0.6l-1.8-0.4v-3.2l1.8-0.4
				c0.3-0.1,0.5-0.3,0.6-0.6c0.2-0.7,0.5-1.4,0.9-2.1C5,8.2,5,7.9,4.8,7.7l-1-1.6l2.2-2.2l1.6,1C7.9,5,8.2,5,8.5,4.9
				C9.1,4.5,9.8,4.2,10.6,4c0.3-0.1,0.5-0.3,0.6-0.6l0.4-1.8h3.2l0.4,1.8c0.1,0.3,0.3,0.5,0.6,0.6c0.7,0.2,1.4,0.5,2.1,0.9
				C18,5,18.3,5,18.5,4.8l1.6-1l2.2,2.2l-1,1.6c-0.2,0.2-0.2,0.6,0,0.8c0.4,0.7,0.7,1.4,0.9,2.1c0.1,0.3,0.3,0.5,0.6,0.6l1.8,0.4
				L24.6,14.7z"/>
		</g>
	</g>
</g>
</svg>
