<svg xmlns="http://www.w3.org/2000/svg" xmlns:xlink="http://www.w3.org/1999/xlink" width="48" height="48" viewBox="0 0 48 48">
  <defs>
    <clipPath id="clip-Settings">
      <rect width="48" height="48"/>
    </clipPath>
  </defs>
  <g id="Settings" clip-path="url(#clip-Settings)">
    <g id="gear" transform="translate(11 11)">
      <path id="Path_15" data-name="Path 15" d="M139.872,133.609a6.263,6.263,0,1,0,6.263,6.263A6.27,6.27,0,0,0,139.872,133.609Zm0,10.96a4.7,4.7,0,1,1,4.7-4.7A4.7,4.7,0,0,1,139.872,144.569Zm0,0" transform="translate(-126.772 -126.772)" fill="#606060"/>
      <path id="Path_16" data-name="Path 16" d="M25.584,10.117,23.57,9.679a10.959,10.959,0,0,0-.648-1.563l1.115-1.734a.783.783,0,0,0-.1-.977L20.795,2.268a.783.783,0,0,0-.977-.1L18.084,3.278a10.959,10.959,0,0,0-1.563-.648L16.083.616A.783.783,0,0,0,15.318,0H10.882a.783.783,0,0,0-.765.616L9.679,2.63a10.959,10.959,0,0,0-1.563.648L6.382,2.163a.783.783,0,0,0-.977.1L2.268,5.405a.783.783,0,0,0-.1.977L3.278,8.116A10.959,10.959,0,0,0,2.63,9.679l-2.014.438A.783.783,0,0,0,0,10.882v4.436a.783.783,0,0,0,.616.765l2.014.438a10.959,10.959,0,0,0,.648,1.563L2.163,19.818a.783.783,0,0,0,.1.977l3.137,3.137a.783.783,0,0,0,.977.1l1.734-1.115a10.959,10.959,0,0,0,1.563.648l.438,2.014a.783.783,0,0,0,.765.616h4.436a.783.783,0,0,0,.765-.616l.438-2.014a10.959,10.959,0,0,0,1.563-.648l1.734,1.115a.783.783,0,0,0,.977-.1l3.137-3.137a.783.783,0,0,0,.1-.977l-1.115-1.734a10.959,10.959,0,0,0,.648-1.563l2.014-.438a.783.783,0,0,0,.616-.765V10.882A.783.783,0,0,0,25.584,10.117Zm-.949,4.57-1.846.4a.783.783,0,0,0-.588.555,9.393,9.393,0,0,1-.867,2.092.783.783,0,0,0,.023.808l1.022,1.59-2.245,2.245-1.591-1.022a.782.782,0,0,0-.808-.023,9.4,9.4,0,0,1-2.092.867.783.783,0,0,0-.555.588l-.4,1.846H11.513l-.4-1.846a.783.783,0,0,0-.555-.588,9.393,9.393,0,0,1-2.092-.867.783.783,0,0,0-.808.023l-1.59,1.022L3.822,20.134l1.022-1.59a.783.783,0,0,0,.023-.808A9.4,9.4,0,0,1,4,15.643a.783.783,0,0,0-.588-.555l-1.847-.4V11.513l1.846-.4A.783.783,0,0,0,4,10.557a9.393,9.393,0,0,1,.867-2.092.783.783,0,0,0-.023-.808L3.822,6.066,6.066,3.822,7.657,4.844a.782.782,0,0,0,.808.023A9.4,9.4,0,0,1,10.557,4a.783.783,0,0,0,.555-.588l.4-1.846h3.174l.4,1.846A.783.783,0,0,0,15.643,4a9.393,9.393,0,0,1,2.092.867.783.783,0,0,0,.808-.023l1.59-1.022,2.245,2.245-1.022,1.59a.783.783,0,0,0-.023.808,9.394,9.394,0,0,1,.868,2.092.783.783,0,0,0,.588.555l1.847.4Zm0,0" fill="#606060"/>
    </g>
  </g>
</svg>
