<?xml version="1.0" encoding="utf-8"?>
<!-- Generator: Adobe Illustrator 23.0.1, SVG Export Plug-In . SVG Version: 6.00 Build 0)  -->
<svg version="1.1" id="Layer_1" xmlns="http://www.w3.org/2000/svg" xmlns:xlink="http://www.w3.org/1999/xlink" x="0px" y="0px"
	 viewBox="0 0 24 24" style="enable-background:new 0 0 24 24;" xml:space="preserve">
<style type="text/css">
	.st0{fill:#D4E1F4;}
	.st1{fill:#0178D4;}
	.st2{fill:#0095DE;}
</style>
<g>
	<g>
		<path class="st0" d="M2.7,7.3L1.8,6.5v12.5l0.9-0.8V7.3z"/>
		<path class="st0" d="M17.5,3.5l0.8-0.9H5.7l0.8,0.9H17.5z"/>
		<path class="st0" d="M21.3,7.3v11l0.9,0.8V6.5L21.3,7.3z"/>
	</g>
	<path class="st1" d="M22.6,5.7c-0.1,0-0.2,0-0.3,0l-3.6,3h-2.7V6l3-3.6c0.1-0.1,0.1-0.2,0-0.3C19.1,2.1,19,2,18.9,2H5.1
		C5,2,4.9,2.1,4.9,2.2c0,0.1,0,0.2,0,0.3l3,3.6v2.7H5.2l-3.6-3c-0.1-0.1-0.2-0.1-0.3,0c-0.1,0-0.2,0.1-0.2,0.3v13.7
		c0,0.2,0.1,0.3,0.3,0.3c0.1,0,0.1,0,0.2-0.1l3.6-3H8v3.8c0,0.2,0.1,0.3,0.3,0.3h1.5v0.8c0,0.2,0.1,0.3,0.3,0.3h3.8
		c0.2,0,0.3-0.1,0.3-0.3v-0.8h1.5c0.2,0,0.3-0.1,0.3-0.3v-3.8h2.7l3.6,3c0,0,0.1,0.1,0.2,0.1c0.2,0,0.3-0.1,0.3-0.3V5.9
		C22.8,5.8,22.7,5.7,22.6,5.7z M18.3,2.6l-2.6,3.1H8.3L5.7,2.6H18.3z M4.9,16.5l-3.1,2.6V6.5l3.1,2.6V16.5z M13.6,21.4h-3.3v-1.6
		h3.3V21.4z M15.7,16.3c-0.1,0-0.1,0-0.2,0.1c0,0.1-0.1,0.1-0.1,0.2v3.8h-1.3v-0.8c0-0.2-0.1-0.3-0.3-0.3h-3.8
		c-0.2,0-0.3,0.1-0.3,0.3v0.8H8.5v-3.8c0-0.1,0-0.1-0.1-0.2c0-0.1-0.1-0.1-0.2-0.1H5.4V9.2h2.8V9h0.2V6.2h7V9h0.2v0.3h2.8v7.1H15.7z
		 M22.2,19.1l-3.1-2.6V9.1l3.1-2.6V19.1z"/>
	<path class="st2" d="M12,7.2c-3.1,0-5.6,2.5-5.6,5.6s2.5,5.6,5.6,5.6s5.6-2.5,5.6-5.6C17.6,9.7,15.1,7.2,12,7.2z M12,17.8
		c-2.8,0-5.1-2.3-5.1-5.1c0-2.8,2.3-5.1,5.1-5.1s5.1,2.3,5.1,5.1C17.1,15.6,14.8,17.8,12,17.8z"/>
	<path class="st2" d="M12,8.6c-2.3,0-4.2,1.9-4.2,4.2s1.9,4.2,4.2,4.2s4.2-1.9,4.2-4.2C16.2,10.5,14.3,8.6,12,8.6z M12,16.4
		c-2,0-3.6-1.6-3.6-3.6c0-2,1.6-3.6,3.6-3.6s3.6,1.6,3.6,3.6C15.6,14.8,14,16.4,12,16.4z"/>
</g>
</svg>
