<svg xmlns="http://www.w3.org/2000/svg" xmlns:xlink="http://www.w3.org/1999/xlink" width="24" height="24" viewBox="0 0 24 24">
  <defs>
    <clipPath id="clip-Supervise_Chat">
      <rect width="24" height="24"/>
    </clipPath>
  </defs>
  <g id="Supervise_Chat" data-name="Supervise Chat" clip-path="url(#clip-Supervise_Chat)">
    <path id="Path_2301" data-name="Path 2301" d="M5.19,26.145H4.265A4.27,4.27,0,0,1,0,21.879V15.765A4.27,4.27,0,0,1,4.265,11.5h9.668A4.27,4.27,0,0,1,18.2,15.765v5.758a.711.711,0,0,1-1.422,0V15.765a2.847,2.847,0,0,0-2.844-2.844H4.265a2.847,2.847,0,0,0-2.844,2.844v6.114a2.847,2.847,0,0,0,2.844,2.844H5.19a.711.711,0,1,1,0,1.422ZM15.356,15.73a.711.711,0,0,0-.711-.711H3.555a.711.711,0,1,0,0,1.422h11.09A.711.711,0,0,0,15.356,15.73Zm0,2.844a.711.711,0,0,0-.711-.711H3.555a.711.711,0,1,0,0,1.422h11.09A.711.711,0,0,0,15.356,18.574Zm1.968,8.569a2.037,2.037,0,0,0,0-3.347,8.632,8.632,0,0,0-4.563-1.739A8.632,8.632,0,0,0,8.2,23.8a2.037,2.037,0,0,0,0,3.347,8.632,8.632,0,0,0,4.563,1.739A8.632,8.632,0,0,0,17.324,27.143Zm-.81-2.179a.615.615,0,0,1,0,1.01,7.283,7.283,0,0,1-3.753,1.485,7.283,7.283,0,0,1-3.753-1.485.615.615,0,0,1,0-1.01,7.283,7.283,0,0,1,3.753-1.485A7.283,7.283,0,0,1,16.514,24.964ZM12.8,26.358a.889.889,0,1,0-.889-.889A.889.889,0,0,0,12.8,26.358Z" transform="translate(2.5 -8)" fill="#172b4d" stroke="#172b4d" stroke-width="0.25"/>
  </g>
</svg>
