<svg id="Group_531" data-name="Group 531" xmlns="http://www.w3.org/2000/svg" width="24" height="24" viewBox="0 0 24 24">
  <path id="Path_734" data-name="Path 734" d="M23.859,60.377V52.686A4.68,4.68,0,0,1,28.534,48H25.688A4.688,4.688,0,0,0,21,52.688v7.688a4.688,4.688,0,0,0,4.688,4.688h2.846a4.68,4.68,0,0,1-4.674-4.686Z" transform="translate(-20.016 -45.75)" fill="#cee1f2"/>
  <path id="Path_735" data-name="Path 735" d="M18.375,46.938H5.624A5.63,5.63,0,0,1,0,41.314V33.625A5.631,5.631,0,0,1,5.625,28H9.844a.938.938,0,1,1,0,1.875H5.625a3.754,3.754,0,0,0-3.75,3.75v7.689a3.753,3.753,0,0,0,3.749,3.749H18.375a3.754,3.754,0,0,0,3.75-3.75V40.047a.938.938,0,0,1,1.875,0v1.266A5.631,5.631,0,0,1,18.375,46.938Zm-.938,2.813a.937.937,0,0,0-.938-.938h-9a.938.938,0,0,0,0,1.875h9A.937.937,0,0,0,17.438,49.75Z" transform="translate(0 -26.687)" fill="#0178d4"/>
  <path id="Path_736" data-name="Path 736" d="M248.937,12.375a.938.938,0,0,1-.937-.938V6.243a6.185,6.185,0,1,1,6.166,6.132h-.006a6.115,6.115,0,0,1-2.75-.643,1.5,1.5,0,0,0-1.726.283l-.085.085A.937.937,0,0,1,248.937,12.375ZM250.745,9.7a3.364,3.364,0,0,1,1.5.354,4.258,4.258,0,0,0,1.915.446h0A4.336,4.336,0,0,0,258.5,6.23a4.312,4.312,0,1,0-8.625,0s0,.006,0,.009V9.815a3.369,3.369,0,0,1,.87-.114Z" transform="translate(-236.375)" fill="#0095de"/>
</svg>
