<svg xmlns="http://www.w3.org/2000/svg" width="27" height="26.986" viewBox="0 0 27 26.986">
    <defs>
        <style>
            .prefix__cls-1{fill:#fff}
        </style>
    </defs>
    <g id="prefix__team" transform="translate(0 -.134)">
        <path id="prefix__Path_9" d="M21.611 274.761c-3.111 0-3.852-.123-5.18.479a48 48 0 0 0-5.069-.056 7.266 7.266 0 0 0-.814.046c-1.319-.592-2.058-.47-5.159-.47A5.4 5.4 0 0 0 0 280.15v.352a3.327 3.327 0 0 0 3.323 3.323h.893a4.341 4.341 0 0 0 4.238 3.43h9.986a4.341 4.341 0 0 0 4.238-3.43h1A3.327 3.327 0 0 0 27 280.5v-.352a5.4 5.4 0 0 0-5.389-5.389zm-17.484 7.376h-.8a1.637 1.637 0 0 1-1.64-1.637v-.352a3.706 3.706 0 0 1 3.7-3.7h1.892a7.241 7.241 0 0 0-3.152 5.689zm16.96.784a2.649 2.649 0 0 1-2.646 2.646H8.454a2.649 2.649 0 0 1-2.646-2.646v-.495a5.56 5.56 0 0 1 5.554-5.554h4.17a5.56 5.56 0 0 1 5.554 5.554v.495zm4.226-2.42a1.637 1.637 0 0 1-1.635 1.636h-.909a7.241 7.241 0 0 0-3.153-5.689h2a3.706 3.706 0 0 1 3.7 3.7z" class="prefix__cls-1" data-name="Path 9" transform="translate(0 -260.135)"/>
        <path id="prefix__Path_10" d="M54.963 13.349a3.691 3.691 0 0 0 2.892-1.212 5.387 5.387 0 0 0 7.429-.054 3.977 3.977 0 0 0 6.595-1.218 10.52 10.52 0 0 0 .548-3.836c0-2.209-1.456-3.734-4.2-3.734a6.118 6.118 0 0 0-1.324.135c-.621-2.093-2.526-3.3-5.354-3.3s-4.722 1.2-5.349 3.28a6.182 6.182 0 0 0-1.237-.11c-2.749 0-4.2 1.525-4.2 3.734a10.52 10.52 0 0 0 .548 3.836 3.693 3.693 0 0 0 3.657 2.483zM70.74 7.03a9.059 9.059 0 0 1-.428 3.209 2.021 2.021 0 0 1-2.09 1.422 1.977 1.977 0 0 1-1.948-1.113 13.759 13.759 0 0 0 .845-5.437 4.261 4.261 0 0 1 1.1-.128c.626.001 2.521.001 2.521 2.047zM58.709 2.58a5.651 5.651 0 0 1 5.672 0 2.872 2.872 0 0 1 1.052 2.466c0 3.441-.45 6.863-3.887 6.863s-3.887-3.428-3.887-6.863a2.872 2.872 0 0 1 1.05-2.466zm-3.746 2.4a4.434 4.434 0 0 1 1.007.093 13.586 13.586 0 0 0 .889 5.568 1.973 1.973 0 0 1-1.9 1.017 2.021 2.021 0 0 1-2.09-1.422 9.056 9.056 0 0 1-.428-3.209c.004-.503.004-2.043 2.522-2.043z" class="prefix__cls-1" data-name="Path 10" transform="translate(-48.081)"/>
    </g>
</svg>
