<?xml version="1.0" encoding="utf-8"?>
<!-- Generator: Adobe Illustrator 24.1.2, SVG Export Plug-In . SVG Version: 6.00 Build 0)  -->
<svg version="1.1" id="Layer_1" xmlns="http://www.w3.org/2000/svg" xmlns:xlink="http://www.w3.org/1999/xlink" x="0px" y="0px"
	 viewBox="0 0 27 27" style="enable-background:new 0 0 27 27;" xml:space="preserve">
<style type="text/css">
	.st0{fill:#FFFFFF;}
</style>
<g id="prefix__tickets" transform="translate(-.314)">
	<g id="prefix__Group_2" transform="translate(.314)">
		<g id="prefix__Group_1">
			<circle id="prefix__Ellipse_1" class="st0" cx="19.1" cy="21.8" r="1.1"/>
			<circle id="prefix__Ellipse_2" class="st0" cx="16.7" cy="8.2" r="1.1"/>
			<path id="prefix__Path_14" class="st0" d="M25.9,16.5H27v-6.3h-2.7c-1.2,0-2.1-0.9-2.1-2.1c0-0.8,0.4-1.5,1.1-1.9l0.9-0.5L21.6,0
				L0,10.2h0v6.3h1.1c1.2,0,2.1,0.9,2.1,2.1c0,1.2-0.9,2.1-2.1,2.1H0V27h27v-6.3h-1.1c-1.2,0-2.1-0.9-2.1-2.1
				C23.8,17.4,24.8,16.5,25.9,16.5z M14.4,5.7c0.3,0.5,0.9,0.7,1.4,0.5c0.5-0.3,0.7-0.8,0.5-1.4l4.3-2l1,2.1
				c-1.5,1.3-1.9,3.5-0.9,5.3H5L14.4,5.7z M24.9,22.7v2.2h-4.7c0-0.6-0.5-1-1.1-1c-0.6,0-1,0.5-1,1H2.1v-2.2c2.3-0.6,3.6-2.9,3-5.1
				c-0.4-1.5-1.5-2.6-3-3v-2.2H18c0,0.6,0.4,1.1,1,1.1c0.6,0,1.1-0.4,1.1-1c0,0,0,0,0-0.1h4.7v2.2c-2.3,0.6-3.6,2.9-3,5.1
				C22.2,21.1,23.4,22.3,24.9,22.7z"/>
			<circle id="prefix__Ellipse_3" class="st0" cx="19.1" cy="15.4" r="1.1"/>
			<circle id="prefix__Ellipse_4" class="st0" cx="19.1" cy="18.6" r="1.1"/>
		</g>
	</g>
</g>
</svg>
