<?xml version="1.0" encoding="utf-8"?>
<!-- Generator: Adobe Illustrator 23.0.1, SVG Export Plug-In . SVG Version: 6.00 Build 0)  -->
<svg version="1.1" id="Layer_1" xmlns="http://www.w3.org/2000/svg" xmlns:xlink="http://www.w3.org/1999/xlink" x="0px" y="0px"
	 viewBox="0 0 72 72" style="enable-background:new 0 0 72 72;" xml:space="preserve">
<style type="text/css">
	.st0{clip-path:url(#SVGID_2_);}
	.st1{fill:#009CE8;}
	.st2{fill:#FFFFFF;stroke:#FFFFFF;stroke-width:0.2;}
</style>
<g>
	<defs>
		<rect id="SVGID_1_" width="72" height="72"/>
	</defs>
	<clipPath id="SVGID_2_">
		<use xlink:href="#SVGID_1_"  style="overflow:visible;"/>
	</clipPath>
	<g id="Tickets" class="st0">
		<g id="Group_1289" transform="translate(-9123 17959)">
			<g id="Group_597" transform="translate(29659 4387)">
				<path id="Rectangle_2027" class="st1" d="M-20519-22342h39c7.7,0,14,6.3,14,14l0,0v50l0,0h-53c-7.7,0-14-6.3-14-14v-36
					C-20533-22335.7-20526.7-22342-20519-22342z"/>
			</g>
			<g id="Group_594" transform="translate(9107.5 -18473.152)">
				<path id="Path_750" class="st2" d="M64,552.4l-14.6-14.6c-0.9-0.9-2.3-0.9-3.2,0c0,0,0,0,0,0L44,540l0.5,0.5
					c0.7,0.7,0.7,1.9,0,2.6c-0.3,0.3-0.8,0.5-1.3,0.5c-0.5,0-1-0.2-1.3-0.5l-0.5-0.5l-2.2,2.2c-0.9,0.9-0.9,2.3,0,3.2l14.6,14.6
					c0.9,0.9,2.3,0.9,3.2,0c0,0,0,0,0,0l2.2-2.2l-0.5-0.5c-0.7-0.7-0.7-1.9,0-2.6c0.7-0.7,1.9-0.7,2.6,0l0.5,0.5l2.2-2.2
					C64.9,554.7,64.8,553.3,64,552.4z M40.2,545.9l1.2-1.2c1.6,1,3.7,0.5,4.7-1.1c0.7-1.1,0.7-2.5,0-3.6l1.2-1.2
					c0.3-0.3,0.7-0.3,1,0l3.6,3.6l-8.1,8.1l-3.6-3.6C40,546.7,40,546.2,40.2,545.9z M62.9,554.5l-1.2,1.2c-1.6-1-3.7-0.5-4.7,1.1
					c-0.7,1.1-0.7,2.5,0,3.6l-1.2,1.2c-0.3,0.3-0.7,0.3-1,0l-10-10l8.1-8.1l10,10C63.2,553.8,63.2,554.3,62.9,554.5z"/>
			</g>
		</g>
	</g>
</g>
</svg>
