<svg xmlns="http://www.w3.org/2000/svg" xmlns:xlink="http://www.w3.org/1999/xlink" width="48" height="48" viewBox="0 0 48 48">
  <defs>
    <clipPath id="clip-Tickets">
      <rect width="48" height="48"/>
    </clipPath>
  </defs>
  <g id="Tickets" clip-path="url(#clip-Tickets)">
    <path id="Path_2296" data-name="Path 2296" d="M41.281,31.053,26.645,16.416a2.241,2.241,0,0,0-3.172,0L21.287,18.6l.54.54a1.86,1.86,0,0,1-1.316,3.175,1.843,1.843,0,0,1-1.314-.545l-.54-.541L16.42,23.468a2.246,2.246,0,0,0,0,3.172L31.057,41.278a2.242,2.242,0,0,0,3.172,0l2.238-2.238-.541-.54a1.86,1.86,0,0,1,2.63-2.63l.54.541,2.185-2.186A2.245,2.245,0,0,0,41.281,31.053ZM17.5,24.55l1.217-1.217a3.39,3.39,0,0,0,4.671-4.67L24.554,17.5a.73.73,0,0,1,1.01,0l3.563,3.563-8.063,8.063L17.5,25.559A.714.714,0,0,1,17.5,24.55Zm22.7,8.594-1.165,1.165a3.391,3.391,0,0,0-4.671,4.671L33.147,40.2a.732.732,0,0,1-1.01,0L22.144,30.2l8.063-8.063L40.2,32.134A.715.715,0,0,1,40.2,33.144Z" transform="translate(-5.264 -5.258)" fill="#606060" stroke="#606060" stroke-width="0.2"/>
  </g>
</svg>
