<?xml version="1.0" encoding="utf-8"?>
<!-- Generator: Adobe Illustrator 23.0.1, SVG Export Plug-In . SVG Version: 6.00 Build 0)  -->
<svg version="1.1" id="Layer_1" xmlns="http://www.w3.org/2000/svg" xmlns:xlink="http://www.w3.org/1999/xlink" x="0px" y="0px"
	 viewBox="0 0 24 24" style="enable-background:new 0 0 24 24;" xml:space="preserve">
<style type="text/css">
	.st0{fill:#D4E1F4;}
	.st1{fill:#0095DE;}
	.st2{fill:#0178D4;}
</style>
<g>
	<path class="st0" d="M7.2,18.3c-1.3-2.2-1.3-4.7-0.1-6.9L13,3.4L12,2l-6.8,9.4C4,13.6,4,16.1,5.3,18.3c1.4,2.4,4,3.9,6.7,3.9
		c0.3,0,0.7,0,1-0.1C10.6,21.9,8.5,20.4,7.2,18.3z"/>
	<path class="st1" d="M11.9,19.3c2.6,0,4.7-2.1,4.7-4.7c0-0.2-0.2-0.4-0.4-0.4s-0.4,0.2-0.4,0.4c0,2.1-1.8,3.9-3.9,3.9
		c-0.2,0-0.4,0.2-0.4,0.4S11.7,19.3,11.9,19.3L11.9,19.3z"/>
	<path class="st2" d="M19.4,11l-7.1-9.9C12.2,1,12.1,1,12,1c-0.1,0-0.2,0.1-0.3,0.2L4.6,11c0,0,0,0,0,0c-1.4,2.4-1.4,5.2,0,7.7
		C6.1,21.4,9,23,12,23c3,0,5.9-1.7,7.4-4.3C20.8,16.3,20.8,13.4,19.4,11C19.4,11,19.4,11,19.4,11z M18.7,18.3
		c-1.4,2.4-4,3.9-6.7,3.9c-2.8,0-5.3-1.5-6.7-3.9C4,16.1,4,13.6,5.2,11.4L12,2l6.8,9.4C20,13.6,20,16.1,18.7,18.3L18.7,18.3z"/>
</g>
</svg>
